<?xml version="1.0" encoding="UTF-8" standalone="no"?>
<!DOCTYPE svg PUBLIC "-//W3C//DTD SVG 1.1//EN" "http://www.w3.org/Graphics/SVG/1.1/DTD/svg11.dtd">
<svg xmlns="http://www.w3.org/2000/svg" version="1.1" viewBox="0.00 0.00 240.00 240.00">
<g stroke-width="2.00" fill="none" stroke-linecap="butt">
<path stroke="#d1d1d1" vector-effect="non-scaling-stroke" d="
  M 61.82 130.44
  Q 61.78 136.94 64.77 142.67"
/>
<path stroke="#b29a8b" vector-effect="non-scaling-stroke" d="
  M 64.77 142.67
  Q 64.34 145.86 60.37 145.70
  A 0.89 0.89 0.0 0 0 59.97 147.41
  Q 62.56 148.57 63.94 151.01
  A 1.00 0.99 43.5 0 1 63.97 151.94
  L 62.12 155.94
  A 0.55 0.54 -84.9 0 0 62.75 156.70
  Q 68.78 155.11 70.59 160.63
  A 0.82 0.82 0.0 0 0 72.13 160.69
  Q 72.97 158.64 74.49 157.59"
/>
<path stroke="#d1d1d1" vector-effect="non-scaling-stroke" d="
  M 74.49 157.59
  C 89.40 172.26 110.98 174.94 128.93 164.96
  A 0.75 0.75 0.0 0 0 129.12 163.79
  L 124.13 158.51"
/>
<path stroke="#b29a8b" vector-effect="non-scaling-stroke" d="
  M 124.13 158.51
  L 131.08 155.15
  A 1.60 1.60 0.0 0 0 131.53 152.59
  Q 98.13 118.30 89.14 71.12
  A 1.53 1.53 0.0 0 0 86.98 70.03
  C 63.65 81.20 54.03 105.62 61.82 130.44"
/>
<path stroke="#866e5f" vector-effect="non-scaling-stroke" d="
  M 124.13 158.51
  C 98.39 168.12 72.15 155.61 61.82 130.44"
/>
<path stroke="#866e5f" vector-effect="non-scaling-stroke" d="
  M 74.49 157.59
  L 76.86 156.67
  Q 77.41 156.46 77.20 155.91
  Q 76.94 155.18 75.65 155.14"
/>
<path stroke="#d2d19b" vector-effect="non-scaling-stroke" d="
  M 75.65 155.14
  L 66.40 144.15"
/>
<path stroke="#866e5f" vector-effect="non-scaling-stroke" d="
  M 66.40 144.15
  L 66.49 143.30
  Q 66.54 142.77 66.05 142.56
  Q 65.41 142.27 64.77 142.67"
/>
<path stroke="#b39a54" vector-effect="non-scaling-stroke" d="
  M 66.40 144.15
  Q 65.60 145.88 63.68 146.97
  A 0.47 0.47 0.0 0 0 63.61 147.73
  Q 66.66 150.31 65.23 154.14
  A 0.44 0.44 0.0 0 0 65.63 154.74
  Q 69.09 154.87 71.12 157.53
  Q 71.43 157.95 71.87 157.66
  L 75.65 155.14"
/>
<path stroke="#d1d1d1" vector-effect="non-scaling-stroke" d="
  M 165.25 156.91
  L 167.35 164.17
  Q 167.54 164.85 168.15 164.49
  C 185.00 154.54 195.67 133.51 189.26 114.11"
/>
<path stroke="#b29a8b" vector-effect="non-scaling-stroke" d="
  M 189.26 114.11
  Q 189.79 112.83 193.00 113.27
  A 1.07 1.07 0.0 0 0 193.95 111.51
  Q 190.34 107.39 194.36 103.36
  A 0.83 0.83 0.0 0 0 193.55 101.98
  C 187.78 103.54 188.37 98.85 187.83 95.24
  A 0.40 0.40 0.0 0 0 187.14 95.03
  C 185.34 97.01 183.94 99.71 180.67 97.14"
/>
<path stroke="#d1d1d1" vector-effect="non-scaling-stroke" d="
  M 180.67 97.14
  Q 178.70 93.17 174.18 90.90"
/>
<path stroke="#b29a8b" vector-effect="non-scaling-stroke" d="
  M 174.18 90.90
  C 161.19 75.14 143.70 68.62 123.54 73.16
  C 121.66 73.59 103.63 79.11 108.03 82.97
  Q 143.59 114.15 156.48 160.48
  A 1.44 1.44 0.0 0 0 158.66 161.29
  L 165.25 156.91"
/>
<path stroke="#866e5f" vector-effect="non-scaling-stroke" d="
  M 174.18 90.90
  C 188.88 112.56 185.65 140.60 165.25 156.91"
/>
<path stroke="#866e5f" vector-effect="non-scaling-stroke" d="
  M 180.67 97.14
  Q 179.53 98.50 182.03 100.24"
/>
<path stroke="#d2d19b" vector-effect="non-scaling-stroke" d="
  M 182.03 100.24
  L 186.81 114.09"
/>
<path stroke="#866e5f" vector-effect="non-scaling-stroke" d="
  M 186.81 114.09
  Q 185.93 116.53 189.26 114.11"
/>
<path stroke="#b39a54" vector-effect="non-scaling-stroke" d="
  M 186.81 114.09
  Q 188.43 111.82 191.05 111.58
  Q 191.72 111.52 191.44 110.91
  Q 189.90 107.58 191.93 104.41
  A 0.46 0.45 17.3 0 0 191.56 103.71
  Q 187.19 103.54 186.71 99.25
  Q 186.63 98.59 186.01 98.82
  L 182.03 100.24"
/>
<path stroke="#90351f" vector-effect="non-scaling-stroke" d="
  M 63.23 123.19
  C 69.24 151.87 101.08 167.00 127.13 153.51
  Q 127.65 153.24 127.25 152.81
  Q 95.83 119.53 86.46 74.55
  A 0.52 0.51 68.8 0 0 85.70 74.21
  C 67.91 84.40 59.06 103.29 63.23 123.19"
/>
<path stroke="#90351f" vector-effect="non-scaling-stroke" d="
  M 155.97 79.69
  Q 135.40 68.71 111.93 80.63
  Q 110.66 81.27 111.72 82.22
  Q 139.42 107.10 153.50 142.03
  C 155.31 146.52 157.07 152.16 158.76 157.26
  Q 158.94 157.80 159.41 157.48
  C 188.34 137.77 187.30 96.43 155.97 79.69"
/>
</g>
<path fill="#fdfdfd" d="
  M 128.29 159.87
  C 129.79 161.24 134.09 164.05 130.81 166.23
  C 113.11 178.07 90.54 174.47 74.50 161.34
  A 0.17 0.17 0.0 0 0 74.24 161.40
  Q 73.22 163.53 70.76 163.99
  Q 70.14 164.10 69.79 163.59
  L 67.13 159.69
  A 1.32 1.32 0.0 0 0 66.19 159.12
  Q 64.67 158.94 62.52 159.01
  C 59.28 159.13 59.60 154.48 60.73 152.80
  A 1.58 1.57 32.7 0 0 60.24 150.58
  Q 58.01 149.21 56.95 146.81
  A 1.16 1.16 0.0 0 1 56.99 145.79
  Q 58.48 143.02 61.73 142.92
  A 0.32 0.32 0.0 0 0 61.96 142.39
  L 61.38 141.72
  Q 61.12 141.42 61.03 141.04
  C 58.35 129.23 56.43 121.02 56.72 110.85
  C 57.20 93.63 69.20 74.55 85.73 68.26
  C 90.25 66.54 91.38 69.36 92.14 73.15
  Q 100.90 116.92 131.65 149.01
  C 136.35 153.91 133.92 157.07 128.43 159.11
  Q 127.74 159.37 128.29 159.87
  Z
  M 61.82 130.44
  Q 61.78 136.94 64.77 142.67
  Q 64.34 145.86 60.37 145.70
  A 0.89 0.89 0.0 0 0 59.97 147.41
  Q 62.56 148.57 63.94 151.01
  A 1.00 0.99 43.5 0 1 63.97 151.94
  L 62.12 155.94
  A 0.55 0.54 -84.9 0 0 62.75 156.70
  Q 68.78 155.11 70.59 160.63
  A 0.82 0.82 0.0 0 0 72.13 160.69
  Q 72.97 158.64 74.49 157.59
  C 89.40 172.26 110.98 174.94 128.93 164.96
  A 0.75 0.75 0.0 0 0 129.12 163.79
  L 124.13 158.51
  L 131.08 155.15
  A 1.60 1.60 0.0 0 0 131.53 152.59
  Q 98.13 118.30 89.14 71.12
  A 1.53 1.53 0.0 0 0 86.98 70.03
  C 63.65 81.20 54.03 105.62 61.82 130.44
  Z"
/>
<path fill="#fdfdfd" d="
  M 191.44 99.21
  Q 194.83 99.05 197.17 101.58
  A 1.25 1.25 0.0 0 1 197.36 103.01
  L 194.85 107.79
  Q 194.60 108.26 194.96 108.66
  Q 196.72 110.61 196.99 113.20
  A 1.09 1.07 -27.7 0 1 196.72 114.03
  Q 195.05 115.91 192.76 115.28
  A 0.37 0.37 0.0 0 0 192.32 115.77
  C 195.12 123.18 193.13 135.98 189.69 143.51
  C 184.51 154.83 177.90 162.12 167.66 167.30
  A 1.28 1.27 -21.4 0 1 165.85 166.51
  L 164.29 160.99
  A 0.40 0.40 0.0 0 0 163.65 160.80
  C 160.01 163.96 155.36 165.80 153.59 159.55
  Q 141.47 116.64 108.56 86.85
  C 105.24 83.85 102.63 80.53 107.67 77.32
  Q 126.47 65.34 148.16 70.70
  C 155.28 72.46 161.91 77.03 168.33 80.94
  Q 168.77 81.21 168.97 81.67
  C 169.74 83.43 171.45 83.62 172.46 85.43
  A 2.13 2.08 -0.7 0 0 173.34 86.27
  L 176.05 87.66
  A 1.27 1.26 4.8 0 1 176.68 88.40
  Q 177.17 89.94 178.64 90.47
  Q 179.16 90.65 179.56 91.02
  Q 181.61 92.88 182.95 95.23
  A 0.39 0.39 0.0 0 0 183.65 95.18
  Q 185.02 91.70 189.10 92.92
  Q 189.70 93.10 189.84 93.71
  L 190.96 98.84
  Q 191.05 99.23 191.44 99.21
  Z
  M 165.25 156.91
  L 167.35 164.17
  Q 167.54 164.85 168.15 164.49
  C 185.00 154.54 195.67 133.51 189.26 114.11
  Q 189.79 112.83 193.00 113.27
  A 1.07 1.07 0.0 0 0 193.95 111.51
  Q 190.34 107.39 194.36 103.36
  A 0.83 0.83 0.0 0 0 193.55 101.98
  C 187.78 103.54 188.37 98.85 187.83 95.24
  A 0.40 0.40 0.0 0 0 187.14 95.03
  C 185.34 97.01 183.94 99.71 180.67 97.14
  Q 178.70 93.17 174.18 90.90
  C 161.19 75.14 143.70 68.62 123.54 73.16
  C 121.66 73.59 103.63 79.11 108.03 82.97
  Q 143.59 114.15 156.48 160.48
  A 1.44 1.44 0.0 0 0 158.66 161.29
  L 165.25 156.91
  Z"
/>
<path fill="#663718" d="
  M 124.13 158.51
  C 98.39 168.12 72.15 155.61 61.82 130.44
  C 54.03 105.62 63.65 81.20 86.98 70.03
  A 1.53 1.53 0.0 0 1 89.14 71.12
  Q 98.13 118.30 131.53 152.59
  A 1.60 1.60 0.0 0 1 131.08 155.15
  L 124.13 158.51
  Z
  M 63.23 123.19
  C 69.24 151.87 101.08 167.00 127.13 153.51
  Q 127.65 153.24 127.25 152.81
  Q 95.83 119.53 86.46 74.55
  A 0.52 0.51 68.8 0 0 85.70 74.21
  C 67.91 84.40 59.06 103.29 63.23 123.19
  Z"
/>
<path fill="#663718" d="
  M 174.18 90.90
  C 188.88 112.56 185.65 140.60 165.25 156.91
  L 158.66 161.29
  A 1.44 1.44 0.0 0 1 156.48 160.48
  Q 143.59 114.15 108.03 82.97
  C 103.63 79.11 121.66 73.59 123.54 73.16
  C 143.70 68.62 161.19 75.14 174.18 90.90
  Z
  M 155.97 79.69
  Q 135.40 68.71 111.93 80.63
  Q 110.66 81.27 111.72 82.22
  Q 139.42 107.10 153.50 142.03
  C 155.31 146.52 157.07 152.16 158.76 157.26
  Q 158.94 157.80 159.41 157.48
  C 188.34 137.77 187.30 96.43 155.97 79.69
  Z"
/>
<path fill="#ba3325" d="
  M 127.13 153.51
  C 101.08 167.00 69.24 151.87 63.23 123.19
  C 59.06 103.29 67.91 84.40 85.70 74.21
  A 0.52 0.51 68.8 0 1 86.46 74.55
  Q 95.83 119.53 127.25 152.81
  Q 127.65 153.24 127.13 153.51
  Z"
/>
<path fill="#ba3325" d="
  M 155.97 79.69
  C 187.30 96.43 188.34 137.77 159.41 157.48
  Q 158.94 157.80 158.76 157.26
  C 157.07 152.16 155.31 146.52 153.50 142.03
  Q 139.42 107.10 111.72 82.22
  Q 110.66 81.27 111.93 80.63
  Q 135.40 68.71 155.97 79.69
  Z"
/>
<path fill="#a5a5a5" d="
  M 174.18 90.90
  Q 178.70 93.17 180.67 97.14
  Q 179.53 98.50 182.03 100.24
  L 186.81 114.09
  Q 185.93 116.53 189.26 114.11
  C 195.67 133.51 185.00 154.54 168.15 164.49
  Q 167.54 164.85 167.35 164.17
  L 165.25 156.91
  C 185.65 140.60 188.88 112.56 174.18 90.90
  Z"
/>
<path fill="#663718" d="
  M 189.26 114.11
  Q 185.93 116.53 186.81 114.09
  Q 188.43 111.82 191.05 111.58
  Q 191.72 111.52 191.44 110.91
  Q 189.90 107.58 191.93 104.41
  A 0.46 0.45 17.3 0 0 191.56 103.71
  Q 187.19 103.54 186.71 99.25
  Q 186.63 98.59 186.01 98.82
  L 182.03 100.24
  Q 179.53 98.50 180.67 97.14
  C 183.94 99.71 185.34 97.01 187.14 95.03
  A 0.40 0.40 0.0 0 1 187.83 95.24
  C 188.37 98.85 187.78 103.54 193.55 101.98
  A 0.83 0.83 0.0 0 1 194.36 103.36
  Q 190.34 107.39 193.95 111.51
  A 1.07 1.07 0.0 0 1 193.00 113.27
  Q 189.79 112.83 189.26 114.11
  Z"
/>
<path fill="#fffd90" d="
  M 186.81 114.09
  L 182.03 100.24
  L 186.01 98.82
  Q 186.63 98.59 186.71 99.25
  Q 187.19 103.54 191.56 103.71
  A 0.46 0.45 17.3 0 1 191.93 104.41
  Q 189.90 107.58 191.44 110.91
  Q 191.72 111.52 191.05 111.58
  Q 188.43 111.82 186.81 114.09
  Z"
/>
<path fill="#a5a5a5" d="
  M 61.82 130.44
  C 72.15 155.61 98.39 168.12 124.13 158.51
  L 129.12 163.79
  A 0.75 0.75 0.0 0 1 128.93 164.96
  C 110.98 174.94 89.40 172.26 74.49 157.59
  L 76.86 156.67
  Q 77.41 156.46 77.20 155.91
  Q 76.94 155.18 75.65 155.14
  L 66.40 144.15
  L 66.49 143.30
  Q 66.54 142.77 66.05 142.56
  Q 65.41 142.27 64.77 142.67
  Q 61.78 136.94 61.82 130.44
  Z"
/>
<path fill="#663718" d="
  M 66.40 144.15
  Q 65.60 145.88 63.68 146.97
  A 0.47 0.47 0.0 0 0 63.61 147.73
  Q 66.66 150.31 65.23 154.14
  A 0.44 0.44 0.0 0 0 65.63 154.74
  Q 69.09 154.87 71.12 157.53
  Q 71.43 157.95 71.87 157.66
  L 75.65 155.14
  Q 76.94 155.18 77.20 155.91
  Q 77.41 156.46 76.86 156.67
  L 74.49 157.59
  Q 72.97 158.64 72.13 160.69
  A 0.82 0.82 0.0 0 1 70.59 160.63
  Q 68.78 155.11 62.75 156.70
  A 0.55 0.54 -84.9 0 1 62.12 155.94
  L 63.97 151.94
  A 1.00 0.99 43.5 0 0 63.94 151.01
  Q 62.56 148.57 59.97 147.41
  A 0.89 0.89 0.0 0 1 60.37 145.70
  Q 64.34 145.86 64.77 142.67
  Q 65.41 142.27 66.05 142.56
  Q 66.54 142.77 66.49 143.30
  L 66.40 144.15
  Z"
/>
<path fill="#fffd90" d="
  M 66.40 144.15
  L 75.65 155.14
  L 71.87 157.66
  Q 71.43 157.95 71.12 157.53
  Q 69.09 154.87 65.63 154.74
  A 0.44 0.44 0.0 0 1 65.23 154.14
  Q 66.66 150.31 63.61 147.73
  A 0.47 0.47 0.0 0 1 63.68 146.97
  Q 65.60 145.88 66.40 144.15
  Z"
/>
</svg>
