<?xml version="1.0" encoding="UTF-8" standalone="no"?>
<!DOCTYPE svg PUBLIC "-//W3C//DTD SVG 1.1//EN" "http://www.w3.org/Graphics/SVG/1.1/DTD/svg11.dtd">
<svg xmlns="http://www.w3.org/2000/svg" version="1.1" viewBox="0.00 0.00 240.00 240.00">
<g stroke-width="2.00" fill="none" stroke-linecap="butt">
<path stroke="#b39b8c" vector-effect="non-scaling-stroke" d="
  M 130.30 0.00
  L 123.58 61.52
  Q 123.52 62.08 123.35 61.54
  Q 123.04 60.55 123.08 59.94
  Q 125.02 30.08 126.61 0.26"
/>
<path stroke="#b39b8c" vector-effect="non-scaling-stroke" d="
  M 43.68 30.50
  C 37.02 22.36 30.88 13.65 24.34 5.37
  A 0.53 0.53 0.0 0 0 23.58 5.29
  L 21.63 6.92
  Q 21.21 7.28 21.57 7.70
  Q 39.10 28.13 56.87 48.34
  Q 57.86 49.46 57.01 48.23
  Q 50.71 39.09 43.68 30.50"
/>
<path stroke="#b39b8c" vector-effect="non-scaling-stroke" d="
  M 195.95 5.85
  Q 195.50 5.53 194.87 5.46
  Q 194.37 5.41 194.11 5.82
  L 172.85 39.14
  A 0.24 0.24 0.0 0 0 173.25 39.42
  L 197.21 7.71
  Q 197.56 7.24 197.19 6.79
  Q 197.00 6.56 196.77 6.41
  A 2.11 0.06 32.6 0 1 195.95 5.85"
/>
<path stroke="#b39b8c" vector-effect="non-scaling-stroke" d="
  M 72.72 7.45
  L 87.37 47.04
  A 0.18 0.18 0.0 0 0 87.71 46.93
  L 76.19 6.23
  A 0.76 0.75 71.4 0 0 75.19 5.73
  L 73.14 6.51
  Q 72.47 6.77 72.72 7.45"
/>
<path stroke="#b39b8c" vector-effect="non-scaling-stroke" d="
  M 240.00 21.04
  L 206.99 47.77
  A 0.15 0.15 0.0 0 0 207.16 48.01
  Q 223.69 37.01 240.00 25.29"
/>
<path stroke="#b39b8c" vector-effect="non-scaling-stroke" d="
  M 0.00 43.62
  L 23.23 58.55"
/>
<path stroke="#f6a99d" vector-effect="non-scaling-stroke" d="
  M 23.23 58.55
  Q 25.99 60.73 28.99 62.17
  Q 30.32 62.82 29.15 61.91
  L 23.76 57.77"
/>
<path stroke="#b39b8c" vector-effect="non-scaling-stroke" d="
  M 23.76 57.77
  L 0.00 40.20"
/>
<path stroke="#aa452a" vector-effect="non-scaling-stroke" d="
  M 23.76 57.77
  Q 23.80 58.30 23.23 58.55"
/>
<path stroke="#b39b8c" vector-effect="non-scaling-stroke" d="
  M 0.00 72.87
  L 44.06 89.17
  A 0.32 0.32 0.0 0 1 44.22 89.66
  Q 31.65 107.90 36.07 128.12
  C 41.13 151.27 62.22 167.41 85.96 165.88
  C 90.95 165.56 105.38 163.00 108.45 158.25
  Q 108.79 157.73 108.35 157.28
  Q 74.51 122.83 65.27 75.26
  A 1.42 1.42 0.0 0 0 63.29 74.23
  Q 52.64 79.03 45.33 88.18
  Q 45.02 88.58 44.52 88.49
  Q 43.39 88.31 42.56 87.45
  Q 42.23 87.12 41.77 87.09
  Q 40.81 87.02 39.90 86.64
  Q 20.48 78.51 1.10 70.28
  Q 1.01 70.24 0.91 70.28
  Q 0.80 70.34 0.70 70.43
  Q 0.45 70.65 0.40 70.33
  Q 0.28 69.56 0.00 69.17"
/>
<path stroke="#aa452a" vector-effect="non-scaling-stroke" d="
  M 102.44 155.65
  Q 72.09 123.29 62.74 79.23"
/>
<path stroke="#992511" vector-effect="non-scaling-stroke" d="
  M 62.74 79.23
  C 63.18 78.34 60.82 79.09 60.50 79.29
  C 33.56 96.24 30.40 132.00 55.02 152.73
  C 68.68 164.23 87.62 165.27 103.53 157.99
  A 0.66 0.65 -18.5 0 0 103.90 157.26
  Q 103.67 156.17 102.44 155.65"
/>
<path stroke="#dd3321" vector-effect="non-scaling-stroke" d="
  M 62.74 79.23
  C 38.83 108.05 54.05 148.37 90.30 155.69
  Q 96.36 156.91 102.44 155.65"
/>
<path stroke="#b39b8c" vector-effect="non-scaling-stroke" d="
  M 240.00 79.01
  Q 214.76 86.37 189.71 94.28
  A 0.17 0.17 0.0 0 0 189.80 94.60
  Q 214.98 88.53 240.00 81.95"
/>
<path stroke="#b39b8c" vector-effect="non-scaling-stroke" d="
  M 240.00 151.78
  L 199.23 141.69
  A 0.23 0.23 0.0 0 0 199.11 142.13
  L 240.00 154.70"
/>
<path stroke="#b39b8c" vector-effect="non-scaling-stroke" d="
  M 189.99 150.48
  C 205.98 126.98 196.88 91.17 169.76 80.35
  A 1.51 1.50 -73.6 0 0 167.73 81.46
  Q 159.07 125.04 130.24 157.28
  C 128.91 158.77 126.22 161.28 124.49 163.62
  A 0.67 0.66 -50.0 0 0 124.56 164.49
  Q 126.24 166.15 129.10 167.40
  C 151.59 177.19 176.08 170.95 189.99 150.48"
/>
<path stroke="#992511" vector-effect="non-scaling-stroke" d="
  M 170.21 84.97
  Q 170.36 85.84 170.22 85.30"
/>
<path stroke="#aa452a" vector-effect="non-scaling-stroke" d="
  M 170.22 85.30
  Q 160.90 128.94 130.97 161.27"
/>
<path stroke="#992511" vector-effect="non-scaling-stroke" d="
  M 130.97 161.27
  L 129.80 162.22"
/>
<path stroke="#62220f" vector-effect="non-scaling-stroke" d="
  M 129.80 162.22
  Q 127.93 160.65 126.25 163.41
  A 0.75 0.74 30.4 0 0 126.52 164.44
  C 141.15 172.97 161.67 172.02 175.84 162.65
  C 176.54 162.19 176.85 161.35 178.02 161.50
  Q 178.52 161.56 178.87 161.20
  Q 181.79 158.15 184.65 155.10
  Q 187.89 151.64 189.68 148.44
  C 195.32 138.41 198.39 125.78 195.60 114.35
  Q 190.53 93.62 170.63 81.96
  Q 169.61 81.36 168.96 82.36
  Q 168.10 83.68 170.21 84.97"
/>
<path stroke="#951007" vector-effect="non-scaling-stroke" d="
  M 129.80 162.22
  L 129.50 162.72
  A 1.03 1.03 0.0 0 0 129.97 164.18
  C 183.32 187.83 220.95 114.85 172.03 84.98
  Q 170.89 84.28 170.21 84.97"
/>
<path stroke="#dd3321" vector-effect="non-scaling-stroke" d="
  M 130.97 161.27
  Q 131.24 162.25 132.50 162.28
  C 173.59 163.44 197.30 117.68 170.22 85.30"
/>
<path stroke="#b39b8c" vector-effect="non-scaling-stroke" d="
  M 240.00 95.52
  L 210.83 101.27
  A 0.10 0.10 0.0 0 0 210.86 101.47
  L 240.00 97.87"
/>
<path stroke="#b39b8c" vector-effect="non-scaling-stroke" d="
  M 0.00 122.47
  L 20.53 120.81
  A 0.11 0.10 -45.9 0 0 20.53 120.60
  L 0.00 120.21"
/>
<path stroke="#b39b8c" vector-effect="non-scaling-stroke" d="
  M 0.00 201.27
  L 44.97 166.84
  Q 45.28 166.61 44.91 166.51
  C 44.24 166.33 9.76 191.15 0.57 197.60
  A 0.34 0.33 -45.8 0 1 0.21 197.61
  Q 0.11 197.54 0.00 197.43"
/>
<path stroke="#b39b8c" vector-effect="non-scaling-stroke" d="
  M 240.00 204.16
  L 190.28 171.12
  Q 186.28 168.46 189.77 171.77
  Q 189.87 171.87 191.95 173.35
  Q 216.08 190.51 240.00 207.78"
/>
<path stroke="#b39b8c" vector-effect="non-scaling-stroke" d="
  M 127.30 228.78
  L 129.54 229.05
  A 0.70 0.69 1.0 0 0 130.31 228.31
  Q 128.80 208.85 127.16 190.31
  Q 127.08 189.40 126.46 188.23
  Q 126.42 188.15 126.42 188.24
  L 126.88 228.30
  Q 126.88 228.73 127.30 228.78"
/>
<path stroke="#b39b8c" vector-effect="non-scaling-stroke" d="
  M 0.00 224.81
  L 33.85 192.13
  A 0.28 0.28 0.0 0 0 33.48 191.72
  L 0.00 220.16"
/>
<path stroke="#b39b8c" vector-effect="non-scaling-stroke" d="
  M 68.59 193.85
  Q 57.85 209.79 47.47 225.61
  C 46.17 227.59 46.20 229.23 49.00 229.39
  Q 49.39 229.41 49.58 229.07
  L 68.81 193.98
  A 0.13 0.13 0.0 0 0 68.59 193.85"
/>
<path stroke="#b39b8c" vector-effect="non-scaling-stroke" d="
  M 192.88 201.13
  Q 186.00 194.01 192.34 201.62
  Q 206.42 218.55 220.74 235.28
  Q 221.21 235.83 221.70 235.30
  L 223.38 233.48
  A 0.55 0.55 0.0 0 0 223.37 232.73
  L 192.88 201.13"
/>
<path stroke="#b39b8c" vector-effect="non-scaling-stroke" d="
  M 117.54 240.00
  L 117.91 199.73
  A 0.34 0.34 0.0 0 0 117.23 199.70
  L 113.61 240.00"
/>
</g>
<path fill="#663719" d="
  M 126.06 0.00
  L 130.30 0.00
  L 123.58 61.52
  Q 123.52 62.08 123.35 61.54
  Q 123.04 60.55 123.08 59.94
  Q 125.02 30.08 126.61 0.26
  Q 126.34 0.13 126.06 0.00
  Z"
/>
<path fill="#ffffff" d="
  M 130.30 0.00
  L 131.30 0.00
  Q 131.55 0.19 132.10 0.32
  Q 132.65 0.44 132.59 0.99
  L 125.67 64.68
  A 2.10 2.09 84.4 0 1 124.22 66.45
  C 119.52 67.92 120.95 54.76 121.04 53.25
  Q 122.67 27.58 123.97 1.88
  C 124.08 -0.27 124.81 0.09 126.61 0.26
  Q 125.02 30.08 123.08 59.94
  Q 123.04 60.55 123.35 61.54
  Q 123.52 62.08 123.58 61.52
  L 130.30 0.00
  Z"
/>
<path fill="#ffffff" d="
  M 23.34 2.66
  A 1.41 1.41 0.0 0 1 25.32 2.87
  L 25.47 3.05
  A 58.81 2.98 50.9 0 1 60.25 50.57
  L 58.48 52.01
  A 58.81 2.98 50.9 0 1 19.08 8.25
  L 18.93 8.06
  A 1.41 1.41 0.0 0 1 19.13 6.08
  L 23.34 2.66
  Z
  M 43.68 30.50
  C 37.02 22.36 30.88 13.65 24.34 5.37
  A 0.53 0.53 0.0 0 0 23.58 5.29
  L 21.63 6.92
  Q 21.21 7.28 21.57 7.70
  Q 39.10 28.13 56.87 48.34
  Q 57.86 49.46 57.01 48.23
  Q 50.71 39.09 43.68 30.50
  Z"
/>
<path fill="#ffffff" d="
  M 199.26 5.38
  A 1.84 1.84 0.0 0 1 199.73 7.94
  L 199.66 8.04
  A 46.29 3.04 -55.4 0 1 170.87 44.42
  L 169.19 43.26
  A 46.29 3.04 -55.4 0 1 192.97 3.43
  L 193.05 3.33
  A 1.84 1.84 0.0 0 1 195.60 2.86
  L 199.26 5.38
  Z
  M 195.95 5.85
  Q 195.50 5.53 194.87 5.46
  Q 194.37 5.41 194.11 5.82
  L 172.85 39.14
  A 0.24 0.24 0.0 0 0 173.25 39.42
  L 197.21 7.71
  Q 197.56 7.24 197.19 6.79
  Q 197.00 6.56 196.77 6.41
  A 2.11 0.06 32.6 0 1 195.95 5.85
  Z"
/>
<path fill="#ffffff" d="
  M 75.70 3.18
  A 1.79 1.79 0.0 0 1 77.95 4.33
  L 77.99 4.44
  A 48.11 3.05 71.9 0 1 90.04 51.12
  L 88.04 51.77
  A 48.11 3.05 71.9 0 1 70.20 6.99
  L 70.16 6.87
  A 1.79 1.79 0.0 0 1 71.30 4.62
  L 75.70 3.18
  Z
  M 72.72 7.45
  L 87.37 47.04
  A 0.18 0.18 0.0 0 0 87.71 46.93
  L 76.19 6.23
  A 0.76 0.75 71.4 0 0 75.19 5.73
  L 73.14 6.51
  Q 72.47 6.77 72.72 7.45
  Z"
/>
<path fill="#663719" d="
  M 24.34 5.37
  C 30.88 13.65 37.02 22.36 43.68 30.50
  Q 50.71 39.09 57.01 48.23
  Q 57.86 49.46 56.87 48.34
  Q 39.10 28.13 21.57 7.70
  Q 21.21 7.28 21.63 6.92
  L 23.58 5.29
  A 0.53 0.53 0.0 0 1 24.34 5.37
  Z"
/>
<path fill="#663719" d="
  M 196.77 6.41
  Q 197.00 6.56 197.19 6.79
  Q 197.56 7.24 197.21 7.71
  L 173.25 39.42
  A 0.24 0.24 0.0 0 1 172.85 39.14
  L 194.11 5.82
  Q 194.37 5.41 194.87 5.46
  Q 195.50 5.53 195.95 5.85
  A 2.11 0.06 32.6 0 0 196.77 6.41
  Z"
/>
<path fill="#663719" d="
  M 87.37 47.04
  L 72.72 7.45
  Q 72.47 6.77 73.14 6.51
  L 75.19 5.73
  A 0.76 0.75 71.4 0 1 76.19 6.23
  L 87.71 46.93
  A 0.18 0.18 0.0 0 1 87.37 47.04
  Z"
/>
<path fill="#ffffff" d="
  M 240.00 17.99
  L 240.00 21.04
  L 206.99 47.77
  A 0.15 0.15 0.0 0 0 207.16 48.01
  Q 223.69 37.01 240.00 25.29
  L 240.00 28.19
  Q 221.07 41.88 206.57 51.33
  C 204.62 52.60 202.01 49.06 203.51 47.76
  Q 214.17 38.50 240.00 17.99
  Z"
/>
<path fill="#663719" d="
  M 240.00 21.04
  L 240.00 25.29
  Q 223.69 37.01 207.16 48.01
  A 0.15 0.15 0.0 0 1 206.99 47.77
  L 240.00 21.04
  Z"
/>
<path fill="#ffffff" d="
  M 0.00 46.32
  L 0.00 43.62
  L 23.23 58.55
  Q 25.99 60.73 28.99 62.17
  Q 30.32 62.82 29.15 61.91
  L 23.76 57.77
  L 0.00 40.20
  L 0.00 37.40
  Q 15.34 48.22 29.83 59.41
  Q 31.04 60.34 33.72 63.12
  A 0.58 0.58 0.0 0 1 33.70 63.94
  L 31.62 65.91
  A 0.80 0.79 39.4 0 1 30.64 66.00
  L 0.00 46.32
  Z"
/>
<path fill="#663719" d="
  M 0.00 40.20
  L 23.76 57.77
  Q 23.80 58.30 23.23 58.55
  L 0.00 43.62
  L 0.00 40.20
  Z"
/>
<path fill="#ed533a" d="
  M 23.76 57.77
  L 29.15 61.91
  Q 30.32 62.82 28.99 62.17
  Q 25.99 60.73 23.23 58.55
  Q 23.80 58.30 23.76 57.77
  Z"
/>
<path fill="#ffffff" d="
  M 0.00 67.19
  L 43.27 85.46
  Q 43.73 85.65 44.08 85.29
  Q 50.99 78.06 60.53 72.81
  C 64.95 70.39 67.35 72.44 68.23 76.94
  C 74.29 107.87 89.00 133.64 110.83 156.43
  Q 111.20 156.81 111.20 157.34
  C 111.22 159.06 110.51 160.60 108.90 161.50
  C 82.77 176.03 50.88 167.00 37.38 140.12
  C 30.04 125.50 31.37 105.81 39.59 92.06
  A 1.76 1.75 -64.6 0 0 38.69 89.51
  L 0.00 75.43
  L 0.00 72.87
  L 44.06 89.17
  A 0.32 0.32 0.0 0 1 44.22 89.66
  Q 31.65 107.90 36.07 128.12
  C 41.13 151.27 62.22 167.41 85.96 165.88
  C 90.95 165.56 105.38 163.00 108.45 158.25
  Q 108.79 157.73 108.35 157.28
  Q 74.51 122.83 65.27 75.26
  A 1.42 1.42 0.0 0 0 63.29 74.23
  Q 52.64 79.03 45.33 88.18
  Q 45.02 88.58 44.52 88.49
  Q 43.39 88.31 42.56 87.45
  Q 42.23 87.12 41.77 87.09
  Q 40.81 87.02 39.90 86.64
  Q 20.48 78.51 1.10 70.28
  Q 1.01 70.24 0.91 70.28
  Q 0.80 70.34 0.70 70.43
  Q 0.45 70.65 0.40 70.33
  Q 0.28 69.56 0.00 69.17
  L 0.00 67.19
  Z"
/>
<path fill="#663719" d="
  M 0.00 69.17
  Q 0.28 69.56 0.40 70.33
  Q 0.45 70.65 0.70 70.43
  Q 0.80 70.34 0.91 70.28
  Q 1.01 70.24 1.10 70.28
  Q 20.48 78.51 39.90 86.64
  Q 40.81 87.02 41.77 87.09
  Q 42.23 87.12 42.56 87.45
  Q 43.39 88.31 44.52 88.49
  Q 45.02 88.58 45.33 88.18
  Q 52.64 79.03 63.29 74.23
  A 1.42 1.42 0.0 0 1 65.27 75.26
  Q 74.51 122.83 108.35 157.28
  Q 108.79 157.73 108.45 158.25
  C 105.38 163.00 90.95 165.56 85.96 165.88
  C 62.22 167.41 41.13 151.27 36.07 128.12
  Q 31.65 107.90 44.22 89.66
  A 0.32 0.32 0.0 0 0 44.06 89.17
  L 0.00 72.87
  L 0.00 69.17
  Z
  M 102.44 155.65
  Q 72.09 123.29 62.74 79.23
  C 63.18 78.34 60.82 79.09 60.50 79.29
  C 33.56 96.24 30.40 132.00 55.02 152.73
  C 68.68 164.23 87.62 165.27 103.53 157.99
  A 0.66 0.65 -18.5 0 0 103.90 157.26
  Q 103.67 156.17 102.44 155.65
  Z"
/>
<path fill="#ffffff" d="
  M 240.00 76.50
  L 240.00 79.01
  Q 214.76 86.37 189.71 94.28
  A 0.17 0.17 0.0 0 0 189.80 94.60
  Q 214.98 88.53 240.00 81.95
  L 240.00 84.56
  L 193.20 96.49
  A 0.35 0.35 0.0 0 0 192.98 97.00
  Q 204.13 116.38 198.46 138.36
  Q 198.32 138.89 198.86 139.02
  L 240.00 149.27
  L 240.00 151.78
  L 199.23 141.69
  A 0.23 0.23 0.0 0 0 199.11 142.13
  L 240.00 154.70
  L 240.00 157.29
  L 197.19 144.18
  A 0.81 0.81 0.0 0 0 196.23 144.59
  C 193.49 150.02 190.10 155.27 185.88 159.54
  C 170.06 175.53 144.67 179.18 124.83 167.91
  C 122.35 166.50 120.58 164.22 122.94 161.69
  C 143.96 139.12 158.61 114.33 164.56 83.77
  C 165.58 78.55 167.78 75.96 173.16 79.13
  Q 182.77 84.77 188.94 91.38
  Q 189.28 91.75 189.77 91.61
  L 240.00 76.50
  Z
  M 189.99 150.48
  C 205.98 126.98 196.88 91.17 169.76 80.35
  A 1.51 1.50 -73.6 0 0 167.73 81.46
  Q 159.07 125.04 130.24 157.28
  C 128.91 158.77 126.22 161.28 124.49 163.62
  A 0.67 0.66 -50.0 0 0 124.56 164.49
  Q 126.24 166.15 129.10 167.40
  C 151.59 177.19 176.08 170.95 189.99 150.48
  Z"
/>
<path fill="#cc1308" d="
  M 62.74 79.23
  C 38.83 108.05 54.05 148.37 90.30 155.69
  Q 96.36 156.91 102.44 155.65
  Q 103.67 156.17 103.90 157.26
  A 0.66 0.65 -18.5 0 1 103.53 157.99
  C 87.62 165.27 68.68 164.23 55.02 152.73
  C 30.40 132.00 33.56 96.24 60.50 79.29
  C 60.82 79.09 63.18 78.34 62.74 79.23
  Z"
/>
<path fill="#663719" d="
  M 240.00 79.01
  L 240.00 81.95
  Q 214.98 88.53 189.80 94.60
  A 0.17 0.17 0.0 0 1 189.71 94.28
  Q 214.76 86.37 240.00 79.01
  Z"
/>
<path fill="#ed533a" d="
  M 62.74 79.23
  Q 72.09 123.29 102.44 155.65
  Q 96.36 156.91 90.30 155.69
  C 54.05 148.37 38.83 108.05 62.74 79.23
  Z"
/>
<path fill="#663719" d="
  M 169.76 80.35
  C 196.88 91.17 205.98 126.98 189.99 150.48
  C 176.08 170.95 151.59 177.19 129.10 167.40
  Q 126.24 166.15 124.56 164.49
  A 0.67 0.66 -50.0 0 1 124.49 163.62
  C 126.22 161.28 128.91 158.77 130.24 157.28
  Q 159.07 125.04 167.73 81.46
  A 1.51 1.50 -73.6 0 1 169.76 80.35
  Z
  M 170.21 84.97
  Q 170.36 85.84 170.22 85.30
  Q 160.90 128.94 130.97 161.27
  L 129.80 162.22
  Q 127.93 160.65 126.25 163.41
  A 0.75 0.74 30.4 0 0 126.52 164.44
  C 141.15 172.97 161.67 172.02 175.84 162.65
  C 176.54 162.19 176.85 161.35 178.02 161.50
  Q 178.52 161.56 178.87 161.20
  Q 181.79 158.15 184.65 155.10
  Q 187.89 151.64 189.68 148.44
  C 195.32 138.41 198.39 125.78 195.60 114.35
  Q 190.53 93.62 170.63 81.96
  Q 169.61 81.36 168.96 82.36
  Q 168.10 83.68 170.21 84.97
  Z"
/>
<path fill="#5e0c05" d="
  M 129.80 162.22
  L 129.50 162.72
  A 1.03 1.03 0.0 0 0 129.97 164.18
  C 183.32 187.83 220.95 114.85 172.03 84.98
  Q 170.89 84.28 170.21 84.97
  Q 168.10 83.68 168.96 82.36
  Q 169.61 81.36 170.63 81.96
  Q 190.53 93.62 195.60 114.35
  C 198.39 125.78 195.32 138.41 189.68 148.44
  Q 187.89 151.64 184.65 155.10
  Q 181.79 158.15 178.87 161.20
  Q 178.52 161.56 178.02 161.50
  C 176.85 161.35 176.54 162.19 175.84 162.65
  C 161.67 172.02 141.15 172.97 126.52 164.44
  A 0.75 0.74 30.4 0 1 126.25 163.41
  Q 127.93 160.65 129.80 162.22
  Z"
/>
<path fill="#cc1308" d="
  M 129.80 162.22
  L 130.97 161.27
  Q 131.24 162.25 132.50 162.28
  C 173.59 163.44 197.30 117.68 170.22 85.30
  Q 170.36 85.84 170.21 84.97
  Q 170.89 84.28 172.03 84.98
  C 220.95 114.85 183.32 187.83 129.97 164.18
  A 1.03 1.03 0.0 0 1 129.50 162.72
  L 129.80 162.22
  Z"
/>
<path fill="#ed533a" d="
  M 170.22 85.30
  C 197.30 117.68 173.59 163.44 132.50 162.28
  Q 131.24 162.25 130.97 161.27
  Q 160.90 128.94 170.22 85.30
  Z"
/>
<path fill="#ffffff" d="
  M 240.00 92.98
  L 240.00 95.52
  L 210.83 101.27
  A 0.10 0.10 0.0 0 0 210.86 101.47
  L 240.00 97.87
  L 240.00 100.67
  Q 225.79 102.16 211.56 103.90
  Q 208.77 104.24 207.33 101.79
  Q 207.03 101.28 207.45 100.86
  Q 209.19 99.09 212.25 98.46
  Q 226.07 95.61 240.00 92.98
  Z"
/>
<path fill="#663719" d="
  M 240.00 95.52
  L 240.00 97.87
  L 210.86 101.47
  A 0.10 0.10 0.0 0 1 210.83 101.27
  L 240.00 95.52
  Z"
/>
<path fill="#ffffff" d="
  M 0.00 124.53
  L 0.00 122.47
  L 20.53 120.81
  A 0.11 0.10 -45.9 0 0 20.53 120.60
  L 0.00 120.21
  L 0.00 118.09
  Q 8.90 117.90 17.79 118.04
  C 19.36 118.06 26.72 118.01 24.14 121.69
  Q 23.85 122.10 23.38 122.26
  C 16.74 124.58 7.05 124.47 0.00 124.53
  Z"
/>
<path fill="#663719" d="
  M 0.00 120.21
  L 20.53 120.60
  A 0.11 0.10 -45.9 0 1 20.53 120.81
  L 0.00 122.47
  L 0.00 120.21
  Z"
/>
<path fill="#663719" d="
  M 240.00 151.78
  L 240.00 154.70
  L 199.11 142.13
  A 0.23 0.23 0.0 0 1 199.23 141.69
  L 240.00 151.78
  Z"
/>
<path fill="#ffffff" d="
  M 0.00 203.43
  L 0.00 201.27
  L 44.97 166.84
  Q 45.28 166.61 44.91 166.51
  C 44.24 166.33 9.76 191.15 0.57 197.60
  A 0.34 0.33 -45.8 0 1 0.21 197.61
  Q 0.11 197.54 0.00 197.43
  L 0.00 195.17
  L 44.68 163.89
  Q 45.08 163.61 45.44 163.94
  L 47.71 166.05
  A 0.59 0.58 44.0 0 1 47.73 166.88
  Q 45.00 169.69 42.02 172.02
  Q 21.71 187.87 1.19 203.44
  Q 0.53 203.94 0.00 203.43
  Z"
/>
<path fill="#ffffff" d="
  M 240.00 201.31
  L 240.00 204.16
  L 190.28 171.12
  Q 186.28 168.46 189.77 171.77
  Q 189.87 171.87 191.95 173.35
  Q 216.08 190.51 240.00 207.78
  L 240.00 209.54
  Q 239.40 210.37 238.81 209.95
  C 220.47 196.79 201.85 183.74 184.06 169.86
  A 0.69 0.68 -52.6 0 1 183.94 168.91
  L 185.83 166.41
  Q 186.24 165.86 186.81 166.24
  L 240.00 201.31
  Z"
/>
<path fill="#663719" d="
  M 0.00 201.27
  L 0.00 197.43
  Q 0.11 197.54 0.21 197.61
  A 0.34 0.33 -45.8 0 0 0.57 197.60
  C 9.76 191.15 44.24 166.33 44.91 166.51
  Q 45.28 166.61 44.97 166.84
  L 0.00 201.27
  Z"
/>
<path fill="#663719" d="
  M 240.00 204.16
  L 240.00 207.78
  Q 216.08 190.51 191.95 173.35
  Q 189.87 171.87 189.77 171.77
  Q 186.28 168.46 190.28 171.12
  L 240.00 204.16
  Z"
/>
<path fill="#ffffff" d="
  M 125.93 231.03
  A 1.34 1.34 0.0 0 1 124.54 229.75
  C 123.89 216.61 124.50 203.52 123.85 190.43
  C 123.74 188.26 123.99 184.89 126.53 184.25
  A 0.88 0.88 0.0 0 1 127.45 184.58
  Q 129.34 187.12 129.70 191.25
  Q 131.28 209.12 132.78 227.00
  Q 132.92 228.62 132.59 230.24
  Q 132.47 230.81 131.89 230.83
  L 125.93 231.03
  Z
  M 127.30 228.78
  L 129.54 229.05
  A 0.70 0.69 1.0 0 0 130.31 228.31
  Q 128.80 208.85 127.16 190.31
  Q 127.08 189.40 126.46 188.23
  Q 126.42 188.15 126.42 188.24
  L 126.88 228.30
  Q 126.88 228.73 127.30 228.78
  Z"
/>
<path fill="#663719" d="
  M 129.54 229.05
  L 127.30 228.78
  Q 126.88 228.73 126.88 228.30
  L 126.42 188.24
  Q 126.42 188.15 126.46 188.23
  Q 127.08 189.40 127.16 190.31
  Q 128.80 208.85 130.31 228.31
  A 0.70 0.69 1.0 0 1 129.54 229.05
  Z"
/>
<path fill="#ffffff" d="
  M 0.00 228.23
  L 0.00 224.81
  L 33.85 192.13
  A 0.28 0.28 0.0 0 0 33.48 191.72
  L 0.00 220.16
  L 0.00 217.91
  Q 1.57 215.95 6.17 211.91
  Q 20.23 199.56 34.06 188.64
  A 2.08 2.08 0.0 0 1 37.02 191.50
  Q 35.38 193.73 32.64 196.39
  Q 16.35 212.17 0.00 228.23
  Z"
/>
<path fill="#ffffff" d="
  M 44.56 229.62
  A 1.77 1.77 0.0 0 1 43.96 227.19
  L 44.04 227.07
  A 44.75 3.22 -58.9 0 1 69.91 190.41
  L 71.29 191.25
  A 44.75 3.22 -58.9 0 1 50.94 231.23
  L 50.86 231.35
  A 1.77 1.77 0.0 0 1 48.43 231.95
  L 44.56 229.62
  Z
  M 68.59 193.85
  Q 57.85 209.79 47.47 225.61
  C 46.17 227.59 46.20 229.23 49.00 229.39
  Q 49.39 229.41 49.58 229.07
  L 68.81 193.98
  A 0.13 0.13 0.0 0 0 68.59 193.85
  Z"
/>
<path fill="#663719" d="
  M 0.00 224.81
  L 0.00 220.16
  L 33.48 191.72
  A 0.28 0.28 0.0 0 1 33.85 192.13
  L 0.00 224.81
  Z"
/>
<path fill="#663719" d="
  M 68.59 193.85
  A 0.13 0.13 0.0 0 1 68.81 193.98
  L 49.58 229.07
  Q 49.39 229.41 49.00 229.39
  C 46.20 229.23 46.17 227.59 47.47 225.61
  Q 57.85 209.79 68.59 193.85
  Z"
/>
<path fill="#ffffff" d="
  M 214.48 220.06
  C 217.01 222.63 222.87 227.54 225.68 231.81
  C 227.23 234.17 223.90 237.07 221.93 238.04
  Q 221.48 238.26 221.02 238.09
  Q 219.33 237.49 218.14 236.11
  Q 201.85 217.27 186.25 197.86
  Q 185.89 197.42 186.31 197.03
  L 188.50 195.02
  Q 188.97 194.60 189.41 195.03
  Q 202.06 207.44 214.48 220.06
  Z
  M 192.88 201.13
  Q 186.00 194.01 192.34 201.62
  Q 206.42 218.55 220.74 235.28
  Q 221.21 235.83 221.70 235.30
  L 223.38 233.48
  A 0.55 0.55 0.0 0 0 223.37 232.73
  L 192.88 201.13
  Z"
/>
<path fill="#ffffff" d="
  M 119.87 240.00
  L 117.54 240.00
  L 117.91 199.73
  A 0.34 0.34 0.0 0 0 117.23 199.70
  L 113.61 240.00
  L 111.18 240.00
  Q 113.72 208.36 114.76 198.81
  Q 114.97 196.96 116.97 195.52
  Q 117.32 195.27 117.71 195.44
  Q 119.93 196.37 119.98 198.31
  Q 120.24 207.77 119.87 240.00
  Z"
/>
<path fill="#663719" d="
  M 192.88 201.13
  L 223.37 232.73
  A 0.55 0.55 0.0 0 1 223.38 233.48
  L 221.70 235.30
  Q 221.21 235.83 220.74 235.28
  Q 206.42 218.55 192.34 201.62
  Q 186.00 194.01 192.88 201.13
  Z"
/>
<path fill="#663719" d="
  M 117.54 240.00
  L 113.61 240.00
  L 117.23 199.70
  A 0.34 0.34 0.0 0 1 117.91 199.73
  L 117.54 240.00
  Z"
/>
</svg>
