<?xml version="1.0" encoding="UTF-8" standalone="no"?>
<!DOCTYPE svg PUBLIC "-//W3C//DTD SVG 1.1//EN" "http://www.w3.org/Graphics/SVG/1.1/DTD/svg11.dtd">
<svg xmlns="http://www.w3.org/2000/svg" version="1.1" viewBox="0.00 0.00 240.00 240.00">
<g stroke-width="2.00" fill="none" stroke-linecap="butt">
<path stroke="#b39b8c" vector-effect="non-scaling-stroke" d="
  M 130.31 0.00
  L 123.56 61.95
  Q 123.49 62.61 123.36 61.96
  Q 123.05 60.36 123.09 59.75
  Q 125.03 29.99 126.61 0.26"
/>
<path stroke="#b39b8c" vector-effect="non-scaling-stroke" d="
  M 46.62 34.14
  C 39.06 24.66 31.86 14.91 24.37 5.37
  Q 24.02 4.92 23.58 5.29
  L 21.64 6.92
  Q 21.21 7.27 21.57 7.69
  Q 39.10 28.13 56.87 48.35
  Q 57.75 49.35 57.00 48.25
  Q 52.09 40.99 46.62 34.14"
/>
<path stroke="#b39b8c" vector-effect="non-scaling-stroke" d="
  M 195.50 5.60
  A 1.04 1.04 0.0 0 0 194.04 5.91
  L 175.82 34.54
  Q 169.81 43.98 176.55 35.06
  L 197.28 7.61
  Q 197.69 7.07 197.13 6.69
  L 195.50 5.60"
/>
<path stroke="#b39b8c" vector-effect="non-scaling-stroke" d="
  M 72.72 7.45
  L 87.82 48.25
  A 0.12 0.12 0.0 0 0 88.05 48.18
  L 76.19 6.22
  Q 75.97 5.43 75.20 5.72
  L 73.15 6.51
  Q 72.47 6.77 72.72 7.45"
/>
<path stroke="#b39b8c" vector-effect="non-scaling-stroke" d="
  M 240.00 21.04
  L 206.99 47.77
  A 0.15 0.15 0.0 0 0 207.16 48.01
  Q 223.69 37.01 240.00 25.29"
/>
<path stroke="#b39b8c" vector-effect="non-scaling-stroke" d="
  M 0.00 43.54
  L 28.71 62.02
  A 0.14 0.14 0.0 0 0 28.88 61.80
  Q 13.74 49.84 1.54 41.47
  Q 0.31 40.62 0.00 39.93"
/>
<path stroke="#b39b8c" vector-effect="non-scaling-stroke" d="
  M 0.00 72.81
  Q 21.44 80.53 42.77 88.44
  Q 43.02 88.53 43.09 88.22
  Q 43.15 87.95 42.89 87.85
  L 0.00 69.76"
/>
<path stroke="#d2d2d2" vector-effect="non-scaling-stroke" d="
  M 43.87 124.60
  C 44.49 141.46 57.43 156.13 72.43 161.87
  C 85.60 166.92 98.99 165.63 111.32 158.92
  A 0.87 0.87 0.0 0 0 111.51 157.54
  L 106.47 152.64"
/>
<path stroke="#b39b8c" vector-effect="non-scaling-stroke" d="
  M 106.47 152.64
  L 114.41 148.37
  Q 114.98 148.06 114.59 147.55
  Q 113.48 146.09 111.14 143.60
  Q 79.96 110.45 71.30 64.84
  Q 71.19 64.27 70.63 64.12
  Q 69.40 63.79 67.89 64.61
  C 45.31 76.71 35.73 100.33 43.87 124.60"
/>
<path stroke="#866e5f" vector-effect="non-scaling-stroke" d="
  M 106.47 152.64
  C 80.13 161.41 54.38 150.14 43.87 124.60"
/>
<path stroke="#90351f" vector-effect="non-scaling-stroke" d="
  M 56.81 138.63
  C 70.98 153.04 90.50 156.52 109.23 147.80
  A 0.79 0.79 0.0 0 0 109.47 146.54
  Q 80.51 116.04 70.25 75.50
  Q 69.38 72.08 68.94 68.80
  A 0.73 0.73 0.0 0 0 67.87 68.26
  C 41.93 82.66 35.85 117.32 56.81 138.63"
/>
<path stroke="#b39b8c" vector-effect="non-scaling-stroke" d="
  M 240.00 78.95
  C 235.05 80.45 191.45 92.96 190.82 94.08
  Q 190.59 94.50 191.05 94.38
  L 240.00 82.03"
/>
<path stroke="#d2d2d2" vector-effect="non-scaling-stroke" d="
  M 127.21 158.47
  L 122.55 163.46
  A 1.01 1.01 0.0 0 0 122.80 165.03
  C 146.79 178.28 174.84 168.44 186.84 144.08
  Q 189.69 138.30 189.66 132.29"
/>
<path stroke="#b39b8c" vector-effect="non-scaling-stroke" d="
  M 189.66 132.29
  Q 200.28 99.92 176.68 77.70
  C 173.14 74.38 168.80 71.78 164.45 70.03
  A 1.27 1.27 0.0 0 0 162.73 70.97
  Q 153.62 118.35 119.94 152.57
  A 1.52 1.52 0.0 0 0 120.33 154.99
  L 127.21 158.47"
/>
<path stroke="#866e5f" vector-effect="non-scaling-stroke" d="
  M 189.66 132.29
  C 177.97 156.53 152.91 167.75 127.21 158.47"
/>
<path stroke="#90351f" vector-effect="non-scaling-stroke" d="
  M 160.17 155.82
  C 196.89 142.26 199.73 93.77 166.29 74.25
  A 0.70 0.69 -68.8 0 0 165.26 74.71
  Q 155.87 119.55 124.45 152.70
  A 0.68 0.68 0.0 0 0 124.65 153.78
  Q 142.78 162.24 160.17 155.82"
/>
<path stroke="#b39b8c" vector-effect="non-scaling-stroke" d="
  M 240.00 95.48
  Q 225.37 98.38 210.75 101.23
  Q 210.55 101.27 210.43 101.39
  Q 210.22 101.62 210.53 101.59
  L 240.00 97.91"
/>
<path stroke="#b39b8c" vector-effect="non-scaling-stroke" d="
  M 0.00 122.47
  L 20.53 120.80
  A 0.10 0.10 0.0 0 0 20.52 120.60
  L 0.00 120.24"
/>
<path stroke="#b39b8c" vector-effect="non-scaling-stroke" d="
  M 240.00 151.94
  Q 220.47 146.67 200.78 142.41
  A 0.17 0.16 59.2 0 0 200.70 142.73
  L 240.00 154.63"
/>
<path stroke="#b39b8c" vector-effect="non-scaling-stroke" d="
  M 0.00 201.74
  Q 0.31 200.78 0.58 200.59
  Q 21.54 185.20 41.92 169.00
  A 0.21 0.21 0.0 0 0 41.67 168.66
  Q 21.00 182.87 0.74 197.60
  Q 0.50 197.77 0.24 197.61
  Q 0.08 197.50 0.00 197.44"
/>
<path stroke="#b39b8c" vector-effect="non-scaling-stroke" d="
  M 240.00 204.16
  C 235.15 200.94 189.44 170.02 188.58 170.26
  Q 188.11 170.40 188.51 170.69
  L 240.00 207.80"
/>
<path stroke="#b39b8c" vector-effect="non-scaling-stroke" d="
  M 127.25 228.77
  L 129.54 229.05
  A 0.70 0.70 0.0 0 0 130.31 228.30
  Q 128.79 208.85 127.16 190.32
  Q 127.10 189.60 126.54 188.70
  Q 126.43 188.53 126.43 188.73
  L 126.87 228.30
  Q 126.88 228.73 127.25 228.77"
/>
<path stroke="#b39b8c" vector-effect="non-scaling-stroke" d="
  M 0.00 224.81
  L 33.85 192.13
  A 0.28 0.28 0.0 0 0 33.48 191.72
  L 0.00 220.16"
/>
<path stroke="#b39b8c" vector-effect="non-scaling-stroke" d="
  M 46.77 228.39
  L 48.69 229.51
  Q 49.15 229.77 49.41 229.31
  C 55.82 217.76 61.78 205.77 68.76 194.58
  Q 68.80 194.51 68.75 194.46
  L 68.52 194.23
  A 0.18 0.17 -50.1 0 0 68.26 194.26
  L 46.47 227.10
  A 0.92 0.91 32.0 0 0 46.77 228.39"
/>
<path stroke="#b39b8c" vector-effect="non-scaling-stroke" d="
  M 192.85 201.09
  Q 186.09 194.09 192.31 201.58
  Q 206.40 218.53 220.74 235.28
  Q 221.21 235.83 221.70 235.30
  L 223.38 233.48
  A 0.55 0.55 0.0 0 0 223.37 232.73
  L 192.85 201.09"
/>
<path stroke="#b39b8c" vector-effect="non-scaling-stroke" d="
  M 117.46 240.00
  Q 117.54 225.79 117.49 211.58
  C 117.48 208.69 118.36 203.44 117.54 199.27
  Q 117.30 198.09 117.20 199.29
  L 113.64 240.00"
/>
</g>
<path fill="#663718" d="
  M 126.06 0.00
  L 130.31 0.00
  L 123.56 61.95
  Q 123.49 62.61 123.36 61.96
  Q 123.05 60.36 123.09 59.75
  Q 125.03 29.99 126.61 0.26
  Q 126.34 0.13 126.06 0.00
  Z"
/>
<path fill="#ffffff" d="
  M 130.31 0.00
  L 131.30 0.00
  Q 131.55 0.19 132.10 0.32
  Q 132.65 0.44 132.59 0.99
  L 125.67 64.68
  A 2.10 2.09 84.4 0 1 124.22 66.45
  C 119.52 67.92 120.95 54.76 121.04 53.25
  Q 122.67 27.58 123.97 1.88
  C 124.08 -0.27 124.81 0.09 126.61 0.26
  Q 125.03 29.99 123.09 59.75
  Q 123.05 60.36 123.36 61.96
  Q 123.49 62.61 123.56 61.95
  L 130.31 0.00
  Z"
/>
<path fill="#ffffff" d="
  M 57.32 51.73
  Q 53.16 48.11 49.90 44.34
  Q 34.33 26.31 19.04 8.69
  A 1.82 1.82 0.0 0 1 19.25 6.09
  L 24.25 1.96
  Q 24.62 1.65 24.92 2.03
  Q 42.81 25.00 60.04 48.23
  Q 61.55 50.28 58.44 51.87
  A 1.01 1.00 -37.7 0 1 57.32 51.73
  Z
  M 46.62 34.14
  C 39.06 24.66 31.86 14.91 24.37 5.37
  Q 24.02 4.92 23.58 5.29
  L 21.64 6.92
  Q 21.21 7.27 21.57 7.69
  Q 39.10 28.13 56.87 48.35
  Q 57.75 49.35 57.00 48.25
  Q 52.09 40.99 46.62 34.14
  Z"
/>
<path fill="#ffffff" d="
  M 199.26 5.38
  A 1.84 1.84 0.0 0 1 199.73 7.94
  L 199.66 8.04
  A 46.29 3.04 -55.4 0 1 170.87 44.42
  L 169.19 43.26
  A 46.29 3.04 -55.4 0 1 192.97 3.43
  L 193.05 3.33
  A 1.84 1.84 0.0 0 1 195.60 2.86
  L 199.26 5.38
  Z
  M 195.50 5.60
  A 1.04 1.04 0.0 0 0 194.04 5.91
  L 175.82 34.54
  Q 169.81 43.98 176.55 35.06
  L 197.28 7.61
  Q 197.69 7.07 197.13 6.69
  L 195.50 5.60
  Z"
/>
<path fill="#ffffff" d="
  M 75.70 3.18
  A 1.79 1.79 0.0 0 1 77.95 4.33
  L 77.99 4.44
  A 48.11 3.04 71.9 0 1 90.05 51.11
  L 88.03 51.77
  A 48.11 3.04 71.9 0 1 70.20 6.99
  L 70.16 6.87
  A 1.79 1.79 0.0 0 1 71.30 4.62
  L 75.70 3.18
  Z
  M 72.72 7.45
  L 87.82 48.25
  A 0.12 0.12 0.0 0 0 88.05 48.18
  L 76.19 6.22
  Q 75.97 5.43 75.20 5.72
  L 73.15 6.51
  Q 72.47 6.77 72.72 7.45
  Z"
/>
<path fill="#663718" d="
  M 24.37 5.37
  C 31.86 14.91 39.06 24.66 46.62 34.14
  Q 52.09 40.99 57.00 48.25
  Q 57.75 49.35 56.87 48.35
  Q 39.10 28.13 21.57 7.69
  Q 21.21 7.27 21.64 6.92
  L 23.58 5.29
  Q 24.02 4.92 24.37 5.37
  Z"
/>
<path fill="#663718" d="
  M 195.50 5.60
  L 197.13 6.69
  Q 197.69 7.07 197.28 7.61
  L 176.55 35.06
  Q 169.81 43.98 175.82 34.54
  L 194.04 5.91
  A 1.04 1.04 0.0 0 1 195.50 5.60
  Z"
/>
<path fill="#663718" d="
  M 87.82 48.25
  L 72.72 7.45
  Q 72.47 6.77 73.15 6.51
  L 75.20 5.72
  Q 75.97 5.43 76.19 6.22
  L 88.05 48.18
  A 0.12 0.12 0.0 0 1 87.82 48.25
  Z"
/>
<path fill="#ffffff" d="
  M 240.00 17.99
  L 240.00 21.04
  L 206.99 47.77
  A 0.15 0.15 0.0 0 0 207.16 48.01
  Q 223.69 37.01 240.00 25.29
  L 240.00 28.19
  Q 221.07 41.88 206.57 51.33
  C 204.62 52.60 202.01 49.06 203.51 47.76
  Q 214.17 38.50 240.00 17.99
  Z"
/>
<path fill="#663718" d="
  M 240.00 21.04
  L 240.00 25.29
  Q 223.69 37.01 207.16 48.01
  A 0.15 0.15 0.0 0 1 206.99 47.77
  L 240.00 21.04
  Z"
/>
<path fill="#ffffff" d="
  M 0.00 46.32
  L 0.00 43.54
  L 28.71 62.02
  A 0.14 0.14 0.0 0 0 28.88 61.80
  Q 13.74 49.84 1.54 41.47
  Q 0.31 40.62 0.00 39.93
  L 0.00 37.40
  Q 15.34 48.22 29.83 59.41
  Q 31.04 60.34 33.72 63.12
  Q 34.12 63.54 33.70 63.94
  L 31.62 65.91
  Q 31.17 66.34 30.64 66.00
  L 0.00 46.32
  Z"
/>
<path fill="#663718" d="
  M 0.00 39.93
  Q 0.31 40.62 1.54 41.47
  Q 13.74 49.84 28.88 61.80
  A 0.14 0.14 0.0 0 1 28.71 62.02
  L 0.00 43.54
  L 0.00 39.93
  Z"
/>
<path fill="#ffffff" d="
  M 0.00 75.38
  L 0.00 72.81
  Q 21.44 80.53 42.77 88.44
  Q 43.02 88.53 43.09 88.22
  Q 43.15 87.95 42.89 87.85
  L 0.00 69.76
  L 0.00 67.20
  L 43.26 85.49
  Q 43.73 85.70 43.96 85.23
  C 48.79 75.30 58.27 65.03 69.17 61.91
  C 72.27 61.03 73.35 62.44 73.89 65.31
  C 79.40 94.27 93.33 122.62 114.69 143.30
  Q 116.28 144.84 117.04 147.18
  Q 117.21 147.70 116.96 148.19
  Q 115.22 151.55 111.66 153.01
  Q 110.68 153.41 111.49 154.09
  Q 113.53 155.80 114.70 158.18
  Q 114.95 158.68 114.56 159.08
  Q 111.71 162.00 108.01 163.49
  C 77.73 175.70 46.95 157.97 41.11 126.23
  C 38.94 114.47 36.69 102.35 41.49 90.93
  Q 41.68 90.47 41.22 90.31
  L 0.00 75.38
  Z
  M 43.87 124.60
  C 44.49 141.46 57.43 156.13 72.43 161.87
  C 85.60 166.92 98.99 165.63 111.32 158.92
  A 0.87 0.87 0.0 0 0 111.51 157.54
  L 106.47 152.64
  L 114.41 148.37
  Q 114.98 148.06 114.59 147.55
  Q 113.48 146.09 111.14 143.60
  Q 79.96 110.45 71.30 64.84
  Q 71.19 64.27 70.63 64.12
  Q 69.40 63.79 67.89 64.61
  C 45.31 76.71 35.73 100.33 43.87 124.60
  Z"
/>
<path fill="#663718" d="
  M 106.47 152.64
  C 80.13 161.41 54.38 150.14 43.87 124.60
  C 35.73 100.33 45.31 76.71 67.89 64.61
  Q 69.40 63.79 70.63 64.12
  Q 71.19 64.27 71.30 64.84
  Q 79.96 110.45 111.14 143.60
  Q 113.48 146.09 114.59 147.55
  Q 114.98 148.06 114.41 148.37
  L 106.47 152.64
  Z
  M 56.81 138.63
  C 70.98 153.04 90.50 156.52 109.23 147.80
  A 0.79 0.79 0.0 0 0 109.47 146.54
  Q 80.51 116.04 70.25 75.50
  Q 69.38 72.08 68.94 68.80
  A 0.73 0.73 0.0 0 0 67.87 68.26
  C 41.93 82.66 35.85 117.32 56.81 138.63
  Z"
/>
<path fill="#ffffff" d="
  M 240.00 76.54
  L 240.00 78.95
  C 235.05 80.45 191.45 92.96 190.82 94.08
  Q 190.59 94.50 191.05 94.38
  L 240.00 82.03
  L 240.00 84.59
  L 192.69 96.32
  Q 192.18 96.45 192.38 96.93
  C 196.55 106.74 195.55 117.24 193.87 127.52
  Q 192.29 137.18 189.60 143.69
  C 182.13 161.73 164.87 173.24 145.42 173.33
  C 137.59 173.37 124.91 171.29 119.29 164.90
  Q 118.81 164.36 119.26 163.80
  L 122.44 159.82
  Q 122.67 159.53 122.37 159.32
  C 118.30 156.47 114.38 154.63 119.44 149.44
  Q 151.26 116.79 160.13 71.76
  Q 160.50 69.87 160.90 68.96
  A 2.30 2.30 0.0 0 1 163.52 67.62
  C 175.17 70.25 184.81 80.88 190.07 91.10
  Q 190.30 91.56 190.80 91.41
  L 240.00 76.54
  Z
  M 127.21 158.47
  L 122.55 163.46
  A 1.01 1.01 0.0 0 0 122.80 165.03
  C 146.79 178.28 174.84 168.44 186.84 144.08
  Q 189.69 138.30 189.66 132.29
  Q 200.28 99.92 176.68 77.70
  C 173.14 74.38 168.80 71.78 164.45 70.03
  A 1.27 1.27 0.0 0 0 162.73 70.97
  Q 153.62 118.35 119.94 152.57
  A 1.52 1.52 0.0 0 0 120.33 154.99
  L 127.21 158.47
  Z"
/>
<path fill="#ba3325" d="
  M 56.81 138.63
  C 35.85 117.32 41.93 82.66 67.87 68.26
  A 0.73 0.73 0.0 0 1 68.94 68.80
  Q 69.38 72.08 70.25 75.50
  Q 80.51 116.04 109.47 146.54
  A 0.79 0.79 0.0 0 1 109.23 147.80
  C 90.50 156.52 70.98 153.04 56.81 138.63
  Z"
/>
<path fill="#663718" d="
  M 0.00 69.76
  L 42.89 87.85
  Q 43.15 87.95 43.09 88.22
  Q 43.02 88.53 42.77 88.44
  Q 21.44 80.53 0.00 72.81
  L 0.00 69.76
  Z"
/>
<path fill="#663718" d="
  M 189.66 132.29
  C 177.97 156.53 152.91 167.75 127.21 158.47
  L 120.33 154.99
  A 1.52 1.52 0.0 0 1 119.94 152.57
  Q 153.62 118.35 162.73 70.97
  A 1.27 1.27 0.0 0 1 164.45 70.03
  C 168.80 71.78 173.14 74.38 176.68 77.70
  Q 200.28 99.92 189.66 132.29
  Z
  M 160.17 155.82
  C 196.89 142.26 199.73 93.77 166.29 74.25
  A 0.70 0.69 -68.8 0 0 165.26 74.71
  Q 155.87 119.55 124.45 152.70
  A 0.68 0.68 0.0 0 0 124.65 153.78
  Q 142.78 162.24 160.17 155.82
  Z"
/>
<path fill="#ba3325" d="
  M 166.29 74.25
  C 199.73 93.77 196.89 142.26 160.17 155.82
  Q 142.78 162.24 124.65 153.78
  A 0.68 0.68 0.0 0 1 124.45 152.70
  Q 155.87 119.55 165.26 74.71
  A 0.70 0.69 -68.8 0 1 166.29 74.25
  Z"
/>
<path fill="#663718" d="
  M 240.00 78.95
  L 240.00 82.03
  L 191.05 94.38
  Q 190.59 94.50 190.82 94.08
  C 191.45 92.96 235.05 80.45 240.00 78.95
  Z"
/>
<path fill="#ffffff" d="
  M 240.00 92.97
  L 240.00 95.48
  Q 225.37 98.38 210.75 101.23
  Q 210.55 101.27 210.43 101.39
  Q 210.22 101.62 210.53 101.59
  L 240.00 97.91
  L 240.00 100.68
  Q 227.40 101.97 214.82 103.46
  C 212.24 103.76 210.15 104.39 207.92 102.71
  A 1.55 1.55 0.0 0 1 208.13 100.09
  Q 211.28 98.44 214.47 97.83
  Q 227.21 95.41 240.00 92.97
  Z"
/>
<path fill="#663718" d="
  M 240.00 95.48
  L 240.00 97.91
  L 210.53 101.59
  Q 210.22 101.62 210.43 101.39
  Q 210.55 101.27 210.75 101.23
  Q 225.37 98.38 240.00 95.48
  Z"
/>
<path fill="#ffffff" d="
  M 0.00 124.57
  L 0.00 122.47
  L 20.53 120.80
  A 0.10 0.10 0.0 0 0 20.52 120.60
  L 0.00 120.24
  L 0.00 118.09
  C 4.02 118.00 21.09 116.67 24.18 119.45
  A 1.58 1.58 0.0 0 1 23.70 122.09
  C 17.01 124.70 7.16 124.36 0.00 124.57
  Z"
/>
<path fill="#663718" d="
  M 0.00 120.24
  L 20.52 120.60
  A 0.10 0.10 0.0 0 1 20.53 120.80
  L 0.00 122.47
  L 0.00 120.24
  Z"
/>
<path fill="#a5a5a5" d="
  M 43.87 124.60
  C 54.38 150.14 80.13 161.41 106.47 152.64
  L 111.51 157.54
  A 0.87 0.87 0.0 0 1 111.32 158.92
  C 98.99 165.63 85.60 166.92 72.43 161.87
  C 57.43 156.13 44.49 141.46 43.87 124.60
  Z"
/>
<path fill="#a5a5a5" d="
  M 189.66 132.29
  Q 189.69 138.30 186.84 144.08
  C 174.84 168.44 146.79 178.28 122.80 165.03
  A 1.01 1.01 0.0 0 1 122.55 163.46
  L 127.21 158.47
  C 152.91 167.75 177.97 156.53 189.66 132.29
  Z"
/>
<path fill="#ffffff" d="
  M 240.00 149.26
  L 240.00 151.94
  Q 220.47 146.67 200.78 142.41
  A 0.17 0.16 59.2 0 0 200.70 142.73
  L 240.00 154.63
  L 240.00 157.29
  L 198.02 144.49
  A 0.39 0.39 0.0 0 1 197.78 143.94
  L 199.69 140.09
  Q 199.95 139.57 200.52 139.71
  L 240.00 149.26
  Z"
/>
<path fill="#663718" d="
  M 240.00 151.94
  L 240.00 154.63
  L 200.70 142.73
  A 0.17 0.16 59.2 0 1 200.78 142.41
  Q 220.47 146.67 240.00 151.94
  Z"
/>
<path fill="#ffffff" d="
  M 0.00 203.44
  L 0.00 201.74
  Q 0.31 200.78 0.58 200.59
  Q 21.54 185.20 41.92 169.00
  A 0.21 0.21 0.0 0 0 41.67 168.66
  Q 21.00 182.87 0.74 197.60
  Q 0.50 197.77 0.24 197.61
  Q 0.08 197.50 0.00 197.44
  L 0.00 195.15
  L 44.73 164.00
  Q 45.18 163.68 45.59 164.06
  L 47.71 166.07
  Q 48.17 166.50 47.72 166.94
  Q 45.28 169.39 41.69 172.19
  Q 16.58 191.77 1.32 203.33
  Q 0.50 203.95 0.00 203.44
  Z"
/>
<path fill="#ffffff" d="
  M 240.00 201.36
  L 240.00 204.16
  C 235.15 200.94 189.44 170.02 188.58 170.26
  Q 188.11 170.40 188.51 170.69
  L 240.00 207.80
  L 240.00 209.54
  Q 239.40 210.37 238.80 209.95
  Q 223.37 199.01 190.00 174.50
  Q 186.30 171.79 184.11 169.83
  Q 183.57 169.35 184.00 168.78
  L 185.67 166.58
  Q 186.12 165.98 186.74 166.39
  L 240.00 201.36
  Z"
/>
<path fill="#663718" d="
  M 0.00 201.74
  L 0.00 197.44
  Q 0.08 197.50 0.24 197.61
  Q 0.50 197.77 0.74 197.60
  Q 21.00 182.87 41.67 168.66
  A 0.21 0.21 0.0 0 1 41.92 169.00
  Q 21.54 185.20 0.58 200.59
  Q 0.31 200.78 0.00 201.74
  Z"
/>
<path fill="#663718" d="
  M 240.00 204.16
  L 240.00 207.80
  L 188.51 170.69
  Q 188.11 170.40 188.58 170.26
  C 189.44 170.02 235.15 200.94 240.00 204.16
  Z"
/>
<path fill="#ffffff" d="
  M 125.01 230.43
  Q 124.09 228.51 124.07 225.56
  Q 123.95 206.28 123.98 187.01
  Q 123.98 185.12 126.48 184.28
  Q 126.98 184.12 127.32 184.51
  Q 129.29 186.79 129.61 190.44
  Q 131.26 208.71 132.79 227.00
  Q 132.92 228.59 132.60 230.18
  A 0.85 0.84 -84.7 0 1 131.80 230.85
  L 126.02 231.05
  A 1.08 1.08 0.0 0 1 125.01 230.43
  Z
  M 127.25 228.77
  L 129.54 229.05
  A 0.70 0.70 0.0 0 0 130.31 228.30
  Q 128.79 208.85 127.16 190.32
  Q 127.10 189.60 126.54 188.70
  Q 126.43 188.53 126.43 188.73
  L 126.87 228.30
  Q 126.88 228.73 127.25 228.77
  Z"
/>
<path fill="#ffffff" d="
  M 0.00 228.23
  L 0.00 224.81
  L 33.85 192.13
  A 0.28 0.28 0.0 0 0 33.48 191.72
  L 0.00 220.16
  L 0.00 217.91
  Q 1.57 215.95 6.17 211.91
  Q 20.23 199.56 34.06 188.64
  A 2.08 2.08 0.0 0 1 37.02 191.50
  Q 35.38 193.73 32.64 196.39
  Q 16.35 212.17 0.00 228.23
  Z"
/>
<path fill="#663718" d="
  M 129.54 229.05
  L 127.25 228.77
  Q 126.88 228.73 126.87 228.30
  L 126.43 188.73
  Q 126.43 188.53 126.54 188.70
  Q 127.10 189.60 127.16 190.32
  Q 128.79 208.85 130.31 228.30
  A 0.70 0.70 0.0 0 1 129.54 229.05
  Z"
/>
<path fill="#ffffff" d="
  M 69.67 190.33
  C 71.75 191.36 72.26 192.77 71.09 194.90
  Q 61.02 213.31 51.15 231.37
  A 1.73 1.72 21.4 0 1 49.21 232.21
  Q 45.73 231.34 43.95 228.19
  Q 43.68 227.69 43.91 227.18
  Q 44.57 225.72 45.92 223.68
  Q 54.07 211.34 62.22 199.00
  Q 65.19 194.51 68.76 190.51
  A 0.77 0.76 -55.9 0 1 69.67 190.33
  Z
  M 46.77 228.39
  L 48.69 229.51
  Q 49.15 229.77 49.41 229.31
  C 55.82 217.76 61.78 205.77 68.76 194.58
  Q 68.80 194.51 68.75 194.46
  L 68.52 194.23
  A 0.18 0.17 -50.1 0 0 68.26 194.26
  L 46.47 227.10
  A 0.92 0.91 32.0 0 0 46.77 228.39
  Z"
/>
<path fill="#663718" d="
  M 0.00 224.81
  L 0.00 220.16
  L 33.48 191.72
  A 0.28 0.28 0.0 0 1 33.85 192.13
  L 0.00 224.81
  Z"
/>
<path fill="#663718" d="
  M 46.77 228.39
  A 0.92 0.91 32.0 0 1 46.47 227.10
  L 68.26 194.26
  A 0.18 0.17 -50.1 0 1 68.52 194.23
  L 68.75 194.46
  Q 68.80 194.51 68.76 194.58
  C 61.78 205.77 55.82 217.76 49.41 229.31
  Q 49.15 229.77 48.69 229.51
  L 46.77 228.39
  Z"
/>
<path fill="#ffffff" d="
  M 214.48 220.06
  C 217.02 222.63 222.87 227.54 225.68 231.81
  C 227.23 234.17 223.90 237.08 221.92 238.04
  Q 221.48 238.26 221.02 238.09
  Q 219.33 237.49 218.14 236.10
  Q 201.86 217.27 186.25 197.88
  Q 185.88 197.42 186.31 197.03
  L 188.50 195.02
  Q 188.97 194.60 189.41 195.03
  Q 202.06 207.44 214.48 220.06
  Z
  M 192.85 201.09
  Q 186.09 194.09 192.31 201.58
  Q 206.40 218.53 220.74 235.28
  Q 221.21 235.83 221.70 235.30
  L 223.38 233.48
  A 0.55 0.55 0.0 0 0 223.37 232.73
  L 192.85 201.09
  Z"
/>
<path fill="#ffffff" d="
  M 119.87 240.00
  L 117.46 240.00
  Q 117.54 225.79 117.49 211.58
  C 117.48 208.69 118.36 203.44 117.54 199.27
  Q 117.30 198.09 117.20 199.29
  L 113.64 240.00
  L 111.18 240.00
  Q 113.72 208.36 114.76 198.81
  Q 114.97 196.96 116.97 195.52
  A 0.76 0.75 -50.8 0 1 117.71 195.44
  Q 119.93 196.37 119.98 198.31
  Q 120.24 207.77 119.87 240.00
  Z"
/>
<path fill="#663718" d="
  M 192.85 201.09
  L 223.37 232.73
  A 0.55 0.55 0.0 0 1 223.38 233.48
  L 221.70 235.30
  Q 221.21 235.83 220.74 235.28
  Q 206.40 218.53 192.31 201.58
  Q 186.09 194.09 192.85 201.09
  Z"
/>
<path fill="#663718" d="
  M 117.46 240.00
  L 113.64 240.00
  L 117.20 199.29
  Q 117.30 198.09 117.54 199.27
  C 118.36 203.44 117.48 208.69 117.49 211.58
  Q 117.54 225.79 117.46 240.00
  Z"
/>
</svg>
