<?xml version="1.0" encoding="UTF-8" standalone="no"?>
<!DOCTYPE svg PUBLIC "-//W3C//DTD SVG 1.1//EN" "http://www.w3.org/Graphics/SVG/1.1/DTD/svg11.dtd">
<svg xmlns="http://www.w3.org/2000/svg" version="1.1" viewBox="0.00 0.00 240.00 240.00">
<g stroke-width="2.00" fill="none" stroke-linecap="butt">
<path stroke="#b39b8c" vector-effect="non-scaling-stroke" d="
  M 240.00 154.17
  Q 224.36 136.79 207.81 120.91
  Q 207.44 120.55 207.64 120.08
  C 217.84 95.90 196.53 75.68 174.34 71.73
  C 154.84 68.25 137.68 77.71 129.45 95.96
  Q 129.22 96.46 128.67 96.47
  L 106.76 96.82
  Q 106.27 96.83 106.07 96.37
  Q 96.59 74.01 74.48 70.58
  C 47.29 66.36 14.50 90.30 27.36 120.31
  Q 27.56 120.77 27.20 121.13
  Q 13.19 135.05 0.00 150.20"
/>
<path stroke="#ac8266" vector-effect="non-scaling-stroke" d="
  M 240.00 159.47
  C 228.06 146.78 216.10 134.54 203.75 122.37
  A 1.68 1.67 35.2 0 1 203.41 120.46
  C 209.46 107.59 206.50 96.15 196.21 86.56
  C 177.57 69.19 146.07 70.68 133.79 95.19
  A 0.42 0.42 0.0 0 0 134.21 95.79
  Q 160.72 93.07 185.98 84.63
  A 1.90 1.89 -11.5 0 1 188.47 86.27
  Q 189.19 95.11 187.66 103.89
  A 0.77 0.77 0.0 0 0 187.96 104.64
  Q 191.03 106.83 192.23 110.38
  A 1.33 1.32 -44.7 0 1 192.22 111.26
  Q 191.67 112.78 190.25 112.76
  Q 189.71 112.76 189.43 112.29
  C 183.24 101.72 167.28 102.41 165.39 115.32
  C 164.29 122.83 170.00 129.44 176.74 132.20
  C 178.55 132.95 179.61 134.06 177.94 135.86
  Q 177.57 136.25 177.06 136.10
  L 174.01 135.19
  A 0.84 0.84 0.0 0 0 173.11 135.48
  Q 167.59 142.73 160.07 147.88
  Q 158.83 148.73 160.29 149.09
  Q 165.55 150.38 170.46 150.68
  C 174.23 150.91 174.87 152.03 177.09 154.67
  Q 205.95 189.05 234.52 223.67
  C 235.85 225.28 237.89 228.23 240.00 230.21"
/>
<path stroke="#b39b8c" vector-effect="non-scaling-stroke" d="
  M 240.00 236.27
  L 172.47 154.89
  Q 172.17 154.53 171.69 154.51
  Q 163.58 154.18 155.84 151.77
  Q 155.10 151.54 154.41 151.90
  Q 117.54 171.29 81.82 150.42
  C 81.43 150.19 67.00 153.25 64.97 153.43
  A 2.24 2.22 16.4 0 0 63.39 154.28
  L 0.00 234.70"
/>
<path stroke="#ac8266" vector-effect="non-scaling-stroke" d="
  M 0.00 228.51
  Q 30.04 190.35 59.82 152.86
  C 60.83 151.59 61.97 149.89 63.55 149.81
  Q 70.14 149.47 76.81 147.51
  A 0.31 0.31 0.0 0 0 76.92 146.97
  Q 70.04 141.33 64.42 134.45
  Q 64.07 134.03 63.58 134.25
  L 61.46 135.18
  Q 60.83 135.46 60.28 135.04
  Q 58.92 134.01 59.75 132.24
  A 1.14 1.13 1.3 0 1 60.38 131.64
  C 69.01 128.19 76.39 117.83 69.94 108.93
  C 64.32 101.18 53.51 102.84 48.50 110.65
  C 47.62 112.03 46.27 112.82 45.05 111.35
  Q 44.70 110.94 44.88 110.43
  Q 46.47 105.82 50.43 103.11
  Q 50.82 102.84 50.74 102.37
  Q 49.75 96.38 50.02 90.28
  A 1.76 1.76 0.0 0 1 52.24 88.66
  Q 76.43 95.14 101.45 96.53
  Q 101.97 96.56 101.76 96.09
  C 90.82 71.59 62.48 67.64 41.96 82.47
  C 29.42 91.54 24.00 106.67 31.68 120.46
  A 1.47 1.46 -37.3 0 1 31.44 122.22
  Q 15.32 138.23 0.00 155.82"
/>
<path stroke="#992510" vector-effect="non-scaling-stroke" d="
  M 183.80 89.01
  Q 183.44 89.51 183.13 89.59"
/>
<path stroke="#aa4529" vector-effect="non-scaling-stroke" d="
  M 183.13 89.59
  C 140.87 101.86 100.17 104.23 57.21 93.72"
/>
<path stroke="#992510" vector-effect="non-scaling-stroke" d="
  M 57.21 93.72
  Q 56.75 93.36 56.55 93.34"
/>
<path stroke="#5f200d" vector-effect="non-scaling-stroke" d="
  M 56.55 93.34
  L 56.48 92.34
  Q 56.44 91.75 55.88 91.59
  L 52.65 90.68
  A 0.49 0.48 8.9 0 0 52.03 91.13
  L 51.67 100.25
  A 1.46 1.45 -0.0 0 0 53.18 101.75
  Q 53.50 101.74 54.06 101.08"
/>
<path stroke="#992510" vector-effect="non-scaling-stroke" d="
  M 54.06 101.08
  L 60.14 100.07"
/>
<path stroke="#aa4529" vector-effect="non-scaling-stroke" d="
  M 60.14 100.07
  Q 76.42 101.95 76.03 119.27"
/>
<path stroke="#992510" vector-effect="non-scaling-stroke" d="
  M 76.03 119.27
  Q 73.92 127.05 67.32 132.28"
/>
<path stroke="#5f200d" vector-effect="non-scaling-stroke" d="
  M 67.32 132.28
  Q 66.59 132.50 66.25 132.93
  A 0.64 0.63 -46.2 0 0 66.26 133.73
  Q 82.81 154.03 108.37 158.51
  C 114.66 159.61 124.23 159.51 130.21 158.49
  C 145.23 155.95 161.80 147.31 171.73 134.93
  A 0.79 0.78 47.9 0 0 171.77 133.99
  Q 171.21 133.17 170.34 133.19"
/>
<path stroke="#992510" vector-effect="non-scaling-stroke" d="
  M 170.34 133.19
  Q 163.65 128.22 161.68 120.32"
/>
<path stroke="#aa4529" vector-effect="non-scaling-stroke" d="
  M 161.68 120.32
  C 160.23 110.19 167.31 100.95 177.87 101.20"
/>
<path stroke="#992510" vector-effect="non-scaling-stroke" d="
  M 177.87 101.20
  L 184.20 102.21"
/>
<path stroke="#5f200d" vector-effect="non-scaling-stroke" d="
  M 184.20 102.21
  Q 184.22 103.06 185.93 103.02
  A 0.44 0.44 0.0 0 0 186.36 102.60
  L 187.16 87.85
  A 1.29 1.29 0.0 0 0 185.33 86.61
  Q 183.11 87.64 183.80 89.01"
/>
<path stroke="#920e05" vector-effect="non-scaling-stroke" d="
  M 184.20 102.21
  L 184.98 89.70
  Q 185.02 89.14 184.48 89.01
  Q 184.19 88.93 183.80 89.01"
/>
<path stroke="#dd3321" vector-effect="non-scaling-stroke" d="
  M 177.87 101.20
  Q 181.12 95.78 183.13 89.59"
/>
<path stroke="#dd3321" vector-effect="non-scaling-stroke" d="
  M 161.68 120.32
  C 136.05 139.71 102.10 140.24 76.90 120.11
  Q 76.76 120.00 76.59 120.01
  Q 76.43 120.02 76.28 119.99
  Q 76.04 119.96 76.00 119.71
  Q 75.97 119.49 76.03 119.27"
/>
<path stroke="#dd3321" vector-effect="non-scaling-stroke" d="
  M 60.14 100.07
  L 57.21 93.72"
/>
<path stroke="#920e05" vector-effect="non-scaling-stroke" d="
  M 170.34 133.19
  C 142.51 166.02 94.53 165.41 67.32 132.28"
/>
<path stroke="#920e05" vector-effect="non-scaling-stroke" d="
  M 56.55 93.34
  Q 54.81 92.86 53.97 93.19
  A 0.79 0.79 0.0 0 0 53.47 93.98
  L 54.06 101.08"
/>
</g>
<path fill="#ffffff" d="
  M 240.00 150.67
  L 240.00 154.17
  Q 224.36 136.79 207.81 120.91
  Q 207.44 120.55 207.64 120.08
  C 217.84 95.90 196.53 75.68 174.34 71.73
  C 154.84 68.25 137.68 77.71 129.45 95.96
  Q 129.22 96.46 128.67 96.47
  L 106.76 96.82
  Q 106.27 96.83 106.07 96.37
  Q 96.59 74.01 74.48 70.58
  C 47.29 66.36 14.50 90.30 27.36 120.31
  Q 27.56 120.77 27.20 121.13
  Q 13.19 135.05 0.00 150.20
  L 0.00 146.65
  L 23.58 120.88
  A 2.03 2.02 56.5 0 0 23.99 118.85
  C 18.38 103.07 23.82 89.80 36.16 79.31
  C 59.13 59.80 94.54 64.49 107.54 93.51
  Q 107.76 94.00 108.29 94.00
  L 126.99 94.00
  A 0.89 0.88 16.0 0 0 127.74 93.59
  Q 128.70 92.09 129.56 90.55
  Q 137.53 76.27 151.80 71.12
  C 178.33 61.53 213.45 80.13 213.01 110.58
  A 1.67 1.64 -29.2 0 1 212.77 111.40
  Q 211.64 113.19 212.03 115.38
  Q 212.14 115.95 211.81 116.42
  Q 210.60 118.21 211.08 120.45
  Q 211.18 120.92 211.53 121.25
  Q 226.27 135.38 240.00 150.67
  Z"
/>
<path fill="#663718" d="
  M 240.00 154.17
  L 240.00 159.47
  C 228.06 146.78 216.10 134.54 203.75 122.37
  A 1.68 1.67 35.2 0 1 203.41 120.46
  C 209.46 107.59 206.50 96.15 196.21 86.56
  C 177.57 69.19 146.07 70.68 133.79 95.19
  A 0.42 0.42 0.0 0 0 134.21 95.79
  Q 160.72 93.07 185.98 84.63
  A 1.90 1.89 -11.5 0 1 188.47 86.27
  Q 189.19 95.11 187.66 103.89
  A 0.77 0.77 0.0 0 0 187.96 104.64
  Q 191.03 106.83 192.23 110.38
  A 1.33 1.32 -44.7 0 1 192.22 111.26
  Q 191.67 112.78 190.25 112.76
  Q 189.71 112.76 189.43 112.29
  C 183.24 101.72 167.28 102.41 165.39 115.32
  C 164.29 122.83 170.00 129.44 176.74 132.20
  C 178.55 132.95 179.61 134.06 177.94 135.86
  Q 177.57 136.25 177.06 136.10
  L 174.01 135.19
  A 0.84 0.84 0.0 0 0 173.11 135.48
  Q 167.59 142.73 160.07 147.88
  Q 158.83 148.73 160.29 149.09
  Q 165.55 150.38 170.46 150.68
  C 174.23 150.91 174.87 152.03 177.09 154.67
  Q 205.95 189.05 234.52 223.67
  C 235.85 225.28 237.89 228.23 240.00 230.21
  L 240.00 236.27
  L 172.47 154.89
  Q 172.17 154.53 171.69 154.51
  Q 163.58 154.18 155.84 151.77
  Q 155.10 151.54 154.41 151.90
  Q 117.54 171.29 81.82 150.42
  C 81.43 150.19 67.00 153.25 64.97 153.43
  A 2.24 2.22 16.4 0 0 63.39 154.28
  L 0.00 234.70
  L 0.00 228.51
  Q 30.04 190.35 59.82 152.86
  C 60.83 151.59 61.97 149.89 63.55 149.81
  Q 70.14 149.47 76.81 147.51
  A 0.31 0.31 0.0 0 0 76.92 146.97
  Q 70.04 141.33 64.42 134.45
  Q 64.07 134.03 63.58 134.25
  L 61.46 135.18
  Q 60.83 135.46 60.28 135.04
  Q 58.92 134.01 59.75 132.24
  A 1.14 1.13 1.3 0 1 60.38 131.64
  C 69.01 128.19 76.39 117.83 69.94 108.93
  C 64.32 101.18 53.51 102.84 48.50 110.65
  C 47.62 112.03 46.27 112.82 45.05 111.35
  Q 44.70 110.94 44.88 110.43
  Q 46.47 105.82 50.43 103.11
  Q 50.82 102.84 50.74 102.37
  Q 49.75 96.38 50.02 90.28
  A 1.76 1.76 0.0 0 1 52.24 88.66
  Q 76.43 95.14 101.45 96.53
  Q 101.97 96.56 101.76 96.09
  C 90.82 71.59 62.48 67.64 41.96 82.47
  C 29.42 91.54 24.00 106.67 31.68 120.46
  A 1.47 1.46 -37.3 0 1 31.44 122.22
  Q 15.32 138.23 0.00 155.82
  L 0.00 150.20
  Q 13.19 135.05 27.20 121.13
  Q 27.56 120.77 27.36 120.31
  C 14.50 90.30 47.29 66.36 74.48 70.58
  Q 96.59 74.01 106.07 96.37
  Q 106.27 96.83 106.76 96.82
  L 128.67 96.47
  Q 129.22 96.46 129.45 95.96
  C 137.68 77.71 154.84 68.25 174.34 71.73
  C 196.53 75.68 217.84 95.90 207.64 120.08
  Q 207.44 120.55 207.81 120.91
  Q 224.36 136.79 240.00 154.17
  Z
  M 183.80 89.01
  Q 183.44 89.51 183.13 89.59
  C 140.87 101.86 100.17 104.23 57.21 93.72
  Q 56.75 93.36 56.55 93.34
  L 56.48 92.34
  Q 56.44 91.75 55.88 91.59
  L 52.65 90.68
  A 0.49 0.48 8.9 0 0 52.03 91.13
  L 51.67 100.25
  A 1.46 1.45 -0.0 0 0 53.18 101.75
  Q 53.50 101.74 54.06 101.08
  L 60.14 100.07
  Q 76.42 101.95 76.03 119.27
  Q 73.92 127.05 67.32 132.28
  Q 66.59 132.50 66.25 132.93
  A 0.64 0.63 -46.2 0 0 66.26 133.73
  Q 82.81 154.03 108.37 158.51
  C 114.66 159.61 124.23 159.51 130.21 158.49
  C 145.23 155.95 161.80 147.31 171.73 134.93
  A 0.79 0.78 47.9 0 0 171.77 133.99
  Q 171.21 133.17 170.34 133.19
  Q 163.65 128.22 161.68 120.32
  C 160.23 110.19 167.31 100.95 177.87 101.20
  L 184.20 102.21
  Q 184.22 103.06 185.93 103.02
  A 0.44 0.44 0.0 0 0 186.36 102.60
  L 187.16 87.85
  A 1.29 1.29 0.0 0 0 185.33 86.61
  Q 183.11 87.64 183.80 89.01
  Z"
/>
<path fill="#f2cdb3" d="
  M 0.00 228.51
  L 0.00 155.82
  Q 15.32 138.23 31.44 122.22
  A 1.47 1.46 -37.3 0 0 31.68 120.46
  C 24.00 106.67 29.42 91.54 41.96 82.47
  C 62.48 67.64 90.82 71.59 101.76 96.09
  Q 101.97 96.56 101.45 96.53
  Q 76.43 95.14 52.24 88.66
  A 1.76 1.76 0.0 0 0 50.02 90.28
  Q 49.75 96.38 50.74 102.37
  Q 50.82 102.84 50.43 103.11
  Q 46.47 105.82 44.88 110.43
  Q 44.70 110.94 45.05 111.35
  C 46.27 112.82 47.62 112.03 48.50 110.65
  C 53.51 102.84 64.32 101.18 69.94 108.93
  C 76.39 117.83 69.01 128.19 60.38 131.64
  A 1.14 1.13 1.3 0 0 59.75 132.24
  Q 58.92 134.01 60.28 135.04
  Q 60.83 135.46 61.46 135.18
  L 63.58 134.25
  Q 64.07 134.03 64.42 134.45
  Q 70.04 141.33 76.92 146.97
  A 0.31 0.31 0.0 0 1 76.81 147.51
  Q 70.14 149.47 63.55 149.81
  C 61.97 149.89 60.83 151.59 59.82 152.86
  Q 30.04 190.35 0.00 228.51
  Z"
/>
<path fill="#f2cdb3" d="
  M 240.00 159.47
  L 240.00 230.21
  C 237.89 228.23 235.85 225.28 234.52 223.67
  Q 205.95 189.05 177.09 154.67
  C 174.87 152.03 174.23 150.91 170.46 150.68
  Q 165.55 150.38 160.29 149.09
  Q 158.83 148.73 160.07 147.88
  Q 167.59 142.73 173.11 135.48
  A 0.84 0.84 0.0 0 1 174.01 135.19
  L 177.06 136.10
  Q 177.57 136.25 177.94 135.86
  C 179.61 134.06 178.55 132.95 176.74 132.20
  C 170.00 129.44 164.29 122.83 165.39 115.32
  C 167.28 102.41 183.24 101.72 189.43 112.29
  Q 189.71 112.76 190.25 112.76
  Q 191.67 112.78 192.22 111.26
  A 1.33 1.32 -44.7 0 0 192.23 110.38
  Q 191.03 106.83 187.96 104.64
  A 0.77 0.77 0.0 0 1 187.66 103.89
  Q 189.19 95.11 188.47 86.27
  A 1.90 1.89 -11.5 0 0 185.98 84.63
  Q 160.72 93.07 134.21 95.79
  A 0.42 0.42 0.0 0 1 133.79 95.19
  C 146.07 70.68 177.57 69.19 196.21 86.56
  C 206.50 96.15 209.46 107.59 203.41 120.46
  A 1.68 1.67 35.2 0 0 203.75 122.37
  C 216.10 134.54 228.06 146.78 240.00 159.47
  Z"
/>
<path fill="#580901" d="
  M 184.20 102.21
  L 184.98 89.70
  Q 185.02 89.14 184.48 89.01
  Q 184.19 88.93 183.80 89.01
  Q 183.11 87.64 185.33 86.61
  A 1.29 1.29 0.0 0 1 187.16 87.85
  L 186.36 102.60
  A 0.44 0.44 0.0 0 1 185.93 103.02
  Q 184.22 103.06 184.20 102.21
  Z"
/>
<path fill="#cc1308" d="
  M 183.80 89.01
  Q 184.19 88.93 184.48 89.01
  Q 185.02 89.14 184.98 89.70
  L 184.20 102.21
  L 177.87 101.20
  Q 181.12 95.78 183.13 89.59
  Q 183.44 89.51 183.80 89.01
  Z"
/>
<path fill="#ed533a" d="
  M 183.13 89.59
  Q 181.12 95.78 177.87 101.20
  C 167.31 100.95 160.23 110.19 161.68 120.32
  C 136.05 139.71 102.10 140.24 76.90 120.11
  Q 76.76 120.00 76.59 120.01
  Q 76.43 120.02 76.28 119.99
  Q 76.04 119.96 76.00 119.71
  Q 75.97 119.49 76.03 119.27
  Q 76.42 101.95 60.14 100.07
  L 57.21 93.72
  C 100.17 104.23 140.87 101.86 183.13 89.59
  Z"
/>
<path fill="#580901" d="
  M 56.55 93.34
  Q 54.81 92.86 53.97 93.19
  A 0.79 0.79 0.0 0 0 53.47 93.98
  L 54.06 101.08
  Q 53.50 101.74 53.18 101.75
  A 1.46 1.45 -0.0 0 1 51.67 100.25
  L 52.03 91.13
  A 0.49 0.48 8.9 0 1 52.65 90.68
  L 55.88 91.59
  Q 56.44 91.75 56.48 92.34
  L 56.55 93.34
  Z"
/>
<path fill="#cc1308" d="
  M 56.55 93.34
  Q 56.75 93.36 57.21 93.72
  L 60.14 100.07
  L 54.06 101.08
  L 53.47 93.98
  A 0.79 0.79 0.0 0 1 53.97 93.19
  Q 54.81 92.86 56.55 93.34
  Z"
/>
<path fill="#cc1308" d="
  M 76.03 119.27
  Q 75.97 119.49 76.00 119.71
  Q 76.04 119.96 76.28 119.99
  Q 76.43 120.02 76.59 120.01
  Q 76.76 120.00 76.90 120.11
  C 102.10 140.24 136.05 139.71 161.68 120.32
  Q 163.65 128.22 170.34 133.19
  C 142.51 166.02 94.53 165.41 67.32 132.28
  Q 73.92 127.05 76.03 119.27
  Z"
/>
<path fill="#580901" d="
  M 67.32 132.28
  C 94.53 165.41 142.51 166.02 170.34 133.19
  Q 171.21 133.17 171.77 133.99
  A 0.79 0.78 47.9 0 1 171.73 134.93
  C 161.80 147.31 145.23 155.95 130.21 158.49
  C 124.23 159.51 114.66 159.61 108.37 158.51
  Q 82.81 154.03 66.26 133.73
  A 0.64 0.63 -46.2 0 1 66.25 132.93
  Q 66.59 132.50 67.32 132.28
  Z"
/>
<path fill="#ffffff" d="
  M 240.00 236.27
  L 240.00 240.00
  Q 239.90 240.00 239.80 240.00
  L 172.25 158.62
  A 3.68 3.68 0.0 0 0 170.12 157.36
  L 155.01 154.45
  Q 154.65 154.38 154.33 154.55
  Q 126.67 169.48 97.03 160.19
  C 91.78 158.55 86.16 155.56 80.83 153.00
  A 1.32 1.31 -41.3 0 0 79.82 152.94
  Q 72.89 155.34 65.56 156.07
  A 1.19 1.17 15.7 0 0 64.74 156.52
  Q 32.69 196.96 0.86 237.51
  C 0.53 237.94 0.31 237.75 0.00 237.43
  L 0.00 234.70
  L 63.39 154.28
  A 2.24 2.22 16.4 0 1 64.97 153.43
  C 67.00 153.25 81.43 150.19 81.82 150.42
  Q 117.54 171.29 154.41 151.90
  Q 155.10 151.54 155.84 151.77
  Q 163.58 154.18 171.69 154.51
  Q 172.17 154.53 172.47 154.89
  L 240.00 236.27
  Z"
/>
</svg>
