<?xml version="1.0" encoding="UTF-8" standalone="no"?>
<!DOCTYPE svg PUBLIC "-//W3C//DTD SVG 1.1//EN" "http://www.w3.org/Graphics/SVG/1.1/DTD/svg11.dtd">
<svg xmlns="http://www.w3.org/2000/svg" version="1.1" viewBox="0.00 0.00 240.00 240.00">
<g stroke-width="2.00" fill="none" stroke-linecap="butt">
<path stroke="#b39b8c" vector-effect="non-scaling-stroke" d="
  M 240.00 187.23
  Q 216.20 166.73 191.36 147.19
  A 0.84 0.84 0.0 0 1 191.09 146.23
  C 195.95 133.24 189.64 120.32 178.00 113.22
  C 159.19 101.74 136.51 106.22 126.18 126.52
  Q 125.92 127.03 125.35 127.04
  L 110.67 127.33
  Q 110.11 127.35 109.87 126.84
  C 103.38 112.98 90.75 105.99 75.53 107.34
  C 56.62 109.01 37.36 125.75 44.99 146.46
  A 0.67 0.67 0.0 0 1 44.77 147.22
  Q 22.38 164.58 0.95 183.12
  A 0.54 0.53 -45.8 0 1 0.27 183.14
  L 0.00 182.93"
/>
<path stroke="#ac8266" vector-effect="non-scaling-stroke" d="
  M 240.00 192.29
  Q 214.29 169.81 187.29 148.92
  A 1.62 1.62 0.0 0 1 186.81 146.95
  C 193.25 133.34 185.12 120.69 172.82 114.70
  C 157.71 107.34 139.68 110.33 130.98 125.90
  Q 130.69 126.42 131.28 126.36
  Q 152.92 124.13 173.54 117.23
  A 1.81 1.81 0.0 0 1 175.92 118.78
  Q 176.61 126.40 175.21 133.92
  Q 175.11 134.43 175.36 134.89
  C 176.34 136.71 179.54 138.86 177.37 141.09
  A 1.52 1.52 0.0 0 1 174.92 140.71
  C 168.91 128.71 150.20 138.44 157.57 150.68
  Q 160.50 155.55 166.48 157.53
  A 1.30 1.29 -3.9 0 1 167.24 158.19
  Q 167.96 159.65 166.88 160.76
  A 1.15 1.15 0.0 0 1 165.74 161.06
  L 163.41 160.43
  A 0.68 0.67 28.0 0 0 162.71 160.64
  Q 157.81 166.47 151.55 170.83
  A 0.45 0.45 0.0 0 0 151.76 171.64
  L 163.37 172.99
  Q 163.80 173.04 164.11 173.33
  L 235.04 240.00"
/>
<path stroke="#b39b8c" vector-effect="non-scaling-stroke" d="
  M 229.38 240.00
  Q 197.51 210.16 165.87 180.28
  C 163.93 178.45 163.63 176.66 160.47 176.45
  Q 155.25 176.10 148.19 174.31
  C 145.68 173.67 143.44 175.65 141.78 176.33
  Q 115.77 186.98 90.70 173.82
  Q 90.26 173.59 89.78 173.73
  Q 82.21 176.10 74.29 176.43
  Q 73.76 176.45 73.38 176.82
  L 6.71 240.00"
/>
<path stroke="#ac8266" vector-effect="non-scaling-stroke" d="
  M 1.16 240.00
  L 71.81 173.34
  Q 72.10 173.06 72.50 173.01
  L 85.27 171.43
  A 0.54 0.54 0.0 0 0 85.52 170.45
  Q 79.69 166.25 75.05 160.75
  A 0.76 0.75 56.4 0 0 74.12 160.56
  Q 73.14 161.07 72.04 161.00
  Q 71.54 160.96 71.22 160.57
  C 69.95 159.02 70.90 157.80 72.55 157.21
  C 79.03 154.86 84.94 146.98 81.02 140.31
  C 76.58 132.73 67.13 134.18 62.70 141.41
  Q 62.39 141.93 61.89 141.58
  L 60.09 140.30
  A 0.80 0.79 -56.4 0 1 59.88 139.23
  L 62.10 135.74
  Q 62.36 135.33 62.32 134.85
  L 61.29 122.44
  A 1.85 1.84 -84.8 0 1 63.61 120.50
  Q 84.16 126.06 105.43 127.11
  A 0.25 0.25 0.0 0 0 105.66 126.74
  C 98.19 113.24 84.39 108.07 69.86 112.07
  C 54.47 116.30 41.69 130.39 49.22 147.21
  A 1.56 1.55 60.0 0 1 48.72 149.11
  C 34.33 159.59 21.22 170.75 0.00 188.64"
/>
<path stroke="#992510" vector-effect="non-scaling-stroke" d="
  M 172.42 121.80
  Q 171.11 121.61 171.10 122.10"
/>
<path stroke="#aa4529" vector-effect="non-scaling-stroke" d="
  M 171.10 122.10
  Q 167.47 122.96 164.21 123.87
  Q 116.61 137.14 67.98 125.47"
/>
<path stroke="#992510" vector-effect="non-scaling-stroke" d="
  M 67.98 125.47
  Q 63.69 122.73 66.02 132.21
  Q 66.12 132.65 66.56 132.54
  L 70.58 131.52"
/>
<path stroke="#aa4529" vector-effect="non-scaling-stroke" d="
  M 70.58 131.52
  Q 86.86 132.12 85.63 148.19"
/>
<path stroke="#992510" vector-effect="non-scaling-stroke" d="
  M 85.63 148.19
  Q 83.50 154.75 78.09 158.65"
/>
<path stroke="#61210d" vector-effect="non-scaling-stroke" d="
  M 78.09 158.65
  Q 77.17 158.63 76.86 159.51
  Q 76.71 159.94 77.02 160.29
  C 99.91 185.62 138.18 185.61 160.98 159.92
  Q 161.32 159.55 160.96 159.20
  Q 160.41 158.65 159.68 158.45"
/>
<path stroke="#992510" vector-effect="non-scaling-stroke" d="
  M 159.68 158.45
  Q 154.51 154.43 152.50 147.90"
/>
<path stroke="#aa4529" vector-effect="non-scaling-stroke" d="
  M 152.50 147.90
  Q 151.55 132.50 166.78 131.57"
/>
<path stroke="#992510" vector-effect="non-scaling-stroke" d="
  M 166.78 131.57
  L 171.71 132.52"
/>
<path stroke="#61210d" vector-effect="non-scaling-stroke" d="
  M 171.71 132.52
  Q 172.62 133.72 173.55 133.34
  Q 174.09 133.13 174.09 132.54
  L 173.98 119.76
  A 0.86 0.86 0.0 0 0 172.76 118.99
  Q 171.89 119.41 171.74 120.27
  Q 171.66 120.73 171.93 121.10
  L 172.42 121.80"
/>
<path stroke="#940f05" vector-effect="non-scaling-stroke" d="
  M 171.71 132.52
  L 172.42 121.80"
/>
<path stroke="#dd3321" vector-effect="non-scaling-stroke" d="
  M 166.78 131.57
  L 171.10 122.10"
/>
<path stroke="#dd3321" vector-effect="non-scaling-stroke" d="
  M 152.50 147.90
  C 132.24 162.66 105.84 162.89 85.63 148.19"
/>
<path stroke="#dd3321" vector-effect="non-scaling-stroke" d="
  M 70.58 131.52
  L 67.98 125.47"
/>
<path stroke="#940f05" vector-effect="non-scaling-stroke" d="
  M 159.68 158.45
  C 137.89 183.69 100.08 183.45 78.09 158.65"
/>
</g>
<path fill="#ffffff" d="
  M 240.00 184.82
  L 240.00 187.23
  Q 216.20 166.73 191.36 147.19
  A 0.84 0.84 0.0 0 1 191.09 146.23
  C 195.95 133.24 189.64 120.32 178.00 113.22
  C 159.19 101.74 136.51 106.22 126.18 126.52
  Q 125.92 127.03 125.35 127.04
  L 110.67 127.33
  Q 110.11 127.35 109.87 126.84
  C 103.38 112.98 90.75 105.99 75.53 107.34
  C 56.62 109.01 37.36 125.75 44.99 146.46
  A 0.67 0.67 0.0 0 1 44.77 147.22
  Q 22.38 164.58 0.95 183.12
  A 0.54 0.53 -45.8 0 1 0.27 183.14
  L 0.00 182.93
  L 0.00 180.54
  L 41.73 146.33
  Q 42.11 146.02 41.99 145.54
  Q 37.46 127.77 50.44 115.94
  C 61.25 106.09 78.21 101.61 91.99 106.75
  C 99.71 109.63 108.34 116.42 111.23 124.58
  Q 111.39 125.01 111.84 125.01
  L 123.23 124.98
  Q 123.75 124.98 124.10 124.60
  C 125.75 122.81 126.73 120.43 127.95 118.84
  C 140.60 102.26 163.17 100.46 180.01 111.72
  Q 198.68 124.19 194.27 145.71
  Q 194.17 146.20 194.56 146.50
  Q 212.33 160.47 235.69 180.31
  Q 238.55 182.74 240.00 184.82
  Z"
/>
<path fill="#663718" d="
  M 240.00 187.23
  L 240.00 192.29
  Q 214.29 169.81 187.29 148.92
  A 1.62 1.62 0.0 0 1 186.81 146.95
  C 193.25 133.34 185.12 120.69 172.82 114.70
  C 157.71 107.34 139.68 110.33 130.98 125.90
  Q 130.69 126.42 131.28 126.36
  Q 152.92 124.13 173.54 117.23
  A 1.81 1.81 0.0 0 1 175.92 118.78
  Q 176.61 126.40 175.21 133.92
  Q 175.11 134.43 175.36 134.89
  C 176.34 136.71 179.54 138.86 177.37 141.09
  A 1.52 1.52 0.0 0 1 174.92 140.71
  C 168.91 128.71 150.20 138.44 157.57 150.68
  Q 160.50 155.55 166.48 157.53
  A 1.30 1.29 -3.9 0 1 167.24 158.19
  Q 167.96 159.65 166.88 160.76
  A 1.15 1.15 0.0 0 1 165.74 161.06
  L 163.41 160.43
  A 0.68 0.67 28.0 0 0 162.71 160.64
  Q 157.81 166.47 151.55 170.83
  A 0.45 0.45 0.0 0 0 151.76 171.64
  L 163.37 172.99
  Q 163.80 173.04 164.11 173.33
  L 235.04 240.00
  L 229.38 240.00
  Q 197.51 210.16 165.87 180.28
  C 163.93 178.45 163.63 176.66 160.47 176.45
  Q 155.25 176.10 148.19 174.31
  C 145.68 173.67 143.44 175.65 141.78 176.33
  Q 115.77 186.98 90.70 173.82
  Q 90.26 173.59 89.78 173.73
  Q 82.21 176.10 74.29 176.43
  Q 73.76 176.45 73.38 176.82
  L 6.71 240.00
  L 1.16 240.00
  L 71.81 173.34
  Q 72.10 173.06 72.50 173.01
  L 85.27 171.43
  A 0.54 0.54 0.0 0 0 85.52 170.45
  Q 79.69 166.25 75.05 160.75
  A 0.76 0.75 56.4 0 0 74.12 160.56
  Q 73.14 161.07 72.04 161.00
  Q 71.54 160.96 71.22 160.57
  C 69.95 159.02 70.90 157.80 72.55 157.21
  C 79.03 154.86 84.94 146.98 81.02 140.31
  C 76.58 132.73 67.13 134.18 62.70 141.41
  Q 62.39 141.93 61.89 141.58
  L 60.09 140.30
  A 0.80 0.79 -56.4 0 1 59.88 139.23
  L 62.10 135.74
  Q 62.36 135.33 62.32 134.85
  L 61.29 122.44
  A 1.85 1.84 -84.8 0 1 63.61 120.50
  Q 84.16 126.06 105.43 127.11
  A 0.25 0.25 0.0 0 0 105.66 126.74
  C 98.19 113.24 84.39 108.07 69.86 112.07
  C 54.47 116.30 41.69 130.39 49.22 147.21
  A 1.56 1.55 60.0 0 1 48.72 149.11
  C 34.33 159.59 21.22 170.75 0.00 188.64
  L 0.00 182.93
  L 0.27 183.14
  A 0.54 0.53 -45.8 0 0 0.95 183.12
  Q 22.38 164.58 44.77 147.22
  A 0.67 0.67 0.0 0 0 44.99 146.46
  C 37.36 125.75 56.62 109.01 75.53 107.34
  C 90.75 105.99 103.38 112.98 109.87 126.84
  Q 110.11 127.35 110.67 127.33
  L 125.35 127.04
  Q 125.92 127.03 126.18 126.52
  C 136.51 106.22 159.19 101.74 178.00 113.22
  C 189.64 120.32 195.95 133.24 191.09 146.23
  A 0.84 0.84 0.0 0 0 191.36 147.19
  Q 216.20 166.73 240.00 187.23
  Z
  M 172.42 121.80
  Q 171.11 121.61 171.10 122.10
  Q 167.47 122.96 164.21 123.87
  Q 116.61 137.14 67.98 125.47
  Q 63.69 122.73 66.02 132.21
  Q 66.12 132.65 66.56 132.54
  L 70.58 131.52
  Q 86.86 132.12 85.63 148.19
  Q 83.50 154.75 78.09 158.65
  Q 77.17 158.63 76.86 159.51
  Q 76.71 159.94 77.02 160.29
  C 99.91 185.62 138.18 185.61 160.98 159.92
  Q 161.32 159.55 160.96 159.20
  Q 160.41 158.65 159.68 158.45
  Q 154.51 154.43 152.50 147.90
  Q 151.55 132.50 166.78 131.57
  L 171.71 132.52
  Q 172.62 133.72 173.55 133.34
  Q 174.09 133.13 174.09 132.54
  L 173.98 119.76
  A 0.86 0.86 0.0 0 0 172.76 118.99
  Q 171.89 119.41 171.74 120.27
  Q 171.66 120.73 171.93 121.10
  L 172.42 121.80
  Z"
/>
<path fill="#f2cdb3" d="
  M 1.16 240.00
  L 0.00 240.00
  L 0.00 188.64
  C 21.22 170.75 34.33 159.59 48.72 149.11
  A 1.56 1.55 60.0 0 0 49.22 147.21
  C 41.69 130.39 54.47 116.30 69.86 112.07
  C 84.39 108.07 98.19 113.24 105.66 126.74
  A 0.25 0.25 0.0 0 1 105.43 127.11
  Q 84.16 126.06 63.61 120.50
  A 1.85 1.84 -84.8 0 0 61.29 122.44
  L 62.32 134.85
  Q 62.36 135.33 62.10 135.74
  L 59.88 139.23
  A 0.80 0.79 -56.4 0 0 60.09 140.30
  L 61.89 141.58
  Q 62.39 141.93 62.70 141.41
  C 67.13 134.18 76.58 132.73 81.02 140.31
  C 84.94 146.98 79.03 154.86 72.55 157.21
  C 70.90 157.80 69.95 159.02 71.22 160.57
  Q 71.54 160.96 72.04 161.00
  Q 73.14 161.07 74.12 160.56
  A 0.76 0.75 56.4 0 1 75.05 160.75
  Q 79.69 166.25 85.52 170.45
  A 0.54 0.54 0.0 0 1 85.27 171.43
  L 72.50 173.01
  Q 72.10 173.06 71.81 173.34
  L 1.16 240.00
  Z"
/>
<path fill="#f2cdb3" d="
  M 240.00 192.29
  L 240.00 240.00
  L 235.04 240.00
  L 164.11 173.33
  Q 163.80 173.04 163.37 172.99
  L 151.76 171.64
  A 0.45 0.45 0.0 0 1 151.55 170.83
  Q 157.81 166.47 162.71 160.64
  A 0.68 0.67 28.0 0 1 163.41 160.43
  L 165.74 161.06
  A 1.15 1.15 0.0 0 0 166.88 160.76
  Q 167.96 159.65 167.24 158.19
  A 1.30 1.29 -3.9 0 0 166.48 157.53
  Q 160.50 155.55 157.57 150.68
  C 150.20 138.44 168.91 128.71 174.92 140.71
  A 1.52 1.52 0.0 0 0 177.37 141.09
  C 179.54 138.86 176.34 136.71 175.36 134.89
  Q 175.11 134.43 175.21 133.92
  Q 176.61 126.40 175.92 118.78
  A 1.81 1.81 0.0 0 0 173.54 117.23
  Q 152.92 124.13 131.28 126.36
  Q 130.69 126.42 130.98 125.90
  C 139.68 110.33 157.71 107.34 172.82 114.70
  C 185.12 120.69 193.25 133.34 186.81 146.95
  A 1.62 1.62 0.0 0 0 187.29 148.92
  Q 214.29 169.81 240.00 192.29
  Z"
/>
<path fill="#5b0b02" d="
  M 171.71 132.52
  L 172.42 121.80
  L 171.93 121.10
  Q 171.66 120.73 171.74 120.27
  Q 171.89 119.41 172.76 118.99
  A 0.86 0.86 0.0 0 1 173.98 119.76
  L 174.09 132.54
  Q 174.09 133.13 173.55 133.34
  Q 172.62 133.72 171.71 132.52
  Z"
/>
<path fill="#cc1308" d="
  M 172.42 121.80
  L 171.71 132.52
  L 166.78 131.57
  L 171.10 122.10
  Q 171.11 121.61 172.42 121.80
  Z"
/>
<path fill="#ed533a" d="
  M 171.10 122.10
  L 166.78 131.57
  Q 151.55 132.50 152.50 147.90
  C 132.24 162.66 105.84 162.89 85.63 148.19
  Q 86.86 132.12 70.58 131.52
  L 67.98 125.47
  Q 116.61 137.14 164.21 123.87
  Q 167.47 122.96 171.10 122.10
  Z"
/>
<path fill="#cc1308" d="
  M 67.98 125.47
  L 70.58 131.52
  L 66.56 132.54
  Q 66.12 132.65 66.02 132.21
  Q 63.69 122.73 67.98 125.47
  Z"
/>
<path fill="#cc1308" d="
  M 85.63 148.19
  C 105.84 162.89 132.24 162.66 152.50 147.90
  Q 154.51 154.43 159.68 158.45
  C 137.89 183.69 100.08 183.45 78.09 158.65
  Q 83.50 154.75 85.63 148.19
  Z"
/>
<path fill="#5b0b02" d="
  M 159.68 158.45
  Q 160.41 158.65 160.96 159.20
  Q 161.32 159.55 160.98 159.92
  C 138.18 185.61 99.91 185.62 77.02 160.29
  Q 76.71 159.94 76.86 159.51
  Q 77.17 158.63 78.09 158.65
  C 100.08 183.45 137.89 183.69 159.68 158.45
  Z"
/>
<path fill="#ffffff" d="
  M 229.38 240.00
  L 225.94 240.00
  Q 185.70 203.07 170.72 188.28
  Q 164.65 182.28 161.66 179.35
  A 1.36 1.33 -21.0 0 0 160.76 178.96
  Q 154.15 178.66 147.71 177.16
  Q 146.56 176.89 145.57 177.35
  Q 117.76 190.39 90.57 176.43
  Q 90.14 176.21 89.67 176.36
  Q 82.49 178.71 74.93 179.06
  A 1.40 1.37 20.4 0 0 74.03 179.46
  Q 58.21 195.40 41.73 210.61
  C 31.08 220.44 20.82 230.33 10.18 240.00
  L 6.71 240.00
  L 73.38 176.82
  Q 73.76 176.45 74.29 176.43
  Q 82.21 176.10 89.78 173.73
  Q 90.26 173.59 90.70 173.82
  Q 115.77 186.98 141.78 176.33
  C 143.44 175.65 145.68 173.67 148.19 174.31
  Q 155.25 176.10 160.47 176.45
  C 163.63 176.66 163.93 178.45 165.87 180.28
  Q 197.51 210.16 229.38 240.00
  Z"
/>
</svg>
