<?xml version="1.0" encoding="UTF-8" standalone="no"?>
<!DOCTYPE svg PUBLIC "-//W3C//DTD SVG 1.1//EN" "http://www.w3.org/Graphics/SVG/1.1/DTD/svg11.dtd">
<svg xmlns="http://www.w3.org/2000/svg" version="1.1" viewBox="0.00 0.00 240.00 240.00">
<g stroke-width="2.00" fill="none" stroke-linecap="butt">
<path stroke="#b39b8c" vector-effect="non-scaling-stroke" d="
  M 0.00 181.65
  L 18.37 149.44
  Q 18.63 149.00 19.13 148.88
  C 40.60 144.01 57.26 126.46 49.77 103.02
  C 42.91 81.56 20.37 72.37 0.00 81.87"
/>
<path stroke="#b39b8c" vector-effect="non-scaling-stroke" d="
  M 240.00 85.51
  C 193.62 59.72 159.57 132.52 213.28 148.93
  Q 216.10 149.79 218.96 150.59
  Q 219.46 150.73 219.73 151.18
  L 240.00 185.74"
/>
<path stroke="#ac8266" vector-effect="non-scaling-stroke" d="
  M 0.00 173.32
  L 15.57 146.82
  A 3.22 3.20 -80.0 0 1 17.74 145.29
  C 33.43 142.28 50.08 129.14 47.88 111.34
  C 45.48 91.87 28.33 78.10 8.57 82.59
  Q 6.60 83.04 0.00 85.73"
/>
<path stroke="#ac8266" vector-effect="non-scaling-stroke" d="
  M 240.00 89.90
  C 222.42 77.91 199.31 84.40 191.81 104.59
  C 183.67 126.49 199.37 142.86 219.69 146.78
  C 220.78 146.99 221.90 147.73 222.42 148.57
  Q 229.06 159.15 240.00 178.05"
/>
<path stroke="#ac8266" vector-effect="non-scaling-stroke" d="
  M 0.00 115.41
  C 4.08 105.69 18.59 105.60 20.19 116.79
  C 21.03 122.73 16.99 128.17 11.98 131.03
  A 0.95 0.94 -16.4 0 0 11.50 131.90
  Q 11.57 133.43 12.91 134.08
  A 0.86 0.85 43.9 0 0 13.70 134.07
  C 35.05 123.20 19.13 93.45 0.00 108.46"
/>
<path stroke="#ac8266" vector-effect="non-scaling-stroke" d="
  M 240.00 111.31
  C 222.17 95.07 203.83 123.84 224.88 135.53
  C 226.45 136.40 228.13 136.13 228.13 134.02
  A 1.45 1.45 0.0 0 0 227.36 132.74
  C 221.96 129.90 218.10 123.96 219.55 117.86
  C 220.74 112.84 225.42 109.81 230.56 110.54
  Q 237.15 111.48 240.00 118.65"
/>
<path stroke="#b39b8c" vector-effect="non-scaling-stroke" d="
  M 67.42 150.80
  L 65.68 152.01
  Q 65.26 152.30 65.43 152.78
  C 72.38 172.91 89.47 187.23 110.67 189.35
  C 138.82 192.17 164.89 171.46 168.30 143.42
  Q 170.04 129.07 164.13 114.87
  A 1.97 1.96 59.5 0 0 161.10 114.08
  C 155.70 118.33 142.72 129.13 135.75 129.25
  Q 98.58 129.89 63.97 115.38
  A 1.68 1.68 0.0 0 0 61.66 116.68
  Q 58.94 134.73 67.49 150.52
  A 0.22 0.22 0.0 0 1 67.42 150.80"
/>
<path stroke="#992510" vector-effect="non-scaling-stroke" d="
  M 161.25 118.71
  Q 160.50 118.83 160.32 119.45"
/>
<path stroke="#aa4529" vector-effect="non-scaling-stroke" d="
  M 160.32 119.45
  Q 121.35 148.73 72.65 154.26"
/>
<path stroke="#992510" vector-effect="non-scaling-stroke" d="
  M 72.65 154.26
  Q 73.99 155.37 69.33 152.95"
/>
<path stroke="#61210e" vector-effect="non-scaling-stroke" d="
  M 69.33 152.95
  Q 69.04 159.80 73.44 165.69
  Q 76.23 169.43 82.34 175.06
  C 100.17 191.50 129.77 191.63 148.21 176.43
  Q 166.00 161.75 167.07 138.45
  C 167.41 131.09 165.76 123.73 163.26 116.84
  A 1.58 1.58 0.0 0 0 160.26 116.91
  Q 159.91 118.01 161.25 118.71"
/>
<path stroke="#940f06" vector-effect="non-scaling-stroke" d="
  M 69.33 152.95
  Q 72.55 154.47 70.62 154.17
  A 0.49 0.49 0.0 0 0 70.09 154.86
  Q 78.20 172.86 94.49 180.87
  C 117.26 192.06 144.80 183.60 157.80 162.06
  Q 169.18 143.21 162.23 120.14
  C 162.09 119.68 161.53 119.12 161.25 118.71"
/>
<path stroke="#dd3321" vector-effect="non-scaling-stroke" d="
  M 72.65 154.26
  C 84.87 167.32 104.14 173.59 121.51 169.02
  C 143.17 163.32 161.78 143.31 160.32 119.45"
/>
<path stroke="#992510" vector-effect="non-scaling-stroke" d="
  M 130.62 132.83
  Q 96.97 132.54 65.77 120.07
  A 0.74 0.74 0.0 0 0 64.76 120.71
  Q 63.64 136.06 71.17 149.45
  Q 71.47 149.99 72.08 150.10
  Q 73.92 150.43 76.76 150.04
  Q 105.21 146.10 130.78 133.51
  A 0.36 0.36 0.0 0 0 130.62 132.83"
/>
</g>
<path fill="#ffffff" d="
  M 0.00 185.71
  L 0.00 181.65
  L 18.37 149.44
  Q 18.63 149.00 19.13 148.88
  C 40.60 144.01 57.26 126.46 49.77 103.02
  C 42.91 81.56 20.37 72.37 0.00 81.87
  L 0.00 79.26
  Q 20.86 70.58 37.41 82.24
  C 47.56 89.39 54.47 102.17 54.18 114.69
  C 53.73 134.03 38.16 146.50 20.45 151.18
  A 1.25 1.24 -81.9 0 0 19.70 151.75
  L 0.00 185.71
  Z"
/>
<path fill="#ffffff" d="
  M 240.00 82.56
  L 240.00 85.51
  C 193.62 59.72 159.57 132.52 213.28 148.93
  Q 216.10 149.79 218.96 150.59
  Q 219.46 150.73 219.73 151.18
  L 240.00 185.74
  L 240.00 189.71
  L 218.45 153.87
  Q 218.17 153.42 217.68 153.24
  C 203.10 148.09 189.63 141.82 184.64 125.93
  Q 181.92 117.25 184.36 107.55
  C 190.74 82.19 215.98 70.41 240.00 82.56
  Z"
/>
<path fill="#663718" d="
  M 0.00 181.65
  L 0.00 173.32
  L 15.57 146.82
  A 3.22 3.20 -80.0 0 1 17.74 145.29
  C 33.43 142.28 50.08 129.14 47.88 111.34
  C 45.48 91.87 28.33 78.10 8.57 82.59
  Q 6.60 83.04 0.00 85.73
  L 0.00 81.87
  C 20.37 72.37 42.91 81.56 49.77 103.02
  C 57.26 126.46 40.60 144.01 19.13 148.88
  Q 18.63 149.00 18.37 149.44
  L 0.00 181.65
  Z"
/>
<path fill="#663718" d="
  M 240.00 85.51
  L 240.00 89.90
  C 222.42 77.91 199.31 84.40 191.81 104.59
  C 183.67 126.49 199.37 142.86 219.69 146.78
  C 220.78 146.99 221.90 147.73 222.42 148.57
  Q 229.06 159.15 240.00 178.05
  L 240.00 185.74
  L 219.73 151.18
  Q 219.46 150.73 218.96 150.59
  Q 216.10 149.79 213.28 148.93
  C 159.57 132.52 193.62 59.72 240.00 85.51
  Z"
/>
<path fill="#f2cdb3" d="
  M 0.00 173.32
  L 0.00 115.41
  C 4.08 105.69 18.59 105.60 20.19 116.79
  C 21.03 122.73 16.99 128.17 11.98 131.03
  A 0.95 0.94 -16.4 0 0 11.50 131.90
  Q 11.57 133.43 12.91 134.08
  A 0.86 0.85 43.9 0 0 13.70 134.07
  C 35.05 123.20 19.13 93.45 0.00 108.46
  L 0.00 85.73
  Q 6.60 83.04 8.57 82.59
  C 28.33 78.10 45.48 91.87 47.88 111.34
  C 50.08 129.14 33.43 142.28 17.74 145.29
  A 3.22 3.20 -80.0 0 0 15.57 146.82
  L 0.00 173.32
  Z"
/>
<path fill="#f2cdb3" d="
  M 240.00 89.90
  L 240.00 111.31
  C 222.17 95.07 203.83 123.84 224.88 135.53
  C 226.45 136.40 228.13 136.13 228.13 134.02
  A 1.45 1.45 0.0 0 0 227.36 132.74
  C 221.96 129.90 218.10 123.96 219.55 117.86
  C 220.74 112.84 225.42 109.81 230.56 110.54
  Q 237.15 111.48 240.00 118.65
  L 240.00 178.05
  Q 229.06 159.15 222.42 148.57
  C 221.90 147.73 220.78 146.99 219.69 146.78
  C 199.37 142.86 183.67 126.49 191.81 104.59
  C 199.31 84.40 222.42 77.91 240.00 89.90
  Z"
/>
<path fill="#663718" d="
  M 0.00 115.41
  L 0.00 108.46
  C 19.13 93.45 35.05 123.20 13.70 134.07
  A 0.86 0.85 43.9 0 1 12.91 134.08
  Q 11.57 133.43 11.50 131.90
  A 0.95 0.94 -16.4 0 1 11.98 131.03
  C 16.99 128.17 21.03 122.73 20.19 116.79
  C 18.59 105.60 4.08 105.69 0.00 115.41
  Z"
/>
<path fill="#663718" d="
  M 240.00 111.31
  L 240.00 118.65
  Q 237.15 111.48 230.56 110.54
  C 225.42 109.81 220.74 112.84 219.55 117.86
  C 218.10 123.96 221.96 129.90 227.36 132.74
  A 1.45 1.45 0.0 0 1 228.13 134.02
  C 228.13 136.13 226.45 136.40 224.88 135.53
  C 203.83 123.84 222.17 95.07 240.00 111.31
  Z"
/>
<path fill="#ffffff" d="
  M 63.91 149.33
  Q 61.37 143.71 59.93 137.75
  C 58.53 132.00 59.01 125.58 58.99 119.44
  C 58.97 113.32 61.37 111.65 67.01 113.93
  C 88.77 122.74 109.08 125.86 133.16 127.18
  C 134.76 127.26 137.85 127.14 139.25 126.30
  Q 150.42 119.55 158.58 112.82
  C 163.35 108.89 165.68 112.15 167.35 116.50
  C 181.66 153.76 153.24 194.11 113.02 192.07
  C 89.90 190.90 70.52 175.51 63.00 153.49
  Q 62.61 152.34 63.85 150.31
  Q 64.14 149.84 63.91 149.33
  Z
  M 67.42 150.80
  L 65.68 152.01
  Q 65.26 152.30 65.43 152.78
  C 72.38 172.91 89.47 187.23 110.67 189.35
  C 138.82 192.17 164.89 171.46 168.30 143.42
  Q 170.04 129.07 164.13 114.87
  A 1.97 1.96 59.5 0 0 161.10 114.08
  C 155.70 118.33 142.72 129.13 135.75 129.25
  Q 98.58 129.89 63.97 115.38
  A 1.68 1.68 0.0 0 0 61.66 116.68
  Q 58.94 134.73 67.49 150.52
  A 0.22 0.22 0.0 0 1 67.42 150.80
  Z"
/>
<path fill="#663718" d="
  M 67.42 150.80
  A 0.22 0.22 0.0 0 0 67.49 150.52
  Q 58.94 134.73 61.66 116.68
  A 1.68 1.68 0.0 0 1 63.97 115.38
  Q 98.58 129.89 135.75 129.25
  C 142.72 129.13 155.70 118.33 161.10 114.08
  A 1.97 1.96 59.5 0 1 164.13 114.87
  Q 170.04 129.07 168.30 143.42
  C 164.89 171.46 138.82 192.17 110.67 189.35
  C 89.47 187.23 72.38 172.91 65.43 152.78
  Q 65.26 152.30 65.68 152.01
  L 67.42 150.80
  Z
  M 161.25 118.71
  Q 160.50 118.83 160.32 119.45
  Q 121.35 148.73 72.65 154.26
  Q 73.99 155.37 69.33 152.95
  Q 69.04 159.80 73.44 165.69
  Q 76.23 169.43 82.34 175.06
  C 100.17 191.50 129.77 191.63 148.21 176.43
  Q 166.00 161.75 167.07 138.45
  C 167.41 131.09 165.76 123.73 163.26 116.84
  A 1.58 1.58 0.0 0 0 160.26 116.91
  Q 159.91 118.01 161.25 118.71
  Z
  M 130.62 132.83
  Q 96.97 132.54 65.77 120.07
  A 0.74 0.74 0.0 0 0 64.76 120.71
  Q 63.64 136.06 71.17 149.45
  Q 71.47 149.99 72.08 150.10
  Q 73.92 150.43 76.76 150.04
  Q 105.21 146.10 130.78 133.51
  A 0.36 0.36 0.0 0 0 130.62 132.83
  Z"
/>
<path fill="#5c0b03" d="
  M 69.33 152.95
  Q 72.55 154.47 70.62 154.17
  A 0.49 0.49 0.0 0 0 70.09 154.86
  Q 78.20 172.86 94.49 180.87
  C 117.26 192.06 144.80 183.60 157.80 162.06
  Q 169.18 143.21 162.23 120.14
  C 162.09 119.68 161.53 119.12 161.25 118.71
  Q 159.91 118.01 160.26 116.91
  A 1.58 1.58 0.0 0 1 163.26 116.84
  C 165.76 123.73 167.41 131.09 167.07 138.45
  Q 166.00 161.75 148.21 176.43
  C 129.77 191.63 100.17 191.50 82.34 175.06
  Q 76.23 169.43 73.44 165.69
  Q 69.04 159.80 69.33 152.95
  Z"
/>
<path fill="#cc1308" d="
  M 161.25 118.71
  C 161.53 119.12 162.09 119.68 162.23 120.14
  Q 169.18 143.21 157.80 162.06
  C 144.80 183.60 117.26 192.06 94.49 180.87
  Q 78.20 172.86 70.09 154.86
  A 0.49 0.49 0.0 0 1 70.62 154.17
  Q 72.55 154.47 69.33 152.95
  Q 73.99 155.37 72.65 154.26
  C 84.87 167.32 104.14 173.59 121.51 169.02
  C 143.17 163.32 161.78 143.31 160.32 119.45
  Q 160.50 118.83 161.25 118.71
  Z"
/>
<path fill="#ed533a" d="
  M 160.32 119.45
  C 161.78 143.31 143.17 163.32 121.51 169.02
  C 104.14 173.59 84.87 167.32 72.65 154.26
  Q 121.35 148.73 160.32 119.45
  Z"
/>
<path fill="#cc1308" d="
  M 130.62 132.83
  A 0.36 0.36 0.0 0 1 130.78 133.51
  Q 105.21 146.10 76.76 150.04
  Q 73.92 150.43 72.08 150.10
  Q 71.47 149.99 71.17 149.45
  Q 63.64 136.06 64.76 120.71
  A 0.74 0.74 0.0 0 1 65.77 120.07
  Q 96.97 132.54 130.62 132.83
  Z"
/>
</svg>
