<?xml version="1.0" encoding="UTF-8" standalone="no"?>
<!DOCTYPE svg PUBLIC "-//W3C//DTD SVG 1.1//EN" "http://www.w3.org/Graphics/SVG/1.1/DTD/svg11.dtd">
<svg xmlns="http://www.w3.org/2000/svg" version="1.1" viewBox="0.00 0.00 240.00 240.00">
<g stroke-width="2.00" fill="none" stroke-linecap="butt">
<path stroke="#b39b8c" vector-effect="non-scaling-stroke" d="
  M 0.00 170.26
  C 9.78 162.99 16.97 152.17 15.73 140.26
  Q 13.92 123.04 0.00 112.07"
/>
<path stroke="#ac8266" vector-effect="non-scaling-stroke" d="
  M 0.00 165.39
  C 16.86 152.08 15.03 130.48 0.00 116.99"
/>
<path stroke="#b39b8c" vector-effect="non-scaling-stroke" d="
  M 240.00 115.23
  C 217.51 129.94 214.24 161.01 239.12 175.76
  Q 239.56 176.02 239.75 176.49
  L 240.00 177.09"
/>
<path stroke="#ac8266" vector-effect="non-scaling-stroke" d="
  M 240.00 119.80
  Q 229.44 127.78 226.28 140.78
  C 223.12 153.80 229.35 164.77 240.00 172.06"
/>
<path stroke="#b39b8c" vector-effect="non-scaling-stroke" d="
  M 165.98 240.00
  C 167.53 235.61 169.25 231.03 169.77 226.55
  Q 172.35 204.32 157.57 187.16
  Q 155.76 185.06 153.55 183.91
  A 1.48 1.46 27.3 0 0 151.58 184.53
  Q 144.31 198.40 134.40 210.52
  A 0.74 0.73 -56.0 0 1 133.48 210.71
  Q 105.05 195.61 86.86 168.90
  Q 85.92 167.53 84.74 166.74
  A 0.85 0.84 41.3 0 0 83.75 166.80
  Q 82.61 167.76 81.19 169.68
  C 62.10 195.46 75.58 230.67 107.54 235.53
  A 0.32 0.32 0.0 0 1 107.68 236.11
  L 102.16 240.00"
/>
<path stroke="#952111" vector-effect="non-scaling-stroke" d="
  M 161.78 240.00
  Q 172.45 216.04 158.33 194.18
  Q 156.50 191.34 153.83 189.24
  Q 153.41 188.91 153.09 189.34
  Q 152.80 189.71 152.67 190.28"
/>
<path stroke="#aa4529" vector-effect="non-scaling-stroke" d="
  M 152.67 190.28
  Q 136.43 219.48 108.88 240.00"
/>
<path stroke="#952111" vector-effect="non-scaling-stroke" d="
  M 115.10 230.10
  C 120.78 225.44 126.21 220.05 131.13 214.57
  A 0.59 0.58 35.7 0 0 130.98 213.67
  Q 103.10 198.29 84.60 172.40
  A 0.56 0.56 0.0 0 0 83.68 172.40
  Q 72.41 188.35 77.47 205.16
  C 81.93 219.95 93.31 230.21 108.89 232.28
  Q 111.94 232.69 115.10 230.10"
/>
<path stroke="#d92f22" vector-effect="non-scaling-stroke" d="
  M 143.91 240.00
  Q 163.54 218.28 153.69 190.56
  Q 153.52 190.10 152.67 190.28"
/>
</g>
<path fill="#ffffff" d="
  M 0.00 172.90
  L 0.00 170.26
  C 9.78 162.99 16.97 152.17 15.73 140.26
  Q 13.92 123.04 0.00 112.07
  L 0.00 109.54
  C 10.31 115.83 16.86 127.73 17.98 139.72
  C 19.27 153.60 11.81 165.72 0.00 172.90
  Z"
/>
<path fill="#663718" d="
  M 0.00 112.07
  Q 13.92 123.04 15.73 140.26
  C 16.97 152.17 9.78 162.99 0.00 170.26
  L 0.00 165.39
  C 16.86 152.08 15.03 130.48 0.00 116.99
  L 0.00 112.07
  Z"
/>
<path fill="#ffffff" d="
  M 240.00 113.13
  L 240.00 115.23
  C 217.51 129.94 214.24 161.01 239.12 175.76
  Q 239.56 176.02 239.75 176.49
  L 240.00 177.09
  L 240.00 179.09
  Q 229.16 173.20 223.35 163.66
  C 213.75 147.92 222.11 119.99 240.00 113.13
  Z"
/>
<path fill="#663718" d="
  M 240.00 115.23
  L 240.00 119.80
  Q 229.44 127.78 226.28 140.78
  C 223.12 153.80 229.35 164.77 240.00 172.06
  L 240.00 177.09
  L 239.75 176.49
  Q 239.56 176.02 239.12 175.76
  C 214.24 161.01 217.51 129.94 240.00 115.23
  Z"
/>
<path fill="#f2cdb3" d="
  M 0.00 116.99
  C 15.03 130.48 16.86 152.08 0.00 165.39
  L 0.00 116.99
  Z"
/>
<path fill="#f2cdb3" d="
  M 240.00 119.80
  L 240.00 172.06
  C 229.35 164.77 223.12 153.80 226.28 140.78
  Q 229.44 127.78 240.00 119.80
  Z"
/>
<path fill="#ffffff" d="
  M 168.34 240.00
  L 165.98 240.00
  C 167.53 235.61 169.25 231.03 169.77 226.55
  Q 172.35 204.32 157.57 187.16
  Q 155.76 185.06 153.55 183.91
  A 1.48 1.46 27.3 0 0 151.58 184.53
  Q 144.31 198.40 134.40 210.52
  A 0.74 0.73 -56.0 0 1 133.48 210.71
  Q 105.05 195.61 86.86 168.90
  Q 85.92 167.53 84.74 166.74
  A 0.85 0.84 41.3 0 0 83.75 166.80
  Q 82.61 167.76 81.19 169.68
  C 62.10 195.46 75.58 230.67 107.54 235.53
  A 0.32 0.32 0.0 0 1 107.68 236.11
  L 102.16 240.00
  L 99.44 240.00
  Q 98.92 238.73 100.27 238.30
  A 0.85 0.85 0.0 0 0 100.30 236.69
  C 69.68 225.84 60.05 191.00 80.79 166.07
  Q 82.28 164.28 84.68 163.99
  Q 85.16 163.93 85.56 164.21
  Q 87.62 165.65 88.52 166.98
  Q 105.96 192.63 133.02 207.72
  Q 133.50 207.99 133.84 207.56
  Q 141.20 198.10 149.56 183.07
  C 151.72 179.17 155.76 182.12 158.25 184.75
  C 172.80 200.12 176.65 220.07 168.34 240.00
  Z"
/>
<path fill="#663718" d="
  M 165.98 240.00
  L 161.78 240.00
  Q 172.45 216.04 158.33 194.18
  Q 156.50 191.34 153.83 189.24
  Q 153.41 188.91 153.09 189.34
  Q 152.80 189.71 152.67 190.28
  Q 136.43 219.48 108.88 240.00
  L 102.16 240.00
  L 107.68 236.11
  A 0.32 0.32 0.0 0 0 107.54 235.53
  C 75.58 230.67 62.10 195.46 81.19 169.68
  Q 82.61 167.76 83.75 166.80
  A 0.85 0.84 41.3 0 1 84.74 166.74
  Q 85.92 167.53 86.86 168.90
  Q 105.05 195.61 133.48 210.71
  A 0.74 0.73 -56.0 0 0 134.40 210.52
  Q 144.31 198.40 151.58 184.53
  A 1.48 1.46 27.3 0 1 153.55 183.91
  Q 155.76 185.06 157.57 187.16
  Q 172.35 204.32 169.77 226.55
  C 169.25 231.03 167.53 235.61 165.98 240.00
  Z
  M 115.10 230.10
  C 120.78 225.44 126.21 220.05 131.13 214.57
  A 0.59 0.58 35.7 0 0 130.98 213.67
  Q 103.10 198.29 84.60 172.40
  A 0.56 0.56 0.0 0 0 83.68 172.40
  Q 72.41 188.35 77.47 205.16
  C 81.93 219.95 93.31 230.21 108.89 232.28
  Q 111.94 232.69 115.10 230.10
  Z"
/>
<path fill="#c40a0a" d="
  M 131.13 214.57
  C 126.21 220.05 120.78 225.44 115.10 230.10
  Q 111.94 232.69 108.89 232.28
  C 93.31 230.21 81.93 219.95 77.47 205.16
  Q 72.41 188.35 83.68 172.40
  A 0.56 0.56 0.0 0 1 84.60 172.40
  Q 103.10 198.29 130.98 213.67
  A 0.59 0.58 35.7 0 1 131.13 214.57
  Z"
/>
<path fill="#c40a0a" d="
  M 161.78 240.00
  L 143.91 240.00
  Q 163.54 218.28 153.69 190.56
  Q 153.52 190.10 152.67 190.28
  Q 152.80 189.71 153.09 189.34
  Q 153.41 188.91 153.83 189.24
  Q 156.50 191.34 158.33 194.18
  Q 172.45 216.04 161.78 240.00
  Z"
/>
<path fill="#ed533a" d="
  M 152.67 190.28
  Q 153.52 190.10 153.69 190.56
  Q 163.54 218.28 143.91 240.00
  L 108.88 240.00
  Q 136.43 219.48 152.67 190.28
  Z"
/>
</svg>
