<?xml version="1.0" encoding="UTF-8" standalone="no"?>
<!DOCTYPE svg PUBLIC "-//W3C//DTD SVG 1.1//EN" "http://www.w3.org/Graphics/SVG/1.1/DTD/svg11.dtd">
<svg xmlns="http://www.w3.org/2000/svg" version="1.1" viewBox="0.00 0.00 240.00 240.00">
<g stroke-width="2.00" fill="none" stroke-linecap="butt">
<path stroke="#b39b8c" vector-effect="non-scaling-stroke" d="
  M 65.54 35.48
  C 61.56 56.27 80.20 70.90 98.01 75.72
  Q 110.22 79.02 122.23 78.04
  Q 122.99 77.97 123.48 77.84
  A 2.15 2.15 0.0 0 0 124.84 74.78
  Q 107.49 41.22 120.16 5.45
  A 1.40 1.39 -47.6 0 0 120.12 4.43
  Q 119.50 3.01 117.76 3.00
  C 97.68 2.88 69.88 12.77 65.54 35.48"
/>
<path stroke="#d2d2d2" vector-effect="non-scaling-stroke" d="
  M 102.24 103.85
  Q 102.41 100.34 104.50 97.33
  A 0.78 0.77 -72.9 0 0 103.86 96.11
  C 94.11 96.18 67.01 99.86 69.30 115.06
  C 70.81 125.08 90.17 129.41 98.22 129.59"
/>
<path stroke="#b39b8c" vector-effect="non-scaling-stroke" d="
  M 98.22 129.59
  Q 107.18 136.76 120.78 138.98"
/>
<path stroke="#d2d2d2" vector-effect="non-scaling-stroke" d="
  M 120.78 138.98
  Q 105.14 151.77 88.56 159.21
  A 1.25 1.25 0.0 0 0 88.33 161.35
  Q 105.63 174.33 126.26 171.56
  C 150.91 168.25 172.88 145.48 161.23 119.71"
/>
<path stroke="#b39b8c" vector-effect="non-scaling-stroke" d="
  M 161.23 119.71
  Q 180.23 92.53 173.05 59.23
  Q 169.21 41.43 158.23 29.53
  C 156.82 28.00 154.89 29.49 154.24 31.08
  Q 136.83 73.62 102.24 103.85"
/>
<path stroke="#866e5f" vector-effect="non-scaling-stroke" d="
  M 161.23 119.71
  Q 145.30 139.93 120.78 138.98"
/>
<path stroke="#866e5f" vector-effect="non-scaling-stroke" d="
  M 98.22 129.59
  Q 91.72 124.28 86.78 117.83
  A 1.81 1.81 0.0 0 1 87.13 115.28
  L 102.24 103.85"
/>
<path stroke="#90351f" vector-effect="non-scaling-stroke" d="
  M 75.47 57.28
  C 85.39 69.43 103.70 74.65 118.95 73.79
  A 0.38 0.38 0.0 0 0 119.27 73.25
  Q 104.31 41.67 114.69 8.11
  Q 114.88 7.49 114.23 7.48
  C 96.75 7.35 72.30 18.47 69.52 37.58
  C 68.51 44.60 71.00 51.81 75.47 57.28"
/>
<path stroke="#992510" vector-effect="non-scaling-stroke" d="
  M 156.96 35.69
  Q 156.59 36.23 156.77 37.21"
/>
<path stroke="#aa4529" vector-effect="non-scaling-stroke" d="
  M 156.77 37.21
  Q 156.63 37.22 156.50 37.25
  A 0.38 0.37 -83.2 0 0 156.24 37.46
  Q 135.11 85.09 93.84 115.93"
/>
<path stroke="#992510" vector-effect="non-scaling-stroke" d="
  M 93.84 115.93
  Q 93.16 115.96 92.77 116.27"
/>
<path stroke="#60210d" vector-effect="non-scaling-stroke" d="
  M 92.77 116.27
  Q 92.09 114.46 89.82 115.67
  A 1.19 1.18 58.8 0 0 89.40 117.38
  C 96.98 128.57 109.47 136.28 123.24 136.72
  C 152.23 137.66 169.43 110.79 172.37 85.07
  Q 175.70 56.03 157.90 31.83
  A 1.16 1.16 0.0 0 0 155.81 32.39
  Q 155.64 33.84 156.96 35.69"
/>
<path stroke="#930f05" vector-effect="non-scaling-stroke" d="
  M 92.77 116.27
  Q 91.69 117.48 93.23 119.03
  C 105.08 131.04 118.16 137.96 135.17 133.03
  C 153.82 127.63 165.80 108.87 169.20 90.76
  Q 174.80 60.91 158.23 36.05
  C 157.95 35.62 157.40 35.39 156.96 35.69"
/>
<path stroke="#dd3321" vector-effect="non-scaling-stroke" d="
  M 93.84 115.93
  C 124.59 132.28 152.37 106.25 158.87 77.57
  Q 163.43 57.46 157.33 37.83
  Q 157.25 37.56 157.02 37.39
  L 156.77 37.21"
/>
</g>
<path fill="#ffffff" d="
  M 114.48 140.35
  Q 105.35 137.43 97.27 132.23
  A 2.05 1.98 -26.2 0 0 96.30 131.92
  C 85.09 131.25 62.16 124.56 67.49 109.04
  C 71.48 97.43 95.03 92.15 105.60 94.24
  A 1.37 1.35 -11.3 0 1 106.45 94.80
  L 107.11 95.77
  A 0.56 0.55 48.8 0 0 107.98 95.83
  L 120.74 81.79
  A 0.44 0.44 0.0 0 0 120.42 81.05
  C 104.20 80.80 90.14 77.88 76.94 68.07
  C 57.48 53.61 58.06 26.67 77.83 12.84
  Q 94.64 1.07 117.00 0.82
  C 122.74 0.75 123.32 3.63 121.75 8.43
  Q 110.87 41.48 126.44 72.56
  A 0.93 0.93 0.0 0 0 128.02 72.69
  Q 140.90 55.09 149.38 35.91
  C 151.18 31.84 154.80 21.24 161.03 28.91
  C 182.03 54.75 182.54 92.35 164.26 119.63
  A 0.96 0.95 50.9 0 0 164.17 120.52
  C 171.46 138.50 162.76 156.83 147.10 166.69
  C 129.54 177.74 106.58 176.98 89.18 164.81
  Q 86.23 162.75 85.00 160.52
  A 0.95 0.94 -42.1 0 1 85.05 159.53
  Q 86.03 158.10 87.57 157.34
  Q 101.81 150.28 114.59 141.02
  A 0.38 0.38 0.0 0 0 114.48 140.35
  Z
  M 65.54 35.48
  C 61.56 56.27 80.20 70.90 98.01 75.72
  Q 110.22 79.02 122.23 78.04
  Q 122.99 77.97 123.48 77.84
  A 2.15 2.15 0.0 0 0 124.84 74.78
  Q 107.49 41.22 120.16 5.45
  A 1.40 1.39 -47.6 0 0 120.12 4.43
  Q 119.50 3.01 117.76 3.00
  C 97.68 2.88 69.88 12.77 65.54 35.48
  Z
  M 102.24 103.85
  Q 102.41 100.34 104.50 97.33
  A 0.78 0.77 -72.9 0 0 103.86 96.11
  C 94.11 96.18 67.01 99.86 69.30 115.06
  C 70.81 125.08 90.17 129.41 98.22 129.59
  Q 107.18 136.76 120.78 138.98
  Q 105.14 151.77 88.56 159.21
  A 1.25 1.25 0.0 0 0 88.33 161.35
  Q 105.63 174.33 126.26 171.56
  C 150.91 168.25 172.88 145.48 161.23 119.71
  Q 180.23 92.53 173.05 59.23
  Q 169.21 41.43 158.23 29.53
  C 156.82 28.00 154.89 29.49 154.24 31.08
  Q 136.83 73.62 102.24 103.85
  Z"
/>
<path fill="#663718" d="
  M 98.01 75.72
  C 80.20 70.90 61.56 56.27 65.54 35.48
  C 69.88 12.77 97.68 2.88 117.76 3.00
  Q 119.50 3.01 120.12 4.43
  A 1.40 1.39 -47.6 0 1 120.16 5.45
  Q 107.49 41.22 124.84 74.78
  A 2.15 2.15 0.0 0 1 123.48 77.84
  Q 122.99 77.97 122.23 78.04
  Q 110.22 79.02 98.01 75.72
  Z
  M 75.47 57.28
  C 85.39 69.43 103.70 74.65 118.95 73.79
  A 0.38 0.38 0.0 0 0 119.27 73.25
  Q 104.31 41.67 114.69 8.11
  Q 114.88 7.49 114.23 7.48
  C 96.75 7.35 72.30 18.47 69.52 37.58
  C 68.51 44.60 71.00 51.81 75.47 57.28
  Z"
/>
<path fill="#ba3325" d="
  M 75.47 57.28
  C 71.00 51.81 68.51 44.60 69.52 37.58
  C 72.30 18.47 96.75 7.35 114.23 7.48
  Q 114.88 7.49 114.69 8.11
  Q 104.31 41.67 119.27 73.25
  A 0.38 0.38 0.0 0 1 118.95 73.79
  C 103.70 74.65 85.39 69.43 75.47 57.28
  Z"
/>
<path fill="#663718" d="
  M 161.23 119.71
  Q 145.30 139.93 120.78 138.98
  Q 107.18 136.76 98.22 129.59
  Q 91.72 124.28 86.78 117.83
  A 1.81 1.81 0.0 0 1 87.13 115.28
  L 102.24 103.85
  Q 136.83 73.62 154.24 31.08
  C 154.89 29.49 156.82 28.00 158.23 29.53
  Q 169.21 41.43 173.05 59.23
  Q 180.23 92.53 161.23 119.71
  Z
  M 156.96 35.69
  Q 156.59 36.23 156.77 37.21
  Q 156.63 37.22 156.50 37.25
  A 0.38 0.37 -83.2 0 0 156.24 37.46
  Q 135.11 85.09 93.84 115.93
  Q 93.16 115.96 92.77 116.27
  Q 92.09 114.46 89.82 115.67
  A 1.19 1.18 58.8 0 0 89.40 117.38
  C 96.98 128.57 109.47 136.28 123.24 136.72
  C 152.23 137.66 169.43 110.79 172.37 85.07
  Q 175.70 56.03 157.90 31.83
  A 1.16 1.16 0.0 0 0 155.81 32.39
  Q 155.64 33.84 156.96 35.69
  Z"
/>
<path fill="#590b02" d="
  M 92.77 116.27
  Q 91.69 117.48 93.23 119.03
  C 105.08 131.04 118.16 137.96 135.17 133.03
  C 153.82 127.63 165.80 108.87 169.20 90.76
  Q 174.80 60.91 158.23 36.05
  C 157.95 35.62 157.40 35.39 156.96 35.69
  Q 155.64 33.84 155.81 32.39
  A 1.16 1.16 0.0 0 1 157.90 31.83
  Q 175.70 56.03 172.37 85.07
  C 169.43 110.79 152.23 137.66 123.24 136.72
  C 109.47 136.28 96.98 128.57 89.40 117.38
  A 1.19 1.18 58.8 0 1 89.82 115.67
  Q 92.09 114.46 92.77 116.27
  Z"
/>
<path fill="#cc1308" d="
  M 92.77 116.27
  Q 93.16 115.96 93.84 115.93
  C 124.59 132.28 152.37 106.25 158.87 77.57
  Q 163.43 57.46 157.33 37.83
  Q 157.25 37.56 157.02 37.39
  L 156.77 37.21
  Q 156.59 36.23 156.96 35.69
  C 157.40 35.39 157.95 35.62 158.23 36.05
  Q 174.80 60.91 169.20 90.76
  C 165.80 108.87 153.82 127.63 135.17 133.03
  C 118.16 137.96 105.08 131.04 93.23 119.03
  Q 91.69 117.48 92.77 116.27
  Z"
/>
<path fill="#ed533a" d="
  M 156.77 37.21
  L 157.02 37.39
  Q 157.25 37.56 157.33 37.83
  Q 163.43 57.46 158.87 77.57
  C 152.37 106.25 124.59 132.28 93.84 115.93
  Q 135.11 85.09 156.24 37.46
  A 0.38 0.37 -83.2 0 1 156.50 37.25
  Q 156.63 37.22 156.77 37.21
  Z"
/>
<path fill="#a5a5a5" d="
  M 102.24 103.85
  L 87.13 115.28
  A 1.81 1.81 0.0 0 0 86.78 117.83
  Q 91.72 124.28 98.22 129.59
  C 90.17 129.41 70.81 125.08 69.30 115.06
  C 67.01 99.86 94.11 96.18 103.86 96.11
  A 0.78 0.77 -72.9 0 1 104.50 97.33
  Q 102.41 100.34 102.24 103.85
  Z"
/>
<path fill="#a5a5a5" d="
  M 161.23 119.71
  C 172.88 145.48 150.91 168.25 126.26 171.56
  Q 105.63 174.33 88.33 161.35
  A 1.25 1.25 0.0 0 1 88.56 159.21
  Q 105.14 151.77 120.78 138.98
  Q 145.30 139.93 161.23 119.71
  Z"
/>
</svg>
