<?xml version="1.0" encoding="UTF-8" standalone="no"?>
<!DOCTYPE svg PUBLIC "-//W3C//DTD SVG 1.1//EN" "http://www.w3.org/Graphics/SVG/1.1/DTD/svg11.dtd">
<svg xmlns="http://www.w3.org/2000/svg" version="1.1" viewBox="0.00 0.00 240.00 240.00">
<g stroke-width="2.00" fill="none" stroke-linecap="butt">
<path stroke="#d2d2d2" vector-effect="non-scaling-stroke" d="
  M 53.09 130.69
  Q 50.39 140.31 54.74 149.28
  C 59.23 158.54 69.74 169.11 81.20 165.85
  A 0.82 0.82 0.0 0 0 81.64 164.59
  L 76.06 156.67"
/>
<path stroke="#b39b8c" vector-effect="non-scaling-stroke" d="
  M 76.06 156.67
  C 79.40 155.46 87.07 151.17 85.78 146.74
  Q 77.79 119.29 75.69 90.75
  Q 73.95 67.16 74.58 59.81
  Q 74.92 55.90 74.48 53.32
  Q 74.38 52.78 73.89 52.53
  Q 71.22 51.20 69.19 53.74
  C 52.97 74.04 49.88 105.88 53.09 130.69"
/>
<path stroke="#866e5f" vector-effect="non-scaling-stroke" d="
  M 76.06 156.67
  C 60.80 160.77 55.66 141.21 53.09 130.69"
/>
<path stroke="#90351f" vector-effect="non-scaling-stroke" d="
  M 60.99 140.49
  C 62.84 146.28 68.77 155.95 76.10 151.41
  C 79.13 149.53 81.19 149.11 80.03 144.73
  Q 69.30 104.26 69.77 62.28
  A 0.35 0.35 0.0 0 0 69.13 62.08
  C 67.50 64.53 66.01 66.97 64.92 69.78
  C 56.44 91.70 53.73 117.66 60.99 140.49"
/>
<path stroke="#d2d2d2" vector-effect="non-scaling-stroke" d="
  M 129.68 171.85
  L 117.75 184.13
  Q 117.39 184.50 117.83 184.79
  C 128.14 191.40 145.21 187.01 154.68 181.30
  C 168.23 173.13 185.48 153.93 183.32 136.83"
/>
<path stroke="#b39b8c" vector-effect="non-scaling-stroke" d="
  M 183.32 136.83
  Q 184.42 131.53 185.46 125.24
  C 189.51 100.60 185.92 77.79 172.60 56.59
  A 1.39 1.33 82.0 0 0 171.90 56.04
  Q 169.08 55.06 168.28 58.05
  C 158.95 93.03 144.49 126.72 120.07 153.08
  C 116.88 156.52 127.61 169.56 129.68 171.85"
/>
<path stroke="#866e5f" vector-effect="non-scaling-stroke" d="
  M 183.32 136.83
  C 178.26 151.04 173.80 166.56 160.69 175.68
  Q 145.44 186.30 129.68 171.85"
/>
<path stroke="#aa4529" vector-effect="non-scaling-stroke" d="
  M 171.52 64.82
  Q 162.08 98.91 145.16 127.67
  Q 137.24 141.14 125.64 154.30"
/>
<path stroke="#992510" vector-effect="non-scaling-stroke" d="
  M 125.64 154.30
  Q 125.44 154.18 125.04 154.50"
/>
<path stroke="#60220e" vector-effect="non-scaling-stroke" d="
  M 125.04 154.50
  Q 124.70 154.07 124.61 153.59
  Q 124.50 152.95 123.89 153.18
  L 122.56 153.69
  A 1.35 1.35 0.0 0 0 121.80 155.48
  C 126.43 166.40 136.71 179.24 149.98 177.48
  C 174.69 174.20 184.73 127.88 184.23 108.70
  C 184.07 102.76 184.08 96.34 183.25 91.04
  Q 180.59 73.97 171.52 59.26
  A 0.78 0.78 0.0 0 0 170.11 59.88
  L 171.52 64.82"
/>
<path stroke="#931006" vector-effect="non-scaling-stroke" d="
  M 125.04 154.50
  L 124.78 154.83
  A 0.77 0.77 0.0 0 0 124.68 155.61
  C 127.87 162.97 134.39 171.86 142.28 174.49
  C 157.17 179.45 167.82 162.83 172.69 151.47
  C 182.88 127.75 186.54 96.52 175.30 72.39"
/>
<path stroke="#a3301f" vector-effect="non-scaling-stroke" d="
  M 175.30 72.39
  L 171.52 64.82"
/>
<path stroke="#dd3321" vector-effect="non-scaling-stroke" d="
  M 175.30 72.39
  Q 175.75 75.93 176.54 79.36
  C 181.84 102.26 175.72 137.32 155.98 152.69
  C 147.06 159.63 134.82 161.59 125.64 154.30"
/>
</g>
<path fill="#ffffff" d="
  M 79.94 158.04
  L 84.46 164.55
  Q 84.78 165.01 84.55 165.52
  C 81.47 172.22 69.27 168.16 64.80 164.97
  C 54.60 157.70 49.10 146.57 49.92 133.99
  Q 50.09 131.46 50.02 128.94
  Q 49.67 115.98 50.17 103.02
  Q 51.22 76.22 65.22 54.27
  C 68.38 49.33 77.11 46.65 77.01 55.74
  C 76.64 86.58 79.65 116.17 88.01 145.74
  C 89.50 151.01 85.24 154.83 80.14 157.30
  Q 79.61 157.56 79.94 158.04
  Z
  M 53.09 130.69
  Q 50.39 140.31 54.74 149.28
  C 59.23 158.54 69.74 169.11 81.20 165.85
  A 0.82 0.82 0.0 0 0 81.64 164.59
  L 76.06 156.67
  C 79.40 155.46 87.07 151.17 85.78 146.74
  Q 77.79 119.29 75.69 90.75
  Q 73.95 67.16 74.58 59.81
  Q 74.92 55.90 74.48 53.32
  Q 74.38 52.78 73.89 52.53
  Q 71.22 51.20 69.19 53.74
  C 52.97 74.04 49.88 105.88 53.09 130.69
  Z"
/>
<path fill="#663718" d="
  M 76.06 156.67
  C 60.80 160.77 55.66 141.21 53.09 130.69
  C 49.88 105.88 52.97 74.04 69.19 53.74
  Q 71.22 51.20 73.89 52.53
  Q 74.38 52.78 74.48 53.32
  Q 74.92 55.90 74.58 59.81
  Q 73.95 67.16 75.69 90.75
  Q 77.79 119.29 85.78 146.74
  C 87.07 151.17 79.40 155.46 76.06 156.67
  Z
  M 60.99 140.49
  C 62.84 146.28 68.77 155.95 76.10 151.41
  C 79.13 149.53 81.19 149.11 80.03 144.73
  Q 69.30 104.26 69.77 62.28
  A 0.35 0.35 0.0 0 0 69.13 62.08
  C 67.50 64.53 66.01 66.97 64.92 69.78
  C 56.44 91.70 53.73 117.66 60.99 140.49
  Z"
/>
<path fill="#ffffff" d="
  M 165.63 58.63
  C 167.39 52.01 172.38 51.64 175.92 57.34
  Q 184.92 71.82 187.97 88.42
  C 189.48 96.67 189.01 106.27 189.03 115.21
  C 189.05 122.64 186.81 130.04 186.25 137.58
  Q 185.76 144.23 184.75 147.68
  C 178.28 169.62 156.39 189.86 132.77 190.42
  C 129.78 190.49 114.37 189.34 114.97 184.59
  C 115.30 181.95 123.42 175.09 125.49 173.23
  A 1.56 1.56 0.0 0 0 125.67 171.11
  C 123.22 168.03 115.84 157.81 116.80 153.83
  Q 117.06 152.72 118.22 151.47
  C 142.08 125.49 156.68 92.31 165.63 58.63
  Z
  M 129.68 171.85
  L 117.75 184.13
  Q 117.39 184.50 117.83 184.79
  C 128.14 191.40 145.21 187.01 154.68 181.30
  C 168.23 173.13 185.48 153.93 183.32 136.83
  Q 184.42 131.53 185.46 125.24
  C 189.51 100.60 185.92 77.79 172.60 56.59
  A 1.39 1.33 82.0 0 0 171.90 56.04
  Q 169.08 55.06 168.28 58.05
  C 158.95 93.03 144.49 126.72 120.07 153.08
  C 116.88 156.52 127.61 169.56 129.68 171.85
  Z"
/>
<path fill="#663718" d="
  M 183.32 136.83
  C 178.26 151.04 173.80 166.56 160.69 175.68
  Q 145.44 186.30 129.68 171.85
  C 127.61 169.56 116.88 156.52 120.07 153.08
  C 144.49 126.72 158.95 93.03 168.28 58.05
  Q 169.08 55.06 171.90 56.04
  A 1.39 1.33 82.0 0 1 172.60 56.59
  C 185.92 77.79 189.51 100.60 185.46 125.24
  Q 184.42 131.53 183.32 136.83
  Z
  M 171.52 64.82
  Q 162.08 98.91 145.16 127.67
  Q 137.24 141.14 125.64 154.30
  Q 125.44 154.18 125.04 154.50
  Q 124.70 154.07 124.61 153.59
  Q 124.50 152.95 123.89 153.18
  L 122.56 153.69
  A 1.35 1.35 0.0 0 0 121.80 155.48
  C 126.43 166.40 136.71 179.24 149.98 177.48
  C 174.69 174.20 184.73 127.88 184.23 108.70
  C 184.07 102.76 184.08 96.34 183.25 91.04
  Q 180.59 73.97 171.52 59.26
  A 0.78 0.78 0.0 0 0 170.11 59.88
  L 171.52 64.82
  Z"
/>
<path fill="#590c03" d="
  M 125.04 154.50
  L 124.78 154.83
  A 0.77 0.77 0.0 0 0 124.68 155.61
  C 127.87 162.97 134.39 171.86 142.28 174.49
  C 157.17 179.45 167.82 162.83 172.69 151.47
  C 182.88 127.75 186.54 96.52 175.30 72.39
  L 171.52 64.82
  L 170.11 59.88
  A 0.78 0.78 0.0 0 1 171.52 59.26
  Q 180.59 73.97 183.25 91.04
  C 184.08 96.34 184.07 102.76 184.23 108.70
  C 184.73 127.88 174.69 174.20 149.98 177.48
  C 136.71 179.24 126.43 166.40 121.80 155.48
  A 1.35 1.35 0.0 0 1 122.56 153.69
  L 123.89 153.18
  Q 124.50 152.95 124.61 153.59
  Q 124.70 154.07 125.04 154.50
  Z"
/>
<path fill="#ba3325" d="
  M 76.10 151.41
  C 68.77 155.95 62.84 146.28 60.99 140.49
  C 53.73 117.66 56.44 91.70 64.92 69.78
  C 66.01 66.97 67.50 64.53 69.13 62.08
  A 0.35 0.35 0.0 0 1 69.77 62.28
  Q 69.30 104.26 80.03 144.73
  C 81.19 149.11 79.13 149.53 76.10 151.41
  Z"
/>
<path fill="#ed533a" d="
  M 171.52 64.82
  L 175.30 72.39
  Q 175.75 75.93 176.54 79.36
  C 181.84 102.26 175.72 137.32 155.98 152.69
  C 147.06 159.63 134.82 161.59 125.64 154.30
  Q 137.24 141.14 145.16 127.67
  Q 162.08 98.91 171.52 64.82
  Z"
/>
<path fill="#cc1308" d="
  M 175.30 72.39
  C 186.54 96.52 182.88 127.75 172.69 151.47
  C 167.82 162.83 157.17 179.45 142.28 174.49
  C 134.39 171.86 127.87 162.97 124.68 155.61
  A 0.77 0.77 0.0 0 1 124.78 154.83
  L 125.04 154.50
  Q 125.44 154.18 125.64 154.30
  C 134.82 161.59 147.06 159.63 155.98 152.69
  C 175.72 137.32 181.84 102.26 176.54 79.36
  Q 175.75 75.93 175.30 72.39
  Z"
/>
<path fill="#a5a5a5" d="
  M 53.09 130.69
  C 55.66 141.21 60.80 160.77 76.06 156.67
  L 81.64 164.59
  A 0.82 0.82 0.0 0 1 81.20 165.85
  C 69.74 169.11 59.23 158.54 54.74 149.28
  Q 50.39 140.31 53.09 130.69
  Z"
/>
<path fill="#a5a5a5" d="
  M 183.32 136.83
  C 185.48 153.93 168.23 173.13 154.68 181.30
  C 145.21 187.01 128.14 191.40 117.83 184.79
  Q 117.39 184.50 117.75 184.13
  L 129.68 171.85
  Q 145.44 186.30 160.69 175.68
  C 173.80 166.56 178.26 151.04 183.32 136.83
  Z"
/>
</svg>
