<?xml version="1.0" encoding="UTF-8" standalone="no"?>
<!DOCTYPE svg PUBLIC "-//W3C//DTD SVG 1.1//EN" "http://www.w3.org/Graphics/SVG/1.1/DTD/svg11.dtd">
<svg xmlns="http://www.w3.org/2000/svg" version="1.1" viewBox="0.00 0.00 240.00 240.00">
<g stroke-width="2.00" fill="none" stroke-linecap="butt">
<path stroke="#d2d2d2" vector-effect="non-scaling-stroke" d="
  M 44.61 124.64
  Q 44.74 131.74 47.70 137.95"
/>
<path stroke="#b39b8c" vector-effect="non-scaling-stroke" d="
  M 47.70 137.95
  Q 47.90 138.72 47.39 139.47
  Q 47.06 139.94 46.52 140.08
  L 42.59 141.09
  A 0.44 0.44 0.0 0 0 42.44 141.86
  L 46.57 145.02
  A 1.22 1.22 0.0 0 1 47.04 146.04
  Q 46.94 148.38 45.33 150.02
  A 0.96 0.96 0.0 0 0 46.22 151.63
  Q 51.96 150.34 53.56 155.67
  A 0.69 0.69 0.0 0 0 54.76 155.91
  L 57.45 152.63"
/>
<path stroke="#d2d2d2" vector-effect="non-scaling-stroke" d="
  M 57.45 152.63
  C 72.50 166.97 93.55 170.04 111.78 160.05
  A 0.88 0.88 0.0 0 0 111.98 158.65
  L 106.92 153.64"
/>
<path stroke="#b39b8c" vector-effect="non-scaling-stroke" d="
  M 106.92 153.64
  L 113.73 150.42
  A 1.88 1.88 0.0 0 0 114.31 147.45
  C 92.71 124.05 78.57 98.83 72.40 67.40
  C 71.97 65.22 71.28 64.29 68.98 65.48
  C 47.11 76.80 36.68 100.76 44.61 124.64"
/>
<path stroke="#866e5f" vector-effect="non-scaling-stroke" d="
  M 106.92 153.64
  C 80.80 163.03 54.60 150.39 44.61 124.64"
/>
<path stroke="#866e5f" vector-effect="non-scaling-stroke" d="
  M 57.45 152.63
  L 60.04 151.67
  Q 60.61 151.46 60.31 150.94
  Q 59.98 150.36 58.70 150.46"
/>
<path stroke="#d2d09a" vector-effect="non-scaling-stroke" d="
  M 58.70 150.46
  Q 54.79 144.26 49.22 139.47"
/>
<path stroke="#866e5f" vector-effect="non-scaling-stroke" d="
  M 49.22 139.47
  Q 48.79 135.77 47.70 137.95"
/>
<path stroke="#b29954" vector-effect="non-scaling-stroke" d="
  M 49.22 139.47
  Q 48.32 141.18 46.63 141.88
  A 0.38 0.38 0.0 0 0 46.53 142.53
  Q 49.70 145.14 48.17 149.06
  Q 47.90 149.75 48.63 149.76
  Q 52.09 149.83 54.18 152.49
  Q 54.52 152.93 54.91 152.54
  Q 56.63 150.82 58.70 150.46"
/>
<path stroke="#90351f" vector-effect="non-scaling-stroke" d="
  M 110.46 147.97
  Q 78.80 114.69 69.49 69.52
  A 0.46 0.46 0.0 0 0 68.81 69.21
  C 39.38 85.53 36.85 126.51 64.84 145.75
  Q 85.02 159.61 110.30 148.75
  A 0.49 0.48 56.8 0 0 110.46 147.97"
/>
<path stroke="#b39b8c" vector-effect="non-scaling-stroke" d="
  M 197.95 124.44
  C 197.68 106.61 187.13 88.40 170.02 81.44
  A 1.64 1.63 16.4 0 0 167.80 82.64
  Q 158.94 129.63 125.55 163.62
  A 1.78 1.78 0.0 0 0 125.91 166.40
  C 158.32 185.63 198.50 160.99 197.95 124.44"
/>
<path stroke="#fffdc7" vector-effect="non-scaling-stroke" d="
  M 148.23 120.28
  L 154.39 107.64"
/>
<path stroke="#b39b8c" vector-effect="non-scaling-stroke" d="
  M 154.39 107.64
  Q 155.74 107.33 155.76 106.19
  Q 155.77 105.59 155.18 105.58
  Q 151.41 105.51 150.18 101.94
  A 0.58 0.58 0.0 0 0 149.05 102.06
  C 148.64 105.43 147.79 110.38 142.88 108.01
  A 0.97 0.96 -6.2 0 0 141.70 109.47
  Q 145.37 114.12 141.10 117.81
  A 0.82 0.82 0.0 0 0 141.59 119.25
  Q 145.20 119.42 147.34 122.27
  A 0.49 0.49 0.0 0 0 148.12 122.26
  Q 148.65 121.53 148.23 120.28"
/>
<path stroke="#b29954" vector-effect="non-scaling-stroke" d="
  M 154.39 107.64
  L 150.75 106.16
  Q 150.19 105.94 149.99 106.51
  Q 148.78 110.04 144.98 110.25
  A 0.58 0.58 0.0 0 0 144.47 111.03
  Q 145.62 114.19 144.22 117.26
  Q 143.98 117.78 144.53 117.98
  Q 146.67 118.77 148.23 120.28"
/>
<path stroke="#992510" vector-effect="non-scaling-stroke" d="
  M 170.27 85.52
  L 170.27 86.75"
/>
<path stroke="#aa4529" vector-effect="non-scaling-stroke" d="
  M 170.27 86.75
  Q 161.10 129.98 131.21 162.55"
/>
<path stroke="#992510" vector-effect="non-scaling-stroke" d="
  M 131.21 162.55
  Q 130.52 162.77 129.73 163.58"
/>
<path stroke="#62220f" vector-effect="non-scaling-stroke" d="
  M 129.73 163.58
  Q 129.20 162.34 127.29 163.80
  Q 125.91 164.85 127.43 165.68
  Q 133.91 169.21 141.53 170.73
  C 145.22 171.47 148.95 171.07 152.85 171.12
  Q 157.53 171.18 160.90 170.26
  Q 190.22 162.23 196.11 131.86
  C 196.94 127.60 196.48 119.21 195.53 115.23
  Q 190.37 93.57 169.96 82.78
  A 0.60 0.59 -59.6 0 0 169.17 82.99
  Q 168.09 84.69 170.27 85.52"
/>
<path stroke="#951007" vector-effect="non-scaling-stroke" d="
  M 129.73 163.58
  Q 129.08 164.81 131.91 165.93
  C 185.16 187.02 219.89 114.84 172.03 86.06
  C 171.36 85.66 171.30 85.30 170.27 85.52"
/>
<path stroke="#dd3321" vector-effect="non-scaling-stroke" d="
  M 131.21 162.55
  Q 131.92 163.24 133.07 163.27
  C 172.99 164.16 197.11 119.59 171.46 87.54
  Q 170.91 86.85 170.27 86.75"
/>
</g>
<path fill="#ffffff" d="
  M 111.29 154.91
  Q 113.50 156.44 114.91 158.75
  Q 115.78 160.18 114.38 161.10
  C 96.52 172.82 73.40 169.60 57.73 156.37
  Q 57.26 155.98 57.05 156.55
  Q 56.10 159.16 53.22 158.70
  Q 52.56 158.60 52.22 158.01
  L 50.30 154.71
  Q 50.01 154.21 49.44 154.10
  C 47.35 153.70 44.00 155.08 43.21 152.24
  Q 42.48 149.62 43.87 147.22
  Q 44.13 146.77 43.76 146.39
  C 40.78 143.37 36.89 139.49 44.21 137.92
  Q 44.73 137.80 44.58 137.29
  Q 40.41 123.74 39.79 109.72
  C 38.99 91.96 48.16 75.81 62.78 66.04
  C 64.80 64.69 73.61 60.17 74.54 65.24
  Q 82.97 111.11 115.06 144.48
  C 119.75 149.37 116.10 152.35 111.38 154.13
  Q 110.58 154.43 111.29 154.91
  Z
  M 44.61 124.64
  Q 44.74 131.74 47.70 137.95
  Q 47.90 138.72 47.39 139.47
  Q 47.06 139.94 46.52 140.08
  L 42.59 141.09
  A 0.44 0.44 0.0 0 0 42.44 141.86
  L 46.57 145.02
  A 1.22 1.22 0.0 0 1 47.04 146.04
  Q 46.94 148.38 45.33 150.02
  A 0.96 0.96 0.0 0 0 46.22 151.63
  Q 51.96 150.34 53.56 155.67
  A 0.69 0.69 0.0 0 0 54.76 155.91
  L 57.45 152.63
  C 72.50 166.97 93.55 170.04 111.78 160.05
  A 0.88 0.88 0.0 0 0 111.98 158.65
  L 106.92 153.64
  L 113.73 150.42
  A 1.88 1.88 0.0 0 0 114.31 147.45
  C 92.71 124.05 78.57 98.83 72.40 67.40
  C 71.97 65.22 71.28 64.29 68.98 65.48
  C 47.11 76.80 36.68 100.76 44.61 124.64
  Z"
/>
<path fill="#663718" d="
  M 106.92 153.64
  C 80.80 163.03 54.60 150.39 44.61 124.64
  C 36.68 100.76 47.11 76.80 68.98 65.48
  C 71.28 64.29 71.97 65.22 72.40 67.40
  C 78.57 98.83 92.71 124.05 114.31 147.45
  A 1.88 1.88 0.0 0 1 113.73 150.42
  L 106.92 153.64
  Z
  M 110.46 147.97
  Q 78.80 114.69 69.49 69.52
  A 0.46 0.46 0.0 0 0 68.81 69.21
  C 39.38 85.53 36.85 126.51 64.84 145.75
  Q 85.02 159.61 110.30 148.75
  A 0.49 0.48 56.8 0 0 110.46 147.97
  Z"
/>
<path fill="#ba3325" d="
  M 110.46 147.97
  A 0.49 0.48 56.8 0 1 110.30 148.75
  Q 85.02 159.61 64.84 145.75
  C 36.85 126.51 39.38 85.53 68.81 69.21
  A 0.46 0.46 0.0 0 1 69.49 69.52
  Q 78.80 114.69 110.46 147.97
  Z"
/>
<path fill="#ffffff" d="
  M 158.01 106.65
  A 0.41 0.41 0.0 0 0 158.81 106.81
  Q 161.02 100.05 162.93 93.22
  C 163.92 89.68 164.58 84.44 166.21 80.14
  Q 166.40 79.64 166.87 79.40
  Q 169.58 78.02 172.60 79.63
  C 191.53 89.74 201.14 106.92 200.08 128.51
  C 199.57 138.85 195.62 149.60 189.01 157.25
  C 173.43 175.26 146.72 181.50 125.42 169.08
  C 120.59 166.26 122.85 162.50 125.94 159.47
  C 139.88 145.77 150.70 127.38 157.64 109.43
  Q 157.83 108.95 157.32 108.90
  C 155.09 108.68 151.85 122.77 148.60 124.85
  Q 148.16 125.13 147.64 125.03
  C 145.98 124.69 144.88 123.33 143.67 122.74
  C 141.49 121.67 138.29 120.87 138.07 117.88
  Q 138.03 117.33 138.44 116.96
  L 140.84 114.77
  A 0.88 0.88 0.0 0 0 141.10 113.92
  C 140.09 109.60 135.63 105.22 144.87 106.02
  Q 145.91 106.11 145.93 105.07
  Q 146.00 101.54 148.12 99.86
  C 151.00 97.57 152.16 100.92 153.46 102.63
  A 0.91 0.91 0.0 0 0 154.26 102.99
  Q 158.29 102.64 158.01 106.65
  Z
  M 197.95 124.44
  C 197.68 106.61 187.13 88.40 170.02 81.44
  A 1.64 1.63 16.4 0 0 167.80 82.64
  Q 158.94 129.63 125.55 163.62
  A 1.78 1.78 0.0 0 0 125.91 166.40
  C 158.32 185.63 198.50 160.99 197.95 124.44
  Z
  M 148.23 120.28
  L 154.39 107.64
  Q 155.74 107.33 155.76 106.19
  Q 155.77 105.59 155.18 105.58
  Q 151.41 105.51 150.18 101.94
  A 0.58 0.58 0.0 0 0 149.05 102.06
  C 148.64 105.43 147.79 110.38 142.88 108.01
  A 0.97 0.96 -6.2 0 0 141.70 109.47
  Q 145.37 114.12 141.10 117.81
  A 0.82 0.82 0.0 0 0 141.59 119.25
  Q 145.20 119.42 147.34 122.27
  A 0.49 0.49 0.0 0 0 148.12 122.26
  Q 148.65 121.53 148.23 120.28
  Z"
/>
<path fill="#663718" d="
  M 170.02 81.44
  C 187.13 88.40 197.68 106.61 197.95 124.44
  C 198.50 160.99 158.32 185.63 125.91 166.40
  A 1.78 1.78 0.0 0 1 125.55 163.62
  Q 158.94 129.63 167.80 82.64
  A 1.64 1.63 16.4 0 1 170.02 81.44
  Z
  M 170.27 85.52
  L 170.27 86.75
  Q 161.10 129.98 131.21 162.55
  Q 130.52 162.77 129.73 163.58
  Q 129.20 162.34 127.29 163.80
  Q 125.91 164.85 127.43 165.68
  Q 133.91 169.21 141.53 170.73
  C 145.22 171.47 148.95 171.07 152.85 171.12
  Q 157.53 171.18 160.90 170.26
  Q 190.22 162.23 196.11 131.86
  C 196.94 127.60 196.48 119.21 195.53 115.23
  Q 190.37 93.57 169.96 82.78
  A 0.60 0.59 -59.6 0 0 169.17 82.99
  Q 168.09 84.69 170.27 85.52
  Z"
/>
<path fill="#5e0c05" d="
  M 129.73 163.58
  Q 129.08 164.81 131.91 165.93
  C 185.16 187.02 219.89 114.84 172.03 86.06
  C 171.36 85.66 171.30 85.30 170.27 85.52
  Q 168.09 84.69 169.17 82.99
  A 0.60 0.59 -59.6 0 1 169.96 82.78
  Q 190.37 93.57 195.53 115.23
  C 196.48 119.21 196.94 127.60 196.11 131.86
  Q 190.22 162.23 160.90 170.26
  Q 157.53 171.18 152.85 171.12
  C 148.95 171.07 145.22 171.47 141.53 170.73
  Q 133.91 169.21 127.43 165.68
  Q 125.91 164.85 127.29 163.80
  Q 129.20 162.34 129.73 163.58
  Z"
/>
<path fill="#cc1308" d="
  M 170.27 85.52
  C 171.30 85.30 171.36 85.66 172.03 86.06
  C 219.89 114.84 185.16 187.02 131.91 165.93
  Q 129.08 164.81 129.73 163.58
  Q 130.52 162.77 131.21 162.55
  Q 131.92 163.24 133.07 163.27
  C 172.99 164.16 197.11 119.59 171.46 87.54
  Q 170.91 86.85 170.27 86.75
  L 170.27 85.52
  Z"
/>
<path fill="#ed533a" d="
  M 170.27 86.75
  Q 170.91 86.85 171.46 87.54
  C 197.11 119.59 172.99 164.16 133.07 163.27
  Q 131.92 163.24 131.21 162.55
  Q 161.10 129.98 170.27 86.75
  Z"
/>
<path fill="#663718" d="
  M 154.39 107.64
  L 150.75 106.16
  Q 150.19 105.94 149.99 106.51
  Q 148.78 110.04 144.98 110.25
  A 0.58 0.58 0.0 0 0 144.47 111.03
  Q 145.62 114.19 144.22 117.26
  Q 143.98 117.78 144.53 117.98
  Q 146.67 118.77 148.23 120.28
  Q 148.65 121.53 148.12 122.26
  A 0.49 0.49 0.0 0 1 147.34 122.27
  Q 145.20 119.42 141.59 119.25
  A 0.82 0.82 0.0 0 1 141.10 117.81
  Q 145.37 114.12 141.70 109.47
  A 0.97 0.96 -6.2 0 1 142.88 108.01
  C 147.79 110.38 148.64 105.43 149.05 102.06
  A 0.58 0.58 0.0 0 1 150.18 101.94
  Q 151.41 105.51 155.18 105.58
  Q 155.77 105.59 155.76 106.19
  Q 155.74 107.33 154.39 107.64
  Z"
/>
<path fill="#fefb8f" d="
  M 154.39 107.64
  L 148.23 120.28
  Q 146.67 118.77 144.53 117.98
  Q 143.98 117.78 144.22 117.26
  Q 145.62 114.19 144.47 111.03
  A 0.58 0.58 0.0 0 1 144.98 110.25
  Q 148.78 110.04 149.99 106.51
  Q 150.19 105.94 150.75 106.16
  L 154.39 107.64
  Z"
/>
<path fill="#a5a5a5" d="
  M 44.61 124.64
  C 54.60 150.39 80.80 163.03 106.92 153.64
  L 111.98 158.65
  A 0.88 0.88 0.0 0 1 111.78 160.05
  C 93.55 170.04 72.50 166.97 57.45 152.63
  L 60.04 151.67
  Q 60.61 151.46 60.31 150.94
  Q 59.98 150.36 58.70 150.46
  Q 54.79 144.26 49.22 139.47
  Q 48.79 135.77 47.70 137.95
  Q 44.74 131.74 44.61 124.64
  Z"
/>
<path fill="#663718" d="
  M 49.22 139.47
  Q 48.32 141.18 46.63 141.88
  A 0.38 0.38 0.0 0 0 46.53 142.53
  Q 49.70 145.14 48.17 149.06
  Q 47.90 149.75 48.63 149.76
  Q 52.09 149.83 54.18 152.49
  Q 54.52 152.93 54.91 152.54
  Q 56.63 150.82 58.70 150.46
  Q 59.98 150.36 60.31 150.94
  Q 60.61 151.46 60.04 151.67
  L 57.45 152.63
  L 54.76 155.91
  A 0.69 0.69 0.0 0 1 53.56 155.67
  Q 51.96 150.34 46.22 151.63
  A 0.96 0.96 0.0 0 1 45.33 150.02
  Q 46.94 148.38 47.04 146.04
  A 1.22 1.22 0.0 0 0 46.57 145.02
  L 42.44 141.86
  A 0.44 0.44 0.0 0 1 42.59 141.09
  L 46.52 140.08
  Q 47.06 139.94 47.39 139.47
  Q 47.90 138.72 47.70 137.95
  Q 48.79 135.77 49.22 139.47
  Z"
/>
<path fill="#fefb8f" d="
  M 58.70 150.46
  Q 56.63 150.82 54.91 152.54
  Q 54.52 152.93 54.18 152.49
  Q 52.09 149.83 48.63 149.76
  Q 47.90 149.75 48.17 149.06
  Q 49.70 145.14 46.53 142.53
  A 0.38 0.38 0.0 0 1 46.63 141.88
  Q 48.32 141.18 49.22 139.47
  Q 54.79 144.26 58.70 150.46
  Z"
/>
</svg>
