<?xml version="1.0" encoding="UTF-8" standalone="no"?>
<!DOCTYPE svg PUBLIC "-//W3C//DTD SVG 1.1//EN" "http://www.w3.org/Graphics/SVG/1.1/DTD/svg11.dtd">
<svg xmlns="http://www.w3.org/2000/svg" version="1.1" viewBox="0.00 0.00 240.00 240.00">
<g stroke-width="2.00" fill="none" stroke-linecap="butt">
<path stroke="#b39b8c" vector-effect="non-scaling-stroke" d="
  M 130.30 0.00
  L 123.58 61.52
  Q 123.52 62.08 123.35 61.54
  Q 123.04 60.55 123.08 59.94
  Q 125.02 30.08 126.61 0.26"
/>
<path stroke="#b39b8c" vector-effect="non-scaling-stroke" d="
  M 46.62 34.14
  C 39.06 24.66 31.86 14.91 24.37 5.37
  Q 24.02 4.92 23.58 5.29
  L 21.64 6.92
  Q 21.21 7.27 21.57 7.69
  Q 39.10 28.13 56.87 48.35
  Q 57.75 49.35 57.00 48.25
  Q 52.09 40.99 46.62 34.14"
/>
<path stroke="#b39b8c" vector-effect="non-scaling-stroke" d="
  M 195.95 5.85
  Q 195.50 5.53 194.87 5.46
  Q 194.37 5.41 194.11 5.82
  L 172.85 39.14
  A 0.24 0.24 0.0 0 0 173.25 39.42
  L 197.21 7.71
  Q 197.56 7.24 197.19 6.79
  Q 197.00 6.56 196.77 6.41
  A 2.11 0.06 32.6 0 1 195.95 5.85"
/>
<path stroke="#b39b8c" vector-effect="non-scaling-stroke" d="
  M 72.72 7.45
  L 87.81 48.23
  A 0.13 0.12 30.1 0 0 88.05 48.18
  L 76.19 6.22
  Q 75.97 5.43 75.20 5.72
  L 73.15 6.51
  A 0.74 0.73 -20.6 0 0 72.72 7.45"
/>
<path stroke="#b39b8c" vector-effect="non-scaling-stroke" d="
  M 240.00 21.04
  L 206.99 47.77
  A 0.15 0.15 0.0 0 0 207.16 48.01
  Q 223.69 37.01 240.00 25.29"
/>
<path stroke="#b39b8c" vector-effect="non-scaling-stroke" d="
  M 0.00 43.54
  L 28.71 62.02
  A 0.14 0.14 0.0 0 0 28.88 61.80
  Q 13.72 49.82 1.54 41.47
  Q 0.35 40.65 0.00 39.94"
/>
<path stroke="#b39b8c" vector-effect="non-scaling-stroke" d="
  M 0.00 72.81
  Q 21.44 80.53 42.77 88.44
  Q 43.02 88.53 43.09 88.22
  Q 43.15 87.95 42.89 87.85
  L 0.00 69.76"
/>
<path stroke="#d2d2d2" vector-effect="non-scaling-stroke" d="
  M 43.86 124.74
  C 44.53 141.52 57.52 156.15 72.43 161.87
  C 85.59 166.92 98.99 165.63 111.32 158.92
  A 0.87 0.87 0.0 0 0 111.51 157.54
  L 106.46 152.63"
/>
<path stroke="#b39b8c" vector-effect="non-scaling-stroke" d="
  M 106.46 152.63
  L 114.03 148.73
  A 1.06 1.06 0.0 0 0 114.33 147.08
  Q 111.02 143.42 107.65 139.64
  C 88.87 118.61 76.58 92.73 71.29 65.01
  A 1.21 1.21 0.0 0 0 70.01 64.03
  Q 68.76 64.13 67.20 64.97
  C 45.03 76.86 35.94 100.94 43.86 124.74"
/>
<path stroke="#866e5f" vector-effect="non-scaling-stroke" d="
  M 106.46 152.63
  C 83.85 160.36 59.78 152.79 47.53 132.00
  C 46.32 129.95 45.22 127.10 43.86 124.74"
/>
<path stroke="#90351f" vector-effect="non-scaling-stroke" d="
  M 56.81 138.63
  C 70.98 153.04 90.51 156.52 109.24 147.80
  A 0.79 0.79 0.0 0 0 109.48 146.54
  Q 80.51 116.04 70.25 75.50
  Q 69.38 72.08 68.94 68.80
  A 0.73 0.73 0.0 0 0 67.87 68.26
  C 41.93 82.66 35.85 117.32 56.81 138.63"
/>
<path stroke="#b39b8c" vector-effect="non-scaling-stroke" d="
  M 240.00 79.01
  Q 214.76 86.37 189.71 94.28
  A 0.17 0.16 -59.8 0 0 189.79 94.60
  Q 214.98 88.53 240.00 81.95"
/>
<path stroke="#b39b8c" vector-effect="non-scaling-stroke" d="
  M 240.00 151.78
  L 199.23 141.69
  A 0.23 0.23 0.0 0 0 199.11 142.13
  L 240.00 154.70"
/>
<path stroke="#b39b8c" vector-effect="non-scaling-stroke" d="
  M 185.57 91.85
  C 180.96 86.90 175.95 82.81 169.80 80.37
  A 1.62 1.62 0.0 0 0 167.62 81.57
  Q 158.57 128.63 125.12 162.69
  A 1.85 1.84 36.5 0 0 125.56 165.61
  C 148.37 177.92 175.29 172.10 189.99 150.48
  C 202.17 132.58 200.22 107.59 185.57 91.85"
/>
<path stroke="#992510" vector-effect="non-scaling-stroke" d="
  M 170.21 84.97
  Q 170.36 85.84 170.22 85.29"
/>
<path stroke="#aa4529" vector-effect="non-scaling-stroke" d="
  M 170.22 85.29
  Q 160.90 128.96 130.96 161.25"
/>
<path stroke="#992510" vector-effect="non-scaling-stroke" d="
  M 130.96 161.25
  L 129.81 162.23"
/>
<path stroke="#62220f" vector-effect="non-scaling-stroke" d="
  M 129.81 162.23
  Q 127.90 160.63 126.34 163.40
  A 0.85 0.85 0.0 0 0 126.67 164.55
  C 136.80 170.27 150.64 171.53 161.19 169.21
  Q 167.45 167.84 175.44 162.98
  C 176.29 162.46 176.74 161.39 178.08 161.48
  Q 178.57 161.51 178.91 161.16
  Q 181.81 158.13 184.65 155.10
  Q 187.88 151.64 189.68 148.44
  C 195.32 138.41 198.39 125.78 195.60 114.35
  Q 190.53 93.62 170.63 81.96
  A 1.25 1.24 -58.2 0 0 168.96 82.36
  Q 168.10 83.68 170.21 84.97"
/>
<path stroke="#951007" vector-effect="non-scaling-stroke" d="
  M 129.81 162.23
  L 129.53 162.53
  A 1.00 1.00 0.0 0 0 129.85 164.13
  C 146.17 171.45 164.36 169.95 178.23 158.64
  C 202.96 138.49 198.89 101.38 172.03 84.98
  Q 170.89 84.28 170.21 84.97"
/>
<path stroke="#dd3321" vector-effect="non-scaling-stroke" d="
  M 130.96 161.25
  Q 131.54 162.27 132.50 162.28
  C 173.64 162.91 197.48 117.92 170.22 85.29"
/>
<path stroke="#b39b8c" vector-effect="non-scaling-stroke" d="
  M 240.00 95.52
  L 210.83 101.27
  A 0.10 0.10 0.0 0 0 210.86 101.47
  L 240.00 97.87"
/>
<path stroke="#b39b8c" vector-effect="non-scaling-stroke" d="
  M 0.00 122.47
  L 20.53 120.80
  A 0.10 0.10 0.0 0 0 20.52 120.60
  L 0.00 120.24"
/>
<path stroke="#b39b8c" vector-effect="non-scaling-stroke" d="
  M 0.00 201.74
  Q 0.31 200.78 0.58 200.59
  Q 21.54 185.20 41.92 169.00
  A 0.21 0.21 0.0 0 0 41.67 168.66
  Q 21.00 182.87 0.74 197.60
  Q 0.50 197.77 0.24 197.61
  Q 0.08 197.50 0.00 197.44"
/>
<path stroke="#b39b8c" vector-effect="non-scaling-stroke" d="
  M 240.00 204.16
  L 190.28 171.12
  Q 186.28 168.46 189.77 171.77
  Q 189.87 171.87 191.95 173.35
  Q 216.08 190.51 240.00 207.78"
/>
<path stroke="#b39b8c" vector-effect="non-scaling-stroke" d="
  M 127.30 228.78
  L 129.63 229.05
  A 0.65 0.65 0.0 0 0 130.36 228.35
  L 127.03 188.72
  A 0.29 0.29 0.0 0 0 126.45 188.75
  L 126.87 228.30
  Q 126.88 228.73 127.30 228.78"
/>
<path stroke="#b39b8c" vector-effect="non-scaling-stroke" d="
  M 0.00 224.81
  L 33.85 192.13
  A 0.28 0.28 0.0 0 0 33.48 191.72
  L 0.00 220.16"
/>
<path stroke="#b39b8c" vector-effect="non-scaling-stroke" d="
  M 46.77 228.39
  L 48.69 229.51
  Q 49.15 229.77 49.41 229.31
  C 55.82 217.76 61.78 205.77 68.76 194.58
  Q 68.80 194.51 68.75 194.46
  L 68.52 194.23
  A 0.18 0.17 -50.1 0 0 68.26 194.26
  L 46.47 227.10
  A 0.92 0.91 32.0 0 0 46.77 228.39"
/>
<path stroke="#b39b8c" vector-effect="non-scaling-stroke" d="
  M 192.88 201.13
  Q 186.00 194.01 192.34 201.62
  Q 206.42 218.55 220.74 235.28
  Q 221.21 235.83 221.70 235.30
  L 223.38 233.48
  A 0.55 0.55 0.0 0 0 223.37 232.73
  L 192.88 201.13"
/>
<path stroke="#b39b8c" vector-effect="non-scaling-stroke" d="
  M 117.54 240.00
  Q 117.25 220.51 117.88 201.06
  Q 117.90 200.46 117.42 199.50
  Q 117.20 199.06 117.16 199.55
  L 113.63 240.00"
/>
</g>
<path fill="#663718" d="
  M 126.06 0.00
  L 130.30 0.00
  L 123.58 61.52
  Q 123.52 62.08 123.35 61.54
  Q 123.04 60.55 123.08 59.94
  Q 125.02 30.08 126.61 0.26
  Q 126.34 0.13 126.06 0.00
  Z"
/>
<path fill="#ffffff" d="
  M 130.30 0.00
  L 131.30 0.00
  Q 131.55 0.19 132.10 0.32
  Q 132.65 0.44 132.59 0.99
  L 125.67 64.68
  A 2.10 2.09 84.4 0 1 124.22 66.45
  C 119.52 67.92 120.95 54.76 121.04 53.25
  Q 122.67 27.58 123.97 1.88
  C 124.08 -0.27 124.81 0.09 126.61 0.26
  Q 125.02 30.08 123.08 59.94
  Q 123.04 60.55 123.35 61.54
  Q 123.52 62.08 123.58 61.52
  L 130.30 0.00
  Z"
/>
<path fill="#ffffff" d="
  M 57.32 51.73
  Q 53.16 48.11 49.90 44.34
  Q 34.33 26.31 19.04 8.69
  A 1.82 1.82 0.0 0 1 19.25 6.09
  L 24.25 1.96
  Q 24.62 1.65 24.92 2.03
  Q 42.81 25.00 60.04 48.23
  Q 61.55 50.28 58.44 51.87
  A 1.01 1.00 -37.7 0 1 57.32 51.73
  Z
  M 46.62 34.14
  C 39.06 24.66 31.86 14.91 24.37 5.37
  Q 24.02 4.92 23.58 5.29
  L 21.64 6.92
  Q 21.21 7.27 21.57 7.69
  Q 39.10 28.13 56.87 48.35
  Q 57.75 49.35 57.00 48.25
  Q 52.09 40.99 46.62 34.14
  Z"
/>
<path fill="#ffffff" d="
  M 199.26 5.38
  A 1.84 1.84 0.0 0 1 199.73 7.94
  L 199.66 8.04
  A 46.29 3.04 -55.4 0 1 170.87 44.42
  L 169.19 43.26
  A 46.29 3.04 -55.4 0 1 192.97 3.43
  L 193.05 3.33
  A 1.84 1.84 0.0 0 1 195.60 2.86
  L 199.26 5.38
  Z
  M 195.95 5.85
  Q 195.50 5.53 194.87 5.46
  Q 194.37 5.41 194.11 5.82
  L 172.85 39.14
  A 0.24 0.24 0.0 0 0 173.25 39.42
  L 197.21 7.71
  Q 197.56 7.24 197.19 6.79
  Q 197.00 6.56 196.77 6.41
  A 2.11 0.06 32.6 0 1 195.95 5.85
  Z"
/>
<path fill="#ffffff" d="
  M 75.70 3.18
  A 1.79 1.79 0.0 0 1 77.95 4.33
  L 77.99 4.44
  A 48.11 3.04 71.9 0 1 90.05 51.11
  L 88.03 51.77
  A 48.11 3.04 71.9 0 1 70.20 6.99
  L 70.16 6.87
  A 1.79 1.79 0.0 0 1 71.30 4.62
  L 75.70 3.18
  Z
  M 72.72 7.45
  L 87.81 48.23
  A 0.13 0.12 30.1 0 0 88.05 48.18
  L 76.19 6.22
  Q 75.97 5.43 75.20 5.72
  L 73.15 6.51
  A 0.74 0.73 -20.6 0 0 72.72 7.45
  Z"
/>
<path fill="#663718" d="
  M 24.37 5.37
  C 31.86 14.91 39.06 24.66 46.62 34.14
  Q 52.09 40.99 57.00 48.25
  Q 57.75 49.35 56.87 48.35
  Q 39.10 28.13 21.57 7.69
  Q 21.21 7.27 21.64 6.92
  L 23.58 5.29
  Q 24.02 4.92 24.37 5.37
  Z"
/>
<path fill="#663718" d="
  M 196.77 6.41
  Q 197.00 6.56 197.19 6.79
  Q 197.56 7.24 197.21 7.71
  L 173.25 39.42
  A 0.24 0.24 0.0 0 1 172.85 39.14
  L 194.11 5.82
  Q 194.37 5.41 194.87 5.46
  Q 195.50 5.53 195.95 5.85
  A 2.11 0.06 32.6 0 0 196.77 6.41
  Z"
/>
<path fill="#663718" d="
  M 87.81 48.23
  L 72.72 7.45
  A 0.74 0.73 -20.6 0 1 73.15 6.51
  L 75.20 5.72
  Q 75.97 5.43 76.19 6.22
  L 88.05 48.18
  A 0.13 0.12 30.1 0 1 87.81 48.23
  Z"
/>
<path fill="#ffffff" d="
  M 240.00 17.99
  L 240.00 21.04
  L 206.99 47.77
  A 0.15 0.15 0.0 0 0 207.16 48.01
  Q 223.69 37.01 240.00 25.29
  L 240.00 28.06
  Q 221.72 41.53 206.57 51.33
  C 204.62 52.59 202.01 49.06 203.51 47.76
  Q 214.17 38.50 240.00 17.99
  Z"
/>
<path fill="#663718" d="
  M 240.00 21.04
  L 240.00 25.29
  Q 223.69 37.01 207.16 48.01
  A 0.15 0.15 0.0 0 1 206.99 47.77
  L 240.00 21.04
  Z"
/>
<path fill="#ffffff" d="
  M 0.00 46.32
  L 0.00 43.54
  L 28.71 62.02
  A 0.14 0.14 0.0 0 0 28.88 61.80
  Q 13.72 49.82 1.54 41.47
  Q 0.35 40.65 0.00 39.94
  L 0.00 37.40
  Q 15.34 48.22 29.83 59.41
  Q 31.04 60.34 33.72 63.12
  Q 34.12 63.54 33.70 63.94
  L 31.62 65.91
  Q 31.17 66.34 30.64 66.00
  L 0.00 46.32
  Z"
/>
<path fill="#663718" d="
  M 0.00 39.94
  Q 0.35 40.65 1.54 41.47
  Q 13.72 49.82 28.88 61.80
  A 0.14 0.14 0.0 0 1 28.71 62.02
  L 0.00 43.54
  L 0.00 39.94
  Z"
/>
<path fill="#ffffff" d="
  M 0.00 75.38
  L 0.00 72.81
  Q 21.44 80.53 42.77 88.44
  Q 43.02 88.53 43.09 88.22
  Q 43.15 87.95 42.89 87.85
  L 0.00 69.76
  L 0.00 67.20
  L 43.26 85.49
  Q 43.73 85.70 43.96 85.23
  C 48.79 75.30 58.27 65.03 69.17 61.91
  C 72.27 61.03 73.35 62.44 73.89 65.31
  C 79.18 93.13 92.79 122.00 113.32 141.98
  C 119.44 147.94 117.23 149.04 111.44 153.28
  Q 111.19 153.46 111.38 153.70
  L 114.77 157.90
  Q 115.18 158.41 114.73 158.90
  Q 112.08 161.80 108.52 163.27
  C 78.15 175.87 47.00 158.22 41.11 126.23
  C 38.94 114.47 36.69 102.35 41.49 90.93
  Q 41.68 90.47 41.22 90.30
  L 0.00 75.38
  Z
  M 43.86 124.74
  C 44.53 141.52 57.52 156.15 72.43 161.87
  C 85.59 166.92 98.99 165.63 111.32 158.92
  A 0.87 0.87 0.0 0 0 111.51 157.54
  L 106.46 152.63
  L 114.03 148.73
  A 1.06 1.06 0.0 0 0 114.33 147.08
  Q 111.02 143.42 107.65 139.64
  C 88.87 118.61 76.58 92.73 71.29 65.01
  A 1.21 1.21 0.0 0 0 70.01 64.03
  Q 68.76 64.13 67.20 64.97
  C 45.03 76.86 35.94 100.94 43.86 124.74
  Z"
/>
<path fill="#663718" d="
  M 106.46 152.63
  C 83.85 160.36 59.78 152.79 47.53 132.00
  C 46.32 129.95 45.22 127.10 43.86 124.74
  C 35.94 100.94 45.03 76.86 67.20 64.97
  Q 68.76 64.13 70.01 64.03
  A 1.21 1.21 0.0 0 1 71.29 65.01
  C 76.58 92.73 88.87 118.61 107.65 139.64
  Q 111.02 143.42 114.33 147.08
  A 1.06 1.06 0.0 0 1 114.03 148.73
  L 106.46 152.63
  Z
  M 56.81 138.63
  C 70.98 153.04 90.51 156.52 109.24 147.80
  A 0.79 0.79 0.0 0 0 109.48 146.54
  Q 80.51 116.04 70.25 75.50
  Q 69.38 72.08 68.94 68.80
  A 0.73 0.73 0.0 0 0 67.87 68.26
  C 41.93 82.66 35.85 117.32 56.81 138.63
  Z"
/>
<path fill="#ba3325" d="
  M 56.81 138.63
  C 35.85 117.32 41.93 82.66 67.87 68.26
  A 0.73 0.73 0.0 0 1 68.94 68.80
  Q 69.38 72.08 70.25 75.50
  Q 80.51 116.04 109.48 146.54
  A 0.79 0.79 0.0 0 1 109.24 147.80
  C 90.51 156.52 70.98 153.04 56.81 138.63
  Z"
/>
<path fill="#663718" d="
  M 0.00 69.76
  L 42.89 87.85
  Q 43.15 87.95 43.09 88.22
  Q 43.02 88.53 42.77 88.44
  Q 21.44 80.53 0.00 72.81
  L 0.00 69.76
  Z"
/>
<path fill="#ffffff" d="
  M 240.00 76.50
  L 240.00 79.01
  Q 214.76 86.37 189.71 94.28
  A 0.17 0.16 -59.8 0 0 189.79 94.60
  Q 214.98 88.53 240.00 81.95
  L 240.00 84.56
  L 193.20 96.49
  A 0.35 0.35 0.0 0 0 192.98 97.00
  Q 204.13 116.38 198.46 138.36
  Q 198.32 138.89 198.86 139.02
  L 240.00 149.27
  L 240.00 151.78
  L 199.23 141.69
  A 0.23 0.23 0.0 0 0 199.11 142.13
  L 240.00 154.70
  L 240.00 157.29
  L 197.18 144.17
  A 1.02 1.02 0.0 0 0 195.96 144.71
  C 183.38 171.73 152.64 181.89 126.27 168.78
  C 122.82 167.07 119.99 164.82 123.54 161.06
  C 144.38 139.00 158.72 113.62 164.57 83.78
  C 165.60 78.55 167.75 75.95 173.17 79.13
  Q 182.77 84.77 188.94 91.38
  Q 189.28 91.75 189.77 91.61
  L 240.00 76.50
  Z
  M 185.57 91.85
  C 180.96 86.90 175.95 82.81 169.80 80.37
  A 1.62 1.62 0.0 0 0 167.62 81.57
  Q 158.57 128.63 125.12 162.69
  A 1.85 1.84 36.5 0 0 125.56 165.61
  C 148.37 177.92 175.29 172.10 189.99 150.48
  C 202.17 132.58 200.22 107.59 185.57 91.85
  Z"
/>
<path fill="#663718" d="
  M 240.00 79.01
  L 240.00 81.95
  Q 214.98 88.53 189.79 94.60
  A 0.17 0.16 -59.8 0 1 189.71 94.28
  Q 214.76 86.37 240.00 79.01
  Z"
/>
<path fill="#663718" d="
  M 185.57 91.85
  C 200.22 107.59 202.17 132.58 189.99 150.48
  C 175.29 172.10 148.37 177.92 125.56 165.61
  A 1.85 1.84 36.5 0 1 125.12 162.69
  Q 158.57 128.63 167.62 81.57
  A 1.62 1.62 0.0 0 1 169.80 80.37
  C 175.95 82.81 180.96 86.90 185.57 91.85
  Z
  M 170.21 84.97
  Q 170.36 85.84 170.22 85.29
  Q 160.90 128.96 130.96 161.25
  L 129.81 162.23
  Q 127.90 160.63 126.34 163.40
  A 0.85 0.85 0.0 0 0 126.67 164.55
  C 136.80 170.27 150.64 171.53 161.19 169.21
  Q 167.45 167.84 175.44 162.98
  C 176.29 162.46 176.74 161.39 178.08 161.48
  Q 178.57 161.51 178.91 161.16
  Q 181.81 158.13 184.65 155.10
  Q 187.88 151.64 189.68 148.44
  C 195.32 138.41 198.39 125.78 195.60 114.35
  Q 190.53 93.62 170.63 81.96
  A 1.25 1.24 -58.2 0 0 168.96 82.36
  Q 168.10 83.68 170.21 84.97
  Z"
/>
<path fill="#5e0c05" d="
  M 129.81 162.23
  L 129.53 162.53
  A 1.00 1.00 0.0 0 0 129.85 164.13
  C 146.17 171.45 164.36 169.95 178.23 158.64
  C 202.96 138.49 198.89 101.38 172.03 84.98
  Q 170.89 84.28 170.21 84.97
  Q 168.10 83.68 168.96 82.36
  A 1.25 1.24 -58.2 0 1 170.63 81.96
  Q 190.53 93.62 195.60 114.35
  C 198.39 125.78 195.32 138.41 189.68 148.44
  Q 187.88 151.64 184.65 155.10
  Q 181.81 158.13 178.91 161.16
  Q 178.57 161.51 178.08 161.48
  C 176.74 161.39 176.29 162.46 175.44 162.98
  Q 167.45 167.84 161.19 169.21
  C 150.64 171.53 136.80 170.27 126.67 164.55
  A 0.85 0.85 0.0 0 1 126.34 163.40
  Q 127.90 160.63 129.81 162.23
  Z"
/>
<path fill="#cc1308" d="
  M 129.81 162.23
  L 130.96 161.25
  Q 131.54 162.27 132.50 162.28
  C 173.64 162.91 197.48 117.92 170.22 85.29
  Q 170.36 85.84 170.21 84.97
  Q 170.89 84.28 172.03 84.98
  C 198.89 101.38 202.96 138.49 178.23 158.64
  C 164.36 169.95 146.17 171.45 129.85 164.13
  A 1.00 1.00 0.0 0 1 129.53 162.53
  L 129.81 162.23
  Z"
/>
<path fill="#ed533a" d="
  M 170.22 85.29
  C 197.48 117.92 173.64 162.91 132.50 162.28
  Q 131.54 162.27 130.96 161.25
  Q 160.90 128.96 170.22 85.29
  Z"
/>
<path fill="#ffffff" d="
  M 240.00 92.98
  L 240.00 95.52
  L 210.83 101.27
  A 0.10 0.10 0.0 0 0 210.86 101.47
  L 240.00 97.87
  L 240.00 100.67
  Q 225.79 102.16 211.56 103.90
  Q 208.77 104.24 207.33 101.79
  Q 207.03 101.28 207.45 100.86
  Q 209.19 99.09 212.25 98.46
  Q 226.07 95.61 240.00 92.98
  Z"
/>
<path fill="#663718" d="
  M 240.00 95.52
  L 240.00 97.87
  L 210.86 101.47
  A 0.10 0.10 0.0 0 1 210.83 101.27
  L 240.00 95.52
  Z"
/>
<path fill="#ffffff" d="
  M 0.00 124.57
  L 0.00 122.47
  L 20.53 120.80
  A 0.10 0.10 0.0 0 0 20.52 120.60
  L 0.00 120.24
  L 0.00 118.09
  C 4.02 118.00 21.09 116.67 24.18 119.45
  A 1.58 1.58 0.0 0 1 23.70 122.09
  C 17.01 124.70 7.16 124.36 0.00 124.57
  Z"
/>
<path fill="#663718" d="
  M 0.00 120.24
  L 20.52 120.60
  A 0.10 0.10 0.0 0 1 20.53 120.80
  L 0.00 122.47
  L 0.00 120.24
  Z"
/>
<path fill="#a5a5a5" d="
  M 43.86 124.74
  C 45.22 127.10 46.32 129.95 47.53 132.00
  C 59.78 152.79 83.85 160.36 106.46 152.63
  L 111.51 157.54
  A 0.87 0.87 0.0 0 1 111.32 158.92
  C 98.99 165.63 85.59 166.92 72.43 161.87
  C 57.52 156.15 44.53 141.52 43.86 124.74
  Z"
/>
<path fill="#663718" d="
  M 240.00 151.78
  L 240.00 154.70
  L 199.11 142.13
  A 0.23 0.23 0.0 0 1 199.23 141.69
  L 240.00 151.78
  Z"
/>
<path fill="#ffffff" d="
  M 0.00 203.44
  L 0.00 201.74
  Q 0.31 200.78 0.58 200.59
  Q 21.54 185.20 41.92 169.00
  A 0.21 0.21 0.0 0 0 41.67 168.66
  Q 21.00 182.87 0.74 197.60
  Q 0.50 197.77 0.24 197.61
  Q 0.08 197.50 0.00 197.44
  L 0.00 195.15
  L 44.73 164.00
  A 0.69 0.68 48.6 0 1 45.59 164.06
  L 47.71 166.07
  Q 48.17 166.50 47.72 166.94
  Q 45.28 169.39 41.69 172.19
  Q 16.58 191.77 1.32 203.33
  Q 0.50 203.95 0.00 203.44
  Z"
/>
<path fill="#ffffff" d="
  M 240.00 201.32
  L 240.00 204.16
  L 190.28 171.12
  Q 186.28 168.46 189.77 171.77
  Q 189.87 171.87 191.95 173.35
  Q 216.08 190.51 240.00 207.78
  L 240.00 209.54
  Q 239.40 210.37 238.81 209.95
  C 220.47 196.79 201.85 183.74 184.06 169.86
  A 0.69 0.68 -52.6 0 1 183.94 168.91
  L 185.83 166.41
  Q 186.24 165.86 186.81 166.24
  L 240.00 201.32
  Z"
/>
<path fill="#663718" d="
  M 0.00 201.74
  L 0.00 197.44
  Q 0.08 197.50 0.24 197.61
  Q 0.50 197.77 0.74 197.60
  Q 21.00 182.87 41.67 168.66
  A 0.21 0.21 0.0 0 1 41.92 169.00
  Q 21.54 185.20 0.58 200.59
  Q 0.31 200.78 0.00 201.74
  Z"
/>
<path fill="#663718" d="
  M 240.00 204.16
  L 240.00 207.78
  Q 216.08 190.51 191.95 173.35
  Q 189.87 171.87 189.77 171.77
  Q 186.28 168.46 190.28 171.12
  L 240.00 204.16
  Z"
/>
<path fill="#ffffff" d="
  M 125.93 231.03
  A 1.34 1.34 0.0 0 1 124.54 229.75
  C 123.89 216.61 124.50 203.52 123.85 190.43
  C 123.74 188.26 123.99 184.89 126.52 184.25
  A 0.91 0.90 64.3 0 1 127.45 184.58
  Q 129.35 187.15 129.71 191.25
  Q 131.27 209.12 132.78 227.00
  Q 132.91 228.62 132.59 230.23
  Q 132.48 230.81 131.89 230.83
  L 125.93 231.03
  Z
  M 127.30 228.78
  L 129.63 229.05
  A 0.65 0.65 0.0 0 0 130.36 228.35
  L 127.03 188.72
  A 0.29 0.29 0.0 0 0 126.45 188.75
  L 126.87 228.30
  Q 126.88 228.73 127.30 228.78
  Z"
/>
<path fill="#ffffff" d="
  M 0.00 228.23
  L 0.00 224.81
  L 33.85 192.13
  A 0.28 0.28 0.0 0 0 33.48 191.72
  L 0.00 220.16
  L 0.00 217.91
  Q 1.57 215.95 6.17 211.91
  Q 20.23 199.56 34.06 188.64
  A 2.08 2.08 0.0 0 1 37.02 191.50
  Q 35.38 193.73 32.64 196.39
  Q 16.35 212.17 0.00 228.23
  Z"
/>
<path fill="#663718" d="
  M 129.63 229.05
  L 127.30 228.78
  Q 126.88 228.73 126.87 228.30
  L 126.45 188.75
  A 0.29 0.29 0.0 0 1 127.03 188.72
  L 130.36 228.35
  A 0.65 0.65 0.0 0 1 129.63 229.05
  Z"
/>
<path fill="#ffffff" d="
  M 69.67 190.33
  C 71.75 191.36 72.26 192.77 71.09 194.90
  Q 61.02 213.31 51.15 231.37
  A 1.73 1.72 21.4 0 1 49.21 232.21
  Q 45.73 231.34 43.95 228.19
  Q 43.68 227.69 43.91 227.18
  Q 44.57 225.72 45.92 223.68
  Q 54.07 211.34 62.22 199.00
  Q 65.19 194.51 68.76 190.51
  A 0.77 0.76 -55.9 0 1 69.67 190.33
  Z
  M 46.77 228.39
  L 48.69 229.51
  Q 49.15 229.77 49.41 229.31
  C 55.82 217.76 61.78 205.77 68.76 194.58
  Q 68.80 194.51 68.75 194.46
  L 68.52 194.23
  A 0.18 0.17 -50.1 0 0 68.26 194.26
  L 46.47 227.10
  A 0.92 0.91 32.0 0 0 46.77 228.39
  Z"
/>
<path fill="#663718" d="
  M 0.00 224.81
  L 0.00 220.16
  L 33.48 191.72
  A 0.28 0.28 0.0 0 1 33.85 192.13
  L 0.00 224.81
  Z"
/>
<path fill="#663718" d="
  M 46.77 228.39
  A 0.92 0.91 32.0 0 1 46.47 227.10
  L 68.26 194.26
  A 0.18 0.17 -50.1 0 1 68.52 194.23
  L 68.75 194.46
  Q 68.80 194.51 68.76 194.58
  C 61.78 205.77 55.82 217.76 49.41 229.31
  Q 49.15 229.77 48.69 229.51
  L 46.77 228.39
  Z"
/>
<path fill="#ffffff" d="
  M 214.48 220.06
  C 217.01 222.63 222.87 227.54 225.68 231.81
  C 227.23 234.17 223.90 237.07 221.93 238.04
  Q 221.48 238.26 221.02 238.09
  Q 219.33 237.49 218.14 236.11
  Q 201.85 217.27 186.25 197.86
  Q 185.89 197.42 186.31 197.03
  L 188.50 195.02
  Q 188.97 194.60 189.41 195.03
  Q 202.06 207.44 214.48 220.06
  Z
  M 192.88 201.13
  Q 186.00 194.01 192.34 201.62
  Q 206.42 218.55 220.74 235.28
  Q 221.21 235.83 221.70 235.30
  L 223.38 233.48
  A 0.55 0.55 0.0 0 0 223.37 232.73
  L 192.88 201.13
  Z"
/>
<path fill="#ffffff" d="
  M 119.87 240.00
  L 117.54 240.00
  Q 117.25 220.51 117.88 201.06
  Q 117.90 200.46 117.42 199.50
  Q 117.20 199.06 117.16 199.55
  L 113.63 240.00
  L 111.18 240.00
  Q 113.72 208.36 114.76 198.81
  Q 114.97 196.96 116.97 195.52
  Q 117.32 195.27 117.71 195.44
  Q 119.93 196.37 119.98 198.31
  Q 120.24 207.77 119.87 240.00
  Z"
/>
<path fill="#663718" d="
  M 192.88 201.13
  L 223.37 232.73
  A 0.55 0.55 0.0 0 1 223.38 233.48
  L 221.70 235.30
  Q 221.21 235.83 220.74 235.28
  Q 206.42 218.55 192.34 201.62
  Q 186.00 194.01 192.88 201.13
  Z"
/>
<path fill="#663718" d="
  M 117.54 240.00
  L 113.63 240.00
  L 117.16 199.55
  Q 117.20 199.06 117.42 199.50
  Q 117.90 200.46 117.88 201.06
  Q 117.25 220.51 117.54 240.00
  Z"
/>
</svg>
