<?xml version="1.0" encoding="UTF-8" standalone="no"?>
<!DOCTYPE svg PUBLIC "-//W3C//DTD SVG 1.1//EN" "http://www.w3.org/Graphics/SVG/1.1/DTD/svg11.dtd">
<svg xmlns="http://www.w3.org/2000/svg" version="1.1" viewBox="0.00 0.00 240.00 240.00">
<g stroke-width="2.00" fill="none" stroke-linecap="butt">
<path stroke="#b39b8c" vector-effect="non-scaling-stroke" d="
  M 61.35 153.20
  L 58.43 151.56"
/>
<path stroke="#fffdc7" vector-effect="non-scaling-stroke" d="
  M 58.43 151.56
  L 52.01 138.74"
/>
<path stroke="#b39b8c" vector-effect="non-scaling-stroke" d="
  M 52.01 138.74
  Q 52.82 137.39 52.13 136.71
  Q 51.70 136.29 51.35 136.77
  C 49.19 139.67 47.85 138.68 45.13 140.06
  Q 44.53 140.36 45.02 140.83
  Q 49.25 144.88 45.63 149.63
  A 0.74 0.74 0.0 0 0 46.29 150.82
  L 49.92 150.48
  A 1.24 1.23 -27.1 0 1 50.85 150.78
  C 52.97 152.61 52.14 156.02 53.46 157.01
  A 0.68 0.68 0.0 0 0 54.52 156.68
  Q 55.85 152.69 60.75 153.30"
/>
<path stroke="#b29954" vector-effect="non-scaling-stroke" d="
  M 52.01 138.74
  Q 50.63 140.36 48.32 141.05
  Q 47.70 141.24 48.03 141.80
  Q 49.84 144.85 48.37 148.18
  A 0.44 0.44 0.0 0 0 48.78 148.80
  Q 52.99 148.76 54.11 152.76
  Q 54.25 153.26 54.66 152.95
  Q 56.45 151.62 58.43 151.56"
/>
<path stroke="#b39b8c" vector-effect="non-scaling-stroke" d="
  M 128.12 84.50
  Q 111.46 75.41 94.13 78.91
  C 72.92 83.20 57.11 101.80 56.11 123.39
  C 55.21 142.97 65.26 159.91 82.90 169.10
  C 84.95 170.17 85.86 169.82 86.32 167.52
  Q 95.58 120.78 128.51 87.16
  A 1.68 1.68 0.0 0 0 128.12 84.50"
/>
<path stroke="#992510" vector-effect="non-scaling-stroke" d="
  M 83.69 165.30
  Q 83.84 164.57 83.68 163.98"
/>
<path stroke="#aa4529" vector-effect="non-scaling-stroke" d="
  M 83.68 163.98
  Q 93.07 120.92 122.89 88.37"
/>
<path stroke="#992510" vector-effect="non-scaling-stroke" d="
  M 122.89 88.37
  Q 123.80 87.81 124.44 86.67"
/>
<path stroke="#62220f" vector-effect="non-scaling-stroke" d="
  M 124.44 86.67
  Q 125.72 88.56 126.94 87.50
  A 1.29 1.29 0.0 0 0 126.68 85.37
  Q 119.10 81.55 111.86 80.18
  C 108.46 79.54 104.88 80.00 101.23 79.90
  C 79.69 79.29 62.18 97.48 57.99 117.50
  C 56.78 123.30 57.58 131.39 58.85 137.07
  C 59.31 139.13 60.55 141.34 60.81 143.80
  Q 60.86 144.28 61.23 144.60
  Q 61.63 144.94 61.85 145.43
  Q 69.03 160.95 84.16 168.11
  A 0.76 0.75 -86.4 0 0 85.20 167.19
  Q 84.74 165.82 83.69 165.30"
/>
<path stroke="#951007" vector-effect="non-scaling-stroke" d="
  M 124.44 86.67
  Q 123.20 85.53 121.26 84.77
  C 95.53 74.66 67.91 87.79 60.81 114.78
  C 55.76 133.97 63.74 152.92 80.06 163.94
  Q 82.00 165.24 83.69 165.30"
/>
<path stroke="#dd3321" vector-effect="non-scaling-stroke" d="
  M 122.89 88.37
  Q 121.83 87.93 121.01 87.91
  C 81.18 87.01 57.68 129.92 81.65 162.34
  Q 82.79 163.88 83.68 163.98"
/>
<path stroke="#af8682" vector-effect="non-scaling-stroke" d="
  M 169.71 163.00
  Q 174.03 158.75 177.16 153.57"
/>
<path stroke="#b39b8c" vector-effect="non-scaling-stroke" d="
  M 177.16 153.57
  C 191.75 129.58 181.98 96.74 156.01 85.40
  A 1.48 1.48 0.0 0 0 153.97 86.44
  C 146.96 118.21 134.20 144.82 111.37 167.86
  A 1.55 1.54 37.6 0 0 111.69 170.29
  C 130.41 181.18 154.26 178.78 169.71 163.00"
/>
<path stroke="#62220f" vector-effect="non-scaling-stroke" d="
  M 177.16 153.57
  L 176.69 152.81
  Q 176.42 152.39 176.65 151.95
  Q 180.34 144.62 182.00 136.64
  C 182.86 132.54 182.69 124.10 181.85 120.29
  C 178.89 106.81 170.41 94.55 158.08 88.04
  Q 157.62 87.80 157.34 87.37
  Q 156.66 86.34 155.37 86.81
  A 0.81 0.80 83.4 0 0 154.85 87.47
  Q 154.69 88.81 156.47 90.17"
/>
<path stroke="#992510" vector-effect="non-scaling-stroke" d="
  M 156.47 90.17
  Q 156.19 90.18 156.23 90.77"
/>
<path stroke="#aa4529" vector-effect="non-scaling-stroke" d="
  M 156.23 90.77
  Q 147.37 133.57 116.90 166.96"
/>
<path stroke="#992510" vector-effect="non-scaling-stroke" d="
  M 116.90 166.96
  L 115.70 167.55"
/>
<path stroke="#62220f" vector-effect="non-scaling-stroke" d="
  M 115.70 167.55
  Q 113.13 166.57 112.93 168.82
  Q 112.88 169.34 113.35 169.59
  C 130.64 178.78 150.99 177.14 166.26 164.53
  Q 166.59 164.25 167.00 164.42
  C 167.69 164.72 168.39 162.87 169.71 163.00"
/>
<path stroke="#dd3321" vector-effect="non-scaling-stroke" d="
  M 116.90 166.96
  Q 136.84 168.42 150.92 156.71
  C 170.86 140.10 173.40 111.33 157.22 91.28
  Q 156.78 90.73 156.23 90.77"
/>
<path stroke="#951007" vector-effect="non-scaling-stroke" d="
  M 115.70 167.55
  Q 115.12 168.63 115.80 168.95
  C 150.87 185.39 189.42 155.33 179.06 117.15
  Q 174.27 99.48 157.71 89.81
  Q 156.90 89.34 156.47 90.17"
/>
<path stroke="#fffdc7" vector-effect="non-scaling-stroke" d="
  M 134.28 124.32
  L 140.57 111.60"
/>
<path stroke="#b39b8c" vector-effect="non-scaling-stroke" d="
  M 140.57 111.60
  Q 141.85 110.86 141.94 110.08
  A 0.51 0.50 0.9 0 0 141.39 109.52
  Q 137.60 109.87 136.46 106.27
  A 0.78 0.78 0.0 0 0 134.94 106.51
  C 134.98 109.75 133.06 114.45 128.90 111.92
  A 0.96 0.95 -2.8 0 0 127.64 113.31
  Q 131.19 118.03 127.09 121.86
  A 0.81 0.81 0.0 0 0 127.61 123.26
  Q 131.21 123.43 133.35 126.28
  A 0.46 0.46 0.0 0 0 134.11 126.24
  Q 134.57 125.46 134.28 124.32"
/>
<path stroke="#b29954" vector-effect="non-scaling-stroke" d="
  M 140.57 111.60
  Q 138.60 111.31 136.81 110.20
  Q 136.24 109.85 136.02 110.47
  Q 134.68 114.15 130.78 114.34
  A 0.41 0.40 77.9 0 0 130.42 114.90
  Q 131.75 118.15 130.17 121.22
  Q 129.90 121.76 130.47 121.96
  Q 132.65 122.75 134.28 124.32"
/>
</g>
<path fill="#ffffff" d="
  M 61.35 153.20
  L 58.43 151.56
  L 52.01 138.74
  Q 52.82 137.39 52.13 136.71
  Q 51.70 136.29 51.35 136.77
  C 49.19 139.67 47.85 138.68 45.13 140.06
  Q 44.53 140.36 45.02 140.83
  Q 49.25 144.88 45.63 149.63
  A 0.74 0.74 0.0 0 0 46.29 150.82
  L 49.92 150.48
  A 1.24 1.23 -27.1 0 1 50.85 150.78
  C 52.97 152.61 52.14 156.02 53.46 157.01
  A 0.68 0.68 0.0 0 0 54.52 156.68
  Q 55.85 152.69 60.75 153.30
  L 60.73 155.34
  Q 60.72 156.00 60.06 156.00
  L 57.77 156.00
  A 0.59 0.58 8.8 0 0 57.21 156.40
  Q 56.45 158.71 54.03 159.42
  Q 52.87 159.77 52.34 158.68
  L 49.86 153.50
  Q 49.64 153.04 49.13 153.02
  C 46.45 152.87 43.07 153.92 42.99 149.80
  Q 42.99 149.32 43.31 148.98
  Q 46.75 145.35 42.90 142.28
  A 1.93 1.93 0.0 0 1 43.07 139.14
  L 51.32 133.92
  A 0.75 0.74 -42.5 0 1 52.17 133.95
  L 53.38 134.84
  A 0.44 0.44 0.0 0 0 54.08 134.46
  C 53.77 127.62 53.42 120.39 54.98 114.00
  C 58.95 97.68 70.09 84.85 85.78 78.96
  Q 105.61 71.52 127.01 81.00
  C 137.16 85.49 126.48 92.66 123.36 96.33
  Q 97.21 127.19 89.01 166.73
  C 88.16 170.80 86.73 173.81 81.99 171.53
  Q 68.93 165.25 61.35 153.20
  Z
  M 128.12 84.50
  Q 111.46 75.41 94.13 78.91
  C 72.92 83.20 57.11 101.80 56.11 123.39
  C 55.21 142.97 65.26 159.91 82.90 169.10
  C 84.95 170.17 85.86 169.82 86.32 167.52
  Q 95.58 120.78 128.51 87.16
  A 1.68 1.68 0.0 0 0 128.12 84.50
  Z"
/>
<path fill="#663718" d="
  M 128.12 84.50
  A 1.68 1.68 0.0 0 1 128.51 87.16
  Q 95.58 120.78 86.32 167.52
  C 85.86 169.82 84.95 170.17 82.90 169.10
  C 65.26 159.91 55.21 142.97 56.11 123.39
  C 57.11 101.80 72.92 83.20 94.13 78.91
  Q 111.46 75.41 128.12 84.50
  Z
  M 83.69 165.30
  Q 83.84 164.57 83.68 163.98
  Q 93.07 120.92 122.89 88.37
  Q 123.80 87.81 124.44 86.67
  Q 125.72 88.56 126.94 87.50
  A 1.29 1.29 0.0 0 0 126.68 85.37
  Q 119.10 81.55 111.86 80.18
  C 108.46 79.54 104.88 80.00 101.23 79.90
  C 79.69 79.29 62.18 97.48 57.99 117.50
  C 56.78 123.30 57.58 131.39 58.85 137.07
  C 59.31 139.13 60.55 141.34 60.81 143.80
  Q 60.86 144.28 61.23 144.60
  Q 61.63 144.94 61.85 145.43
  Q 69.03 160.95 84.16 168.11
  A 0.76 0.75 -86.4 0 0 85.20 167.19
  Q 84.74 165.82 83.69 165.30
  Z"
/>
<path fill="#5e0d05" d="
  M 124.44 86.67
  Q 123.20 85.53 121.26 84.77
  C 95.53 74.66 67.91 87.79 60.81 114.78
  C 55.76 133.97 63.74 152.92 80.06 163.94
  Q 82.00 165.24 83.69 165.30
  Q 84.74 165.82 85.20 167.19
  A 0.76 0.75 -86.4 0 1 84.16 168.11
  Q 69.03 160.95 61.85 145.43
  Q 61.63 144.94 61.23 144.60
  Q 60.86 144.28 60.81 143.80
  C 60.55 141.34 59.31 139.13 58.85 137.07
  C 57.58 131.39 56.78 123.30 57.99 117.50
  C 62.18 97.48 79.69 79.29 101.23 79.90
  C 104.88 80.00 108.46 79.54 111.86 80.18
  Q 119.10 81.55 126.68 85.37
  A 1.29 1.29 0.0 0 1 126.94 87.50
  Q 125.72 88.56 124.44 86.67
  Z"
/>
<path fill="#cc1308" d="
  M 124.44 86.67
  Q 123.80 87.81 122.89 88.37
  Q 121.83 87.93 121.01 87.91
  C 81.18 87.01 57.68 129.92 81.65 162.34
  Q 82.79 163.88 83.68 163.98
  Q 83.84 164.57 83.69 165.30
  Q 82.00 165.24 80.06 163.94
  C 63.74 152.92 55.76 133.97 60.81 114.78
  C 67.91 87.79 95.53 74.66 121.26 84.77
  Q 123.20 85.53 124.44 86.67
  Z"
/>
<path fill="#ffffff" d="
  M 143.97 110.52
  A 0.43 0.43 0.0 0 0 144.80 110.73
  Q 148.75 99.30 151.03 87.76
  Q 151.47 85.52 152.65 83.60
  Q 152.91 83.18 153.40 83.07
  Q 156.24 82.41 158.25 83.46
  Q 179.43 94.52 185.01 117.04
  C 186.52 123.13 186.81 134.11 185.19 140.46
  C 176.82 173.28 141.85 189.13 111.68 173.24
  C 104.70 169.56 111.15 164.41 114.00 161.47
  C 126.82 148.26 136.98 130.52 143.65 113.43
  Q 143.85 112.92 143.30 112.96
  C 139.24 113.26 138.36 132.89 131.52 127.95
  C 129.13 126.23 124.63 125.32 124.03 122.06
  A 1.04 1.04 0.0 0 1 124.32 121.15
  L 126.80 118.69
  A 1.11 1.10 58.8 0 0 127.07 117.55
  C 125.33 112.47 122.45 109.58 130.96 110.01
  A 0.75 0.75 0.0 0 0 131.74 109.36
  C 132.10 106.64 134.10 101.01 137.39 103.67
  C 139.31 105.22 138.32 107.44 142.07 107.09
  A 1.27 1.26 65.5 0 1 143.09 107.48
  Q 144.27 108.73 143.97 110.52
  Z
  M 169.71 163.00
  Q 174.03 158.75 177.16 153.57
  C 191.75 129.58 181.98 96.74 156.01 85.40
  A 1.48 1.48 0.0 0 0 153.97 86.44
  C 146.96 118.21 134.20 144.82 111.37 167.86
  A 1.55 1.54 37.6 0 0 111.69 170.29
  C 130.41 181.18 154.26 178.78 169.71 163.00
  Z
  M 134.28 124.32
  L 140.57 111.60
  Q 141.85 110.86 141.94 110.08
  A 0.51 0.50 0.9 0 0 141.39 109.52
  Q 137.60 109.87 136.46 106.27
  A 0.78 0.78 0.0 0 0 134.94 106.51
  C 134.98 109.75 133.06 114.45 128.90 111.92
  A 0.96 0.95 -2.8 0 0 127.64 113.31
  Q 131.19 118.03 127.09 121.86
  A 0.81 0.81 0.0 0 0 127.61 123.26
  Q 131.21 123.43 133.35 126.28
  A 0.46 0.46 0.0 0 0 134.11 126.24
  Q 134.57 125.46 134.28 124.32
  Z"
/>
<path fill="#663718" d="
  M 177.16 153.57
  L 176.69 152.81
  Q 176.42 152.39 176.65 151.95
  Q 180.34 144.62 182.00 136.64
  C 182.86 132.54 182.69 124.10 181.85 120.29
  C 178.89 106.81 170.41 94.55 158.08 88.04
  Q 157.62 87.80 157.34 87.37
  Q 156.66 86.34 155.37 86.81
  A 0.81 0.80 83.4 0 0 154.85 87.47
  Q 154.69 88.81 156.47 90.17
  Q 156.19 90.18 156.23 90.77
  Q 147.37 133.57 116.90 166.96
  L 115.70 167.55
  Q 113.13 166.57 112.93 168.82
  Q 112.88 169.34 113.35 169.59
  C 130.64 178.78 150.99 177.14 166.26 164.53
  Q 166.59 164.25 167.00 164.42
  C 167.69 164.72 168.39 162.87 169.71 163.00
  C 154.26 178.78 130.41 181.18 111.69 170.29
  A 1.55 1.54 37.6 0 1 111.37 167.86
  C 134.20 144.82 146.96 118.21 153.97 86.44
  A 1.48 1.48 0.0 0 1 156.01 85.40
  C 181.98 96.74 191.75 129.58 177.16 153.57
  Z"
/>
<path fill="#5e0d05" d="
  M 177.16 153.57
  Q 174.03 158.75 169.71 163.00
  C 168.39 162.87 167.69 164.72 167.00 164.42
  Q 166.59 164.25 166.26 164.53
  C 150.99 177.14 130.64 178.78 113.35 169.59
  Q 112.88 169.34 112.93 168.82
  Q 113.13 166.57 115.70 167.55
  Q 115.12 168.63 115.80 168.95
  C 150.87 185.39 189.42 155.33 179.06 117.15
  Q 174.27 99.48 157.71 89.81
  Q 156.90 89.34 156.47 90.17
  Q 154.69 88.81 154.85 87.47
  A 0.81 0.80 83.4 0 1 155.37 86.81
  Q 156.66 86.34 157.34 87.37
  Q 157.62 87.80 158.08 88.04
  C 170.41 94.55 178.89 106.81 181.85 120.29
  C 182.69 124.10 182.86 132.54 182.00 136.64
  Q 180.34 144.62 176.65 151.95
  Q 176.42 152.39 176.69 152.81
  L 177.16 153.57
  Z"
/>
<path fill="#ed533a" d="
  M 122.89 88.37
  Q 93.07 120.92 83.68 163.98
  Q 82.79 163.88 81.65 162.34
  C 57.68 129.92 81.18 87.01 121.01 87.91
  Q 121.83 87.93 122.89 88.37
  Z"
/>
<path fill="#cc1308" d="
  M 115.70 167.55
  L 116.90 166.96
  Q 136.84 168.42 150.92 156.71
  C 170.86 140.10 173.40 111.33 157.22 91.28
  Q 156.78 90.73 156.23 90.77
  Q 156.19 90.18 156.47 90.17
  Q 156.90 89.34 157.71 89.81
  Q 174.27 99.48 179.06 117.15
  C 189.42 155.33 150.87 185.39 115.80 168.95
  Q 115.12 168.63 115.70 167.55
  Z"
/>
<path fill="#ed533a" d="
  M 156.23 90.77
  Q 156.78 90.73 157.22 91.28
  C 173.40 111.33 170.86 140.10 150.92 156.71
  Q 136.84 168.42 116.90 166.96
  Q 147.37 133.57 156.23 90.77
  Z"
/>
<path fill="#663718" d="
  M 140.57 111.60
  Q 138.60 111.31 136.81 110.20
  Q 136.24 109.85 136.02 110.47
  Q 134.68 114.15 130.78 114.34
  A 0.41 0.40 77.9 0 0 130.42 114.90
  Q 131.75 118.15 130.17 121.22
  Q 129.90 121.76 130.47 121.96
  Q 132.65 122.75 134.28 124.32
  Q 134.57 125.46 134.11 126.24
  A 0.46 0.46 0.0 0 1 133.35 126.28
  Q 131.21 123.43 127.61 123.26
  A 0.81 0.81 0.0 0 1 127.09 121.86
  Q 131.19 118.03 127.64 113.31
  A 0.96 0.95 -2.8 0 1 128.90 111.92
  C 133.06 114.45 134.98 109.75 134.94 106.51
  A 0.78 0.78 0.0 0 1 136.46 106.27
  Q 137.60 109.87 141.39 109.52
  A 0.51 0.50 0.9 0 1 141.94 110.08
  Q 141.85 110.86 140.57 111.60
  Z"
/>
<path fill="#fefb8f" d="
  M 140.57 111.60
  L 134.28 124.32
  Q 132.65 122.75 130.47 121.96
  Q 129.90 121.76 130.17 121.22
  Q 131.75 118.15 130.42 114.90
  A 0.41 0.40 77.9 0 1 130.78 114.34
  Q 134.68 114.15 136.02 110.47
  Q 136.24 109.85 136.81 110.20
  Q 138.60 111.31 140.57 111.60
  Z"
/>
<path fill="#663718" d="
  M 52.01 138.74
  Q 50.63 140.36 48.32 141.05
  Q 47.70 141.24 48.03 141.80
  Q 49.84 144.85 48.37 148.18
  A 0.44 0.44 0.0 0 0 48.78 148.80
  Q 52.99 148.76 54.11 152.76
  Q 54.25 153.26 54.66 152.95
  Q 56.45 151.62 58.43 151.56
  L 61.35 153.20
  L 60.75 153.30
  Q 55.85 152.69 54.52 156.68
  A 0.68 0.68 0.0 0 1 53.46 157.01
  C 52.14 156.02 52.97 152.61 50.85 150.78
  A 1.24 1.23 -27.1 0 0 49.92 150.48
  L 46.29 150.82
  A 0.74 0.74 0.0 0 1 45.63 149.63
  Q 49.25 144.88 45.02 140.83
  Q 44.53 140.36 45.13 140.06
  C 47.85 138.68 49.19 139.67 51.35 136.77
  Q 51.70 136.29 52.13 136.71
  Q 52.82 137.39 52.01 138.74
  Z"
/>
<path fill="#fefb8f" d="
  M 52.01 138.74
  L 58.43 151.56
  Q 56.45 151.62 54.66 152.95
  Q 54.25 153.26 54.11 152.76
  Q 52.99 148.76 48.78 148.80
  A 0.44 0.44 0.0 0 1 48.37 148.18
  Q 49.84 144.85 48.03 141.80
  Q 47.70 141.24 48.32 141.05
  Q 50.63 140.36 52.01 138.74
  Z"
/>
</svg>
